<?xml version="1.0" standalone="no"?>
<!DOCTYPE svg PUBLIC "-//W3C//DTD SVG 1.1//EN" "http://www.w3.org/Graphics/SVG/1.1/DTD/svg11.dtd" >
<svg xmlns="http://www.w3.org/2000/svg" xmlns:xlink="http://www.w3.org/1999/xlink" version="1.1">
<metadata>
Created by FontForge 20170924 at Sun Jan 24 21:38:10 2016
 By www-data
Please contact us to learn more about license restrictions.
</metadata>
<defs>
<font id="FilsonPro-Bold" horiz-adv-x="595" >
  <font-face 
    font-family="Filson Pro"
    font-weight="700"
    font-stretch="normal"
    units-per-em="1000"
    panose-1="2 0 0 0 0 0 0 0 0 0"
    ascent="750"
    descent="-250"
    x-height="513"
    cap-height="700"
    bbox="-241 -313 1426 981"
    underline-thickness="50"
    underline-position="-100"
    unicode-range="U+0020-FB04"
  />
<missing-glyph horiz-adv-x="673" 
d="M573 0h-473v701h473v-701zM284 257h60c0 21 4 34 12 40c3 1 25 15 33 20c9 7 31 22 42 33c26 26 51 59 51 105c0 79 -66 130 -154 130c-97 0 -147 -55 -147 -111c0 -17 3 -33 9 -46h63c-5 12 -8 27 -8 44c0 33 31 57 79 57c56 0 90 -29 90 -74v-2c0 -44 -26 -71 -87 -108
c-21 -12 -33 -23 -37 -32s-6 -27 -6 -56zM266 144c0 -28 21 -49 48 -49c28 0 50 21 50 49c0 27 -22 49 -50 49c-27 0 -48 -22 -48 -49z" />
    <glyph glyph-name="f_f" unicode="ff" horiz-adv-x="802" 
d="M651 567v-58h115v-113h-115v-396h-149v396h-252v-396h-149v396h-72v113h72v34c0 69 17 118 50 147s76 44 128 44c112 0 164 -68 164 -153l-116 -11c0 30 -13 45 -39 45c-25 0 -38 -16 -38 -48v-58h252v34c0 69 17 118 50 147s76 44 128 44c112 0 164 -68 164 -153
c0 -12 -2 -21 -5 -28h-115c3 3 4 8 4 17c0 30 -13 45 -39 45c-25 0 -38 -16 -38 -48z" />
    <glyph glyph-name="fi" unicode="fi" horiz-adv-x="695" 
d="M102 0v396h-73v113h73v20c0 137 79 205 236 205c93 0 174 -37 205 -124l-141 -39c-10 29 -31 44 -64 44c-58 0 -87 -29 -87 -86v-20h379v-509h-149v396h-230v-396h-149z" />
    <glyph glyph-name="fl" unicode="fl" horiz-adv-x="682" 
d="M102 0v396h-73v113h73v20c0 137 79 205 236 205c42 0 91 -5 146 -15c56 -9 100 -21 133 -34v-685h-149v595c-37 13 -81 20 -130 20c-58 0 -87 -29 -87 -86v-20h131v-113h-131v-396h-149z" />
    <glyph glyph-name="f_f_i" unicode="ffi" horiz-adv-x="1096" 
d="M337 615c-58 0 -87 -29 -87 -86v-20h252v20c0 137 79 205 236 205c93 0 174 -37 205 -124l-141 -39c-10 29 -31 44 -64 44c-58 0 -87 -29 -87 -86v-20h379v-509h-149v396h-230v-396h-149v396h-252v-396h-149v396h-72v113h72v20c0 137 79 205 236 205
c65 0 118 -19 158 -58l-79 -90c-20 19 -46 29 -79 29z" />
    <glyph glyph-name="f_f_l" unicode="ffl" horiz-adv-x="1083" 
d="M337 615c-58 0 -87 -29 -87 -86v-20h252v20c0 137 79 205 236 205c42 0 91 -5 146 -15c56 -9 100 -21 133 -34v-685h-149v595c-37 13 -81 20 -130 20c-58 0 -87 -29 -87 -86v-20h131v-113h-131v-396h-149v396h-252v-396h-149v396h-72v113h72v20c0 170 121 205 215 205
c79 0 139 -19 179 -58l-79 -90c-20 19 -46 29 -79 29z" />
    <glyph glyph-name="f_j" unicode="fj" horiz-adv-x="722" 
d="M101 0v396h-72v113h72v20c0 137 79 205 236 205c93 0 174 -37 205 -124l-141 -39c-10 29 -31 44 -64 44c-58 0 -87 -29 -87 -86v-20h406v-563c0 -69 -17 -118 -50 -147s-76 -44 -128 -44c-113 0 -171 69 -171 153c0 11 2 20 6 28h118c-1 -3 -1 -8 -1 -17
c0 -30 13 -45 39 -45c25 0 38 16 38 48v474h-257v-396h-149z" />
    <glyph glyph-name="f_f_j" unicode="ffj" horiz-adv-x="1123" 
d="M337 734c65 0 118 -19 158 -58l-79 -90c-20 19 -46 29 -79 29c-58 0 -87 -29 -87 -86v-20h252v20c0 137 79 205 236 205c93 0 174 -37 205 -124l-141 -39c-10 29 -31 44 -64 44c-58 0 -87 -29 -87 -86v-20h406v-563c0 -69 -17 -118 -50 -147s-76 -44 -128 -44
c-113 0 -171 69 -171 153c0 11 2 20 6 28h118c-1 -3 -1 -8 -1 -17c0 -30 13 -45 39 -45c25 0 38 16 38 48v474h-257v-396h-149v396h-252v-396h-149v396h-72v113h72v20c0 137 79 205 236 205z" />
    <glyph glyph-name=".notdef" horiz-adv-x="673" 
d="M573 0h-473v701h473v-701zM284 257h60c0 21 4 34 12 40c3 1 25 15 33 20c9 7 31 22 42 33c26 26 51 59 51 105c0 79 -66 130 -154 130c-97 0 -147 -55 -147 -111c0 -17 3 -33 9 -46h63c-5 12 -8 27 -8 44c0 33 31 57 79 57c56 0 90 -29 90 -74v-2c0 -44 -26 -71 -87 -108
c-21 -12 -33 -23 -37 -32s-6 -27 -6 -56zM266 144c0 -28 21 -49 48 -49c28 0 50 21 50 49c0 27 -22 49 -50 49c-27 0 -48 -22 -48 -49z" />
    <glyph glyph-name="NULL" horiz-adv-x="0" 
 />
    <glyph glyph-name="CR" horiz-adv-x="333" 
 />
    <glyph glyph-name="space" unicode=" " horiz-adv-x="244" 
 />
    <glyph glyph-name="exclam" unicode="!" horiz-adv-x="293" 
d="M237 700v-29l-36 -437h-109l-36 437v29h181zM52 75c0 51 41 88 94 88s95 -39 95 -88s-42 -86 -95 -86s-94 37 -94 86z" />
    <glyph glyph-name="quotedbl" unicode="&#x22;" horiz-adv-x="482" 
d="M47 711h153l-32 -287h-89zM282 711h153l-32 -287h-89z" />
    <glyph glyph-name="numbersign" unicode="#" horiz-adv-x="767" 
d="M646 700l-36 -142h126l-26 -101h-125l-50 -196h127l-26 -102h-124l-41 -159h-112l41 159h-129l-40 -159h-111l39 159h-128l25 102h128l50 196h-129l26 101h128l36 142h111l-36 -142h129l35 142h112zM473 457h-129l-49 -196h129z" />
    <glyph glyph-name="dollar" unicode="$" horiz-adv-x="557" 
d="M320 -70h-64v86c-59 5 -110 25 -152 59c-41 35 -65 80 -71 135l132 26c13 -51 44 -80 91 -87v142l-26 9c-110 39 -165 105 -165 198c0 104 78 175 191 186v83h64v-85c88 -11 149 -58 184 -143l-122 -59c-16 34 -37 56 -62 67v-132l25 -8c123 -43 172 -122 173 -194
c0 -58 -19 -104 -57 -137s-85 -53 -141 -59v-87zM373 207c0 25 -18 45 -53 62v-117c35 9 53 28 53 55zM209 496c0 -24 16 -43 47 -58v112c-31 -8 -47 -26 -47 -54z" />
    <glyph glyph-name="percent" unicode="%" horiz-adv-x="1000" 
d="M352 0h-106l389 700h105zM31 523c0 53 19 98 56 134c38 36 85 54 140 54c56 0 103 -18 140 -54s56 -81 56 -134s-19 -97 -56 -133s-84 -54 -140 -54c-55 0 -102 18 -140 54c-37 36 -56 80 -56 133zM145 523c0 -51 38 -87 82 -87c47 0 84 35 84 87s-37 89 -84 89
c-44 0 -82 -37 -82 -89zM577 176c0 53 19 98 56 134c38 36 85 54 140 54c56 0 103 -18 140 -54s56 -81 56 -134s-19 -97 -56 -133s-84 -54 -140 -54c-55 0 -102 18 -140 54c-37 36 -56 80 -56 133zM691 176c0 -51 38 -87 82 -87c47 0 84 35 84 87s-37 89 -84 89
c-44 0 -82 -37 -82 -89z" />
    <glyph glyph-name="ampersand" unicode="&#x26;" horiz-adv-x="792" 
d="M496 58l-5 5c-47 -49 -115 -74 -203 -74c-72 0 -133 18 -182 55s-73 86 -73 148c0 85 54 155 163 210c-40 49 -60 97 -60 144c0 37 12 68 35 94c48 53 111 71 170 71c50 0 93 -17 129 -50c37 -33 55 -71 55 -116c0 -68 -51 -131 -126 -174l86 -96l54 76c4 5 15 23 20 30
h136v-30l-125 -175l32 -34c19 -17 37 -26 54 -26c31 0 59 12 82 37l51 -99c-43 -43 -91 -65 -142 -65c-55 0 -105 23 -151 69zM404 167l-124 140c-56 -20 -98 -61 -98 -108c0 -52 48 -88 111 -88c42 0 79 19 111 56zM273 538c0 -23 16 -51 47 -84c46 28 69 57 69 86
s-21 58 -56 58s-60 -27 -60 -60z" />
    <glyph glyph-name="quotesingle" unicode="'" horiz-adv-x="247" 
d="M47 711h153l-32 -287h-89z" />
    <glyph glyph-name="parenleft" unicode="(" horiz-adv-x="347" 
d="M329 -191l-95 -55c-25 27 -52 62 -79 107c-27 44 -54 104 -80 180c-25 77 -38 153 -38 228c0 116 32 240 76 328c44 89 85 151 121 188l95 -55c-33 -49 -65 -115 -96 -200c-31 -84 -46 -171 -46 -261s15 -177 46 -261s63 -150 96 -199z" />
    <glyph glyph-name="parenright" unicode=")" horiz-adv-x="347" 
d="M18 730l95 55c36 -37 77 -99 121 -188c44 -88 76 -212 76 -328c0 -75 -13 -151 -39 -228c-51 -152 -107 -234 -158 -287l-95 55c33 49 65 115 96 199s46 171 46 261s-15 177 -46 261c-31 85 -63 151 -96 200z" />
    <glyph glyph-name="asterisk" unicode="*" horiz-adv-x="458" 
d="M231 462l-76 -110l-76 58l82 101l-126 36l31 93l121 -48l-8 131h100l-9 -130l123 47l29 -93l-125 -34l83 -104l-78 -55z" />
    <glyph glyph-name="plus" unicode="+" horiz-adv-x="562" 
d="M345 252v-183h-127v183h-185v116h185v183h127v-183h184v-116h-184z" />
    <glyph glyph-name="comma" unicode="," horiz-adv-x="263" 
d="M57 -162l-33 55c25 9 48 26 68 49c21 23 31 45 31 66c-41 -1 -76 36 -77 73c-3 45 29 81 85 81c30 0 51 -11 64 -32s20 -42 20 -65c0 -45 -15 -91 -45 -136c-30 -46 -68 -76 -113 -91z" />
    <glyph glyph-name="hyphen" unicode="-" horiz-adv-x="477" 
d="M417 254h-357v120h357v-120z" />
    <glyph glyph-name="period" unicode="." horiz-adv-x="278" 
d="M45 75c0 51 41 88 94 88s95 -39 95 -88s-42 -86 -95 -86s-94 37 -94 86z" />
    <glyph glyph-name="slash" unicode="/" horiz-adv-x="554" 
d="M408 739h122l-385 -775h-121z" />
    <glyph glyph-name="zero" unicode="0" horiz-adv-x="708" 
d="M666 350c0 -102 -29 -188 -86 -257s-133 -103 -227 -103c-95 0 -170 34 -227 103c-56 69 -84 154 -84 257s28 189 84 258c57 69 132 103 227 103c94 0 170 -35 227 -104s86 -154 86 -257zM191 350c0 -68 15 -125 44 -171c29 -45 69 -68 118 -68s89 23 119 68
c30 46 45 103 45 171s-15 125 -45 171s-70 69 -119 69s-89 -23 -118 -69c-29 -45 -44 -102 -44 -171z" />
    <glyph glyph-name="one" unicode="1" horiz-adv-x="411" 
d="M45 470l-38 117l253 113h85v-700h-152v526c-16 -7 -42 -17 -78 -30c-35 -13 -59 -21 -70 -26z" />
    <glyph glyph-name="two" unicode="2" horiz-adv-x="615" 
d="M409 239l-143 -122c33 4 69 6 109 6h200v-123h-513l-15 92l266 245c63 55 94 104 94 148c0 61 -42 99 -110 99c-81 0 -115 -52 -115 -108h-146c0 49 19 103 56 151c39 49 113 84 205 84c77 0 139 -20 186 -61s71 -95 71 -164c0 -83 -48 -165 -145 -247z" />
    <glyph glyph-name="three" unicode="3" horiz-adv-x="619" 
d="M280 115c41 0 75 12 102 37c28 25 42 53 42 84c0 33 -12 61 -37 82s-54 32 -87 32c-32 0 -63 -6 -93 -19l-58 78l200 168h-287v123h493v-88l-189 -159c56 -5 105 -29 147 -72s63 -91 63 -144c0 -69 -27 -128 -82 -176c-54 -48 -126 -72 -216 -72c-109 0 -194 28 -256 84
l74 95c61 -35 122 -53 184 -53z" />
    <glyph glyph-name="four" unicode="4" horiz-adv-x="660" 
d="M345 480l-157 -180h157v180zM345 0v175h-327v91l376 434h103v-400h139v-125h-139v-175h-152z" />
    <glyph glyph-name="five" unicode="5" horiz-adv-x="618" 
d="M288 115c91 0 146 55 146 126c0 57 -50 108 -130 108c-61 0 -108 -17 -142 -51l-101 40l23 362h452v-123h-320l-10 -148h5c34 25 79 37 134 37c65 0 121 -22 169 -67c48 -44 72 -97 72 -158c0 -76 -26 -137 -78 -183c-51 -46 -123 -69 -214 -69c-112 0 -199 28 -261 84
l74 95c61 -35 121 -53 181 -53z" />
    <glyph glyph-name="six" unicode="6" horiz-adv-x="651" 
d="M358 582c-39 0 -74 -16 -107 -49s-51 -78 -55 -137h4c33 40 92 70 155 70c67 0 127 -22 179 -65s78 -100 78 -171c0 -70 -26 -128 -77 -173s-118 -68 -199 -68c-89 0 -161 32 -214 95c-53 64 -79 147 -79 250c0 109 27 199 80 270c54 71 130 107 229 107
c97 0 188 -38 244 -103l-91 -83c-36 38 -85 57 -147 57zM335 348c-84 0 -130 -50 -130 -111c0 -32 11 -60 34 -85s54 -37 93 -37c35 0 66 11 91 33c25 23 38 50 38 83c0 69 -49 117 -126 117z" />
    <glyph glyph-name="seven" unicode="7" horiz-adv-x="562" 
d="M372 577h-346v123h525v-92l-318 -608h-171z" />
    <glyph glyph-name="eight" unicode="8" horiz-adv-x="660" 
d="M329 418h2c71 0 107 44 107 91c0 44 -43 79 -108 79s-108 -35 -108 -79c0 -47 36 -91 107 -91zM334 314c-135 9 -179 -116 -103 -170c25 -19 58 -28 99 -28c81 0 136 42 136 98c0 55 -47 100 -132 100zM41 214c0 32 12 64 35 96s53 54 89 65c-28 10 -51 28 -69 54
c-18 27 -27 53 -27 80c0 62 24 111 72 147c49 37 112 55 189 55s140 -18 188 -55c49 -36 73 -85 73 -147c0 -27 -9 -53 -27 -80c-18 -26 -41 -44 -69 -54c36 -11 66 -33 89 -65s35 -64 35 -96c0 -69 -27 -124 -80 -165c-53 -40 -123 -60 -209 -60s-156 20 -209 60
c-53 41 -80 96 -80 165z" />
    <glyph glyph-name="nine" unicode="9" horiz-adv-x="651" 
d="M293 118c39 0 74 16 107 49s51 78 55 137h-4c-27 -40 -91 -70 -155 -70c-67 0 -127 21 -179 64s-78 101 -78 172c0 70 26 128 77 173s118 68 199 68c89 0 160 -32 213 -96c53 -63 80 -146 80 -249c0 -109 -27 -200 -81 -271c-53 -71 -129 -106 -228 -106
c-97 0 -188 38 -244 103l91 83c36 -38 85 -57 147 -57zM316 352c84 0 130 50 130 111c0 32 -12 60 -35 85s-53 37 -92 37c-35 0 -66 -11 -91 -34c-25 -22 -38 -49 -38 -82c0 -69 49 -117 126 -117z" />
    <glyph glyph-name="colon" unicode=":" horiz-adv-x="308" 
d="M60 75c0 51 41 88 94 88s95 -39 95 -88s-42 -86 -95 -86s-94 37 -94 86zM60 436c0 51 41 88 94 88s95 -39 95 -88s-42 -86 -95 -86s-94 37 -94 86z" />
    <glyph glyph-name="semicolon" unicode=";" horiz-adv-x="302" 
d="M77 -156l-33 55c26 9 49 25 69 47c21 21 31 43 31 64c-45 -1 -81 38 -82 78c-3 48 31 86 90 86c69 -2 92 -66 89 -103c0 -47 -16 -92 -48 -137c-31 -45 -70 -75 -116 -90zM56 436c0 51 41 88 94 88s95 -39 95 -88s-42 -86 -95 -86s-94 37 -94 86z" />
    <glyph glyph-name="less" unicode="&#x3c;" horiz-adv-x="591" 
d="M32 224v110l484 208h20v-134l-332 -129l332 -129v-134h-20z" />
    <glyph glyph-name="equal" unicode="=" horiz-adv-x="618" 
d="M557 247v-120h-496v120h496zM557 512v-120h-496v120h496z" />
    <glyph glyph-name="greater" unicode="&#x3e;" horiz-adv-x="591" 
d="M55 542h20l484 -208v-110l-484 -208h-20v134l332 129l-332 129v134z" />
    <glyph glyph-name="question" unicode="?" horiz-adv-x="539" 
d="M314 242v-9h-139c0 37 4 64 11 82c8 19 29 39 62 60c76 48 108 78 108 129c0 49 -39 80 -91 80c-49 0 -89 -28 -89 -73c0 -13 4 -29 13 -50h-142c-9 18 -14 40 -14 65c0 46 20 88 61 127s98 58 171 58c71 0 128 -19 173 -56s67 -87 67 -148c0 -88 -53 -153 -176 -229
c-10 -7 -15 -19 -15 -36zM151 75c0 51 41 88 94 88s95 -39 95 -88s-42 -86 -95 -86s-94 37 -94 86z" />
    <glyph glyph-name="at" unicode="@" horiz-adv-x="1011" 
d="M755 60c75 3 122 74 122 222c0 103 -34 187 -103 253c-68 66 -157 99 -266 99s-199 -37 -271 -112c-72 -74 -108 -166 -108 -277s34 -203 101 -276s154 -110 261 -110c77 0 143 13 200 40l40 -77c-73 -35 -153 -52 -240 -52c-135 0 -244 45 -328 135
c-84 89 -126 203 -126 340s44 251 133 342s202 136 338 136c137 0 248 -41 333 -123s128 -188 128 -318c0 -211 -81 -304 -214 -304c-91 0 -128 39 -136 110c-33 -45 -96 -71 -156 -71c-63 0 -114 22 -154 66s-60 98 -60 162c0 65 20 119 60 162c41 44 93 66 157 66
c61 0 110 -22 146 -66v56h98v-350c0 -35 15 -53 45 -53zM479 105c76 0 132 54 132 138c0 41 -12 75 -37 102s-57 40 -97 40s-72 -13 -95 -40s-35 -60 -35 -100c0 -80 53 -140 132 -140z" />
    <glyph glyph-name="A" unicode="A" horiz-adv-x="705" 
d="M214 131l-48 -131h-160l270 700h151l274 -700h-162l-50 131v-2h-275v2zM445 256l-93 280l-96 -280h189z" />
    <glyph glyph-name="B" unicode="B" horiz-adv-x="662" 
d="M592 509c0 -61 -42 -121 -114 -146c41 -7 76 -28 104 -61s42 -68 42 -105c0 -59 -23 -107 -68 -143s-105 -54 -180 -54h-293v701l263 -1c73 0 132 -17 177 -52c46 -34 69 -80 69 -139zM319 298h-81v-175h138c53 0 91 30 91 77c0 29 -10 53 -31 71c-20 18 -59 27 -117 27z
M238 577v-171h64c89 0 133 32 133 96c0 48 -38 75 -89 75h-108z" />
    <glyph glyph-name="C" unicode="C" horiz-adv-x="694" 
d="M423 711c103 0 172 -29 251 -88l-64 -118c-59 45 -121 68 -186 68c-69 0 -125 -21 -166 -64c-41 -42 -62 -95 -62 -159s21 -117 62 -160c41 -42 97 -63 166 -63c65 0 127 23 186 68l64 -118c-79 -59 -148 -88 -251 -88c-115 0 -208 35 -279 105c-70 70 -105 155 -105 256
s35 186 105 256c71 70 164 105 279 105z" />
    <glyph glyph-name="D" unicode="D" horiz-adv-x="757" 
d="M345 577h-107v-454h107c65 0 117 22 156 65c40 44 60 98 60 162s-20 118 -60 161c-39 44 -91 66 -156 66zM345 0h-262v700h262c112 0 202 -34 270 -101s102 -150 102 -249s-34 -183 -102 -250s-158 -100 -270 -100z" />
    <glyph glyph-name="E" unicode="E" 
d="M548 123v-123h-465v700h465v-123h-310v-172h269v-123h-269v-159h310z" />
    <glyph glyph-name="F" unicode="F" horiz-adv-x="585" 
d="M238 282v-282h-155v700h465v-123h-310v-172h269v-123h-269z" />
    <glyph glyph-name="G" unicode="G" horiz-adv-x="734" 
d="M39 350c0 101 35 186 104 256s161 105 274 105c88 0 172 -30 252 -90l-77 -115c-58 43 -115 64 -170 63c-170 0 -228 -120 -228 -221c0 -63 20 -115 60 -156c41 -41 93 -61 156 -61c51 0 94 9 129 26v100h-177v124h322v-285c-80 -71 -171 -107 -273 -107
c-106 0 -195 35 -266 105c-71 71 -106 156 -106 256z" />
    <glyph glyph-name="H" unicode="H" horiz-adv-x="742" 
d="M659 700v-700h-155v273h-266v-273h-155v700h155v-304h266v304h155z" />
    <glyph glyph-name="I" unicode="I" horiz-adv-x="321" 
d="M83 700h155v-700h-155v700z" />
    <glyph glyph-name="J" unicode="J" horiz-adv-x="660" 
d="M431 701h155v-392c0 -212 -103 -320 -291 -320c-96 0 -170 33 -211 82c-40 49 -59 105 -59 164c0 44 12 83 35 117h143c-21 -33 -31 -69 -31 -106c0 -68 40 -127 121 -127c99 0 138 62 138 190v392z" />
    <glyph glyph-name="K" unicode="K" horiz-adv-x="664" 
d="M342 131l-107 191v-2v-320h-153v700h153v-321l207 321h159v-20l-218 -323l88 -155c20 -35 36 -58 48 -68c13 -9 29 -14 50 -14c13 0 29 6 49 17l56 -110c-39 -25 -84 -38 -135 -38c-83 0 -148 47 -197 142z" />
    <glyph glyph-name="L" unicode="L" horiz-adv-x="575" 
d="M238 700v-577h317v-123h-472v700h155z" />
    <glyph glyph-name="M" unicode="M" horiz-adv-x="938" 
d="M694 426l-175 -418h-100l-175 418l-37 -426h-155l65 700h156l196 -471l196 471h156l65 -700h-155z" />
    <glyph glyph-name="N" unicode="N" horiz-adv-x="747" 
d="M664 0h-118l-309 426v-425h-155v699h119l308 -422v422h155v-700z" />
    <glyph glyph-name="O" unicode="O" horiz-adv-x="805" 
d="M403 711c100 0 185 -35 256 -106s107 -156 107 -255s-36 -184 -107 -255s-156 -106 -256 -106c-101 0 -187 35 -258 106s-106 156 -106 255s35 184 106 255s157 106 258 106zM253 507c-41 -41 -61 -94 -61 -157s20 -116 61 -157s91 -62 150 -62s108 21 149 62
s61 94 61 157s-20 116 -61 157s-90 62 -149 62s-109 -21 -150 -62z" />
    <glyph glyph-name="P" unicode="P" horiz-adv-x="644" 
d="M238 247v-247h-155v700h307c70 0 125 -22 165 -66s60 -98 60 -163c0 -64 -20 -117 -61 -160c-40 -43 -95 -64 -164 -64h-152zM238 577v-208h132c55 0 89 42 89 103c0 63 -34 105 -89 105h-132z" />
    <glyph glyph-name="Q" unicode="Q" horiz-adv-x="807" 
d="M254 507c-41 -41 -61 -94 -61 -157s20 -116 61 -157s91 -62 150 -62s108 21 149 62s61 94 61 157s-20 116 -61 157s-90 62 -149 62s-109 -21 -150 -62zM703 -42l48 -109c-54 -37 -113 -55 -176 -55c-67 0 -122 19 -165 58s-66 86 -68 142c-86 16 -158 57 -217 124
c-58 67 -87 145 -87 232c0 99 36 184 107 255c72 71 158 106 259 106c100 0 186 -35 257 -106c72 -71 108 -156 108 -255c0 -82 -27 -156 -81 -222c-54 -65 -120 -108 -199 -129c1 -52 39 -78 98 -78c31 0 83 16 116 37z" />
    <glyph glyph-name="R" unicode="R" horiz-adv-x="705" 
d="M236 570v-197h137c55 0 88 39 88 98c0 60 -33 99 -88 99h-137zM616 470c0 -100 -56 -181 -148 -210c21 -85 52 -134 116 -134c26 0 50 10 71 30l55 -107c-27 -21 -51 -36 -73 -46c-22 -9 -50 -14 -83 -14c-63 0 -117 31 -149 70c-16 19 -30 42 -41 67
c-23 51 -31 88 -35 123h-93v-249h-154v700h311c69 0 124 -22 163 -67c40 -44 60 -98 60 -163z" />
    <glyph glyph-name="S" unicode="S" horiz-adv-x="589" 
d="M28 195l138 27c19 -64 61 -96 127 -96c60 0 105 23 105 72c0 31 -20 54 -81 75l-76 26c-119 41 -178 110 -178 208c0 62 22 111 66 148s101 56 170 56c109 0 193 -53 234 -153l-126 -63c-22 53 -58 79 -108 79c-51 0 -85 -21 -85 -65c0 -33 25 -58 75 -75l74 -26
c123 -38 185 -107 186 -207c0 -69 -25 -121 -75 -158c-49 -36 -108 -54 -176 -54c-70 0 -131 19 -183 56c-51 37 -80 87 -87 150z" />
    <glyph glyph-name="T" unicode="T" horiz-adv-x="597" 
d="M24 570v130h549v-130h-199v-570h-153v570h-197z" />
    <glyph glyph-name="U" unicode="U" horiz-adv-x="729" 
d="M499 265v435h155v-435c0 -87 -28 -154 -83 -203s-124 -73 -207 -73s-152 24 -207 73s-82 116 -82 203v435h155v-435c0 -93 58 -146 134 -146s135 54 135 146z" />
    <glyph glyph-name="V" unicode="V" horiz-adv-x="676" 
d="M409 0h-143l-247 700h164l155 -497l155 497h164z" />
    <glyph glyph-name="W" unicode="W" horiz-adv-x="996" 
d="M441 677h115l128 -406l131 429h158l-220 -700h-123l-132 424l-132 -424h-123l-220 700h158l131 -429z" />
    <glyph glyph-name="X" unicode="X" horiz-adv-x="686" 
d="M500 0l-157 244l-157 -244h-182v20l251 350l-229 310v20h181l136 -208l136 208h181v-20l-229 -310l251 -350v-20h-182z" />
    <glyph glyph-name="Y" unicode="Y" horiz-adv-x="729" 
d="M198 700l166 -273h1l166 273h180v-20l-269 -393v-287h-155v285l-269 395v20h180z" />
    <glyph glyph-name="Z" unicode="Z" horiz-adv-x="672" 
d="M234 123h407v-123h-612v100l379 477h-350v123h558v-101z" />
    <glyph glyph-name="bracketleft" unicode="[" horiz-adv-x="401" 
d="M375 -234h-309v984h309v-118h-165v-748h165v-118z" />
    <glyph glyph-name="backslash" unicode="\" horiz-adv-x="554" 
d="M530 -36h-121l-385 775h122z" />
    <glyph glyph-name="bracketright" unicode="]" horiz-adv-x="401" 
d="M26 750h309v-984h-309v118h165v748h-165v118z" />
    <glyph glyph-name="asciicircum" unicode="^" horiz-adv-x="555" 
d="M334 700l186 -373h-135l-107 236l-57 -124l-51 -112h-134l187 373h111z" />
    <glyph glyph-name="underscore" unicode="_" horiz-adv-x="719" 
d="M719 -181h-719v120h719v-120z" />
    <glyph glyph-name="grave" unicode="`" horiz-adv-x="562" 
d="M277 577l-148 173h157l99 -173h-108z" />
    <glyph glyph-name="a" unicode="a" horiz-adv-x="658" 
d="M183 258c0 -84 52 -148 132 -148c77 0 134 51 134 140c0 93 -55 153 -138 153c-79 0 -128 -62 -128 -145zM445 443v70h149v-513h-149v75c-40 -57 -94 -86 -161 -86c-76 0 -137 26 -182 77s-68 116 -68 193c0 75 22 138 65 189c44 51 105 76 182 76c67 0 128 -32 164 -81z
" />
    <glyph glyph-name="b" unicode="b" horiz-adv-x="658" 
d="M624 259c0 -77 -23 -142 -68 -193s-106 -77 -182 -77c-67 0 -121 29 -161 86v-75h-149v723h149v-280c36 49 97 81 164 81c77 0 138 -25 181 -76c44 -51 66 -114 66 -189zM475 258c0 83 -49 145 -128 145c-83 0 -138 -60 -138 -153c0 -89 57 -140 134 -140
c80 0 132 64 132 148z" />
    <glyph glyph-name="c" unicode="c" horiz-adv-x="552" 
d="M319 524c71 0 141 -25 210 -76l-68 -109c-38 34 -83 51 -135 51c-87 0 -145 -54 -145 -133s58 -133 145 -133c52 0 97 17 135 51l68 -109c-69 -51 -139 -76 -210 -76c-87 0 -156 25 -209 75c-52 51 -78 115 -78 192s26 141 78 191c53 51 122 76 209 76z" />
    <glyph glyph-name="d" unicode="d" horiz-adv-x="659" 
d="M183 258c0 -84 52 -148 132 -148c77 0 134 51 134 140c0 93 -55 153 -138 153c-79 0 -128 -62 -128 -145zM445 443v280h149v-723h-149v75c-40 -57 -94 -86 -161 -86c-76 0 -137 26 -182 77s-68 116 -68 193c0 75 22 138 65 189c44 51 105 76 182 76c67 0 128 -32 164 -81
z" />
    <glyph glyph-name="e" unicode="e" horiz-adv-x="616" 
d="M313 403c-57 0 -114 -28 -130 -91h257c-5 30 -20 53 -45 68s-53 23 -82 23zM479 172l86 -82c-61 -67 -141 -101 -239 -101c-92 0 -164 25 -216 75c-52 51 -78 114 -78 190s27 140 80 192s121 78 203 78c77 0 142 -26 196 -79c55 -52 82 -126 82 -223h-413
c3 -65 64 -111 157 -111c51 0 99 20 142 61z" />
    <glyph glyph-name="f" unicode="f" horiz-adv-x="401" 
d="M250 567v-58h115v-113h-115v-396h-149v396h-72v113h72v34c0 69 17 118 50 147s76 44 128 44c112 0 164 -68 164 -153c0 -12 -2 -21 -5 -28h-115c3 3 4 8 4 17c0 30 -13 45 -39 45c-25 0 -38 -16 -38 -48z" />
    <glyph glyph-name="g" unicode="g" horiz-adv-x="659" 
d="M183 258c0 -84 52 -148 132 -148c77 0 134 51 134 140c0 93 -55 153 -138 153c-79 0 -128 -62 -128 -145zM445 513h149v-477c0 -95 -26 -165 -79 -211c-53 -47 -119 -70 -199 -70c-103 0 -184 24 -243 71l59 116c17 -15 40 -28 69 -40c30 -12 58 -18 85 -18
c106 0 159 45 159 135v56c-40 -57 -94 -86 -161 -86c-76 0 -137 26 -182 77s-68 116 -68 193c0 75 22 138 65 189c44 51 105 76 182 76c67 0 128 -32 164 -81v70z" />
    <glyph glyph-name="h" unicode="h" horiz-adv-x="614" 
d="M214 0h-149v723h149v-280c39 54 92 81 159 81c122 0 183 -82 183 -245v-279h-149v276c0 83 -32 125 -95 125c-65 0 -98 -50 -98 -126v-275z" />
    <glyph glyph-name="i" unicode="i" horiz-adv-x="281" 
d="M215 513v-513h-149v513h149zM142 734c53 0 95 -36 95 -85c0 -48 -42 -83 -95 -83c-55 0 -94 34 -94 83s39 85 94 85z" />
    <glyph glyph-name="j" unicode="j" horiz-adv-x="320" 
d="M105 -78v591h149v-567c0 -69 -17 -118 -50 -147s-76 -44 -128 -44c-113 0 -171 69 -171 153c0 11 2 20 6 28h118c-1 -3 -1 -8 -1 -17c0 -30 13 -45 39 -45c25 0 38 16 38 48zM180 734c53 0 95 -36 95 -85c0 -48 -42 -83 -95 -83c-55 0 -94 34 -94 83s39 85 94 85z" />
    <glyph glyph-name="k" unicode="k" horiz-adv-x="597" 
d="M212 723v-418l146 208h165v-20l-170 -214l67 -107c20 -31 43 -46 70 -46c20 0 38 6 55 18l56 -105c-37 -33 -82 -50 -134 -50c-65 0 -116 26 -152 78l-103 166v-233h-149v723h149z" />
    <glyph glyph-name="l" unicode="l" horiz-adv-x="281" 
d="M215 723v-723h-149v723h149z" />
    <glyph glyph-name="m" unicode="m" horiz-adv-x="910" 
d="M617 401c-57 0 -85 -42 -85 -126v-275h-148v276c0 83 -29 125 -86 125s-85 -42 -85 -126v-275h-149v513h149v-70c35 54 80 81 137 81c76 0 128 -29 157 -86c30 57 84 86 162 86c122 0 183 -82 183 -245v-279h-149v276c0 83 -29 125 -86 125z" />
    <glyph glyph-name="n" unicode="n" horiz-adv-x="613" 
d="M213 0h-149v513h149v-70c39 54 92 81 159 81c122 0 183 -82 183 -245v-279h-149v276c0 83 -32 125 -95 125c-65 0 -98 -50 -98 -126v-275z" />
    <glyph glyph-name="o" unicode="o" horiz-adv-x="628" 
d="M314 524c77 0 144 -25 199 -76c55 -50 83 -114 83 -191c0 -78 -28 -142 -83 -193c-55 -50 -122 -75 -199 -75s-143 25 -199 75c-55 51 -83 115 -83 193s28 142 83 192c56 50 122 75 199 75zM177 257c0 -40 13 -73 40 -100s60 -40 97 -40s69 13 96 40s41 61 41 100
s-14 72 -41 99s-59 40 -96 40s-70 -13 -97 -40s-40 -60 -40 -99z" />
    <glyph glyph-name="p" unicode="p" horiz-adv-x="658" 
d="M475 255c0 84 -52 148 -132 148c-77 0 -134 -51 -134 -140c0 -93 55 -153 138 -153c79 0 128 62 128 145zM213 70v-304h-149v747h149v-75c40 57 94 86 161 86c76 0 137 -26 182 -77s68 -116 68 -193c0 -75 -22 -138 -66 -189c-43 -51 -104 -76 -181 -76
c-67 0 -128 32 -164 81z" />
    <glyph glyph-name="q" unicode="q" horiz-adv-x="658" 
d="M183 255c0 -83 49 -145 128 -145c83 0 138 60 138 153c0 89 -57 140 -134 140c-80 0 -132 -64 -132 -148zM594 513v-747h-149v304c-36 -49 -97 -81 -164 -81c-77 0 -138 25 -182 76c-43 51 -65 114 -65 189c0 77 23 142 68 193s106 77 182 77c67 0 121 -29 161 -86v75
h149z" />
    <glyph glyph-name="r" unicode="r" horiz-adv-x="401" 
d="M64 513h145v-112c5 29 17 53 34 72c36 40 72 51 107 51c11 0 24 -1 38 -4v-147c-19 5 -40 7 -63 7c-61 0 -112 -37 -112 -101v-279h-149v513z" />
    <glyph glyph-name="s" unicode="s" horiz-adv-x="481" 
d="M24 120l108 61c13 -53 60 -77 108 -77c36 0 67 15 67 39c0 17 -13 30 -38 39l-90 38c-56 20 -95 51 -110 82s-18 48 -18 65c0 49 19 88 57 115c38 28 86 42 144 42c86 0 148 -36 185 -108l-115 -53c-11 33 -35 49 -73 49c-29 0 -57 -17 -57 -42c0 -17 16 -32 48 -44
l77 -30c56 -16 96 -44 112 -75s20 -50 20 -73c0 -50 -20 -89 -60 -117s-90 -42 -150 -42c-47 0 -91 10 -131 29c-40 20 -68 54 -84 102z" />
    <glyph glyph-name="t" unicode="t" horiz-adv-x="458" 
d="M133 639h115v-126h142v-117h-142v-240c0 -30 13 -45 38 -45c26 0 39 16 39 48c0 17 -2 31 -7 44h118c8 -17 12 -37 12 -61c0 -84 -58 -153 -171 -153c-119 0 -178 60 -178 181v226h-77v117h88z" />
    <glyph glyph-name="u" unicode="u" horiz-adv-x="614" 
d="M400 513h149v-513h-149v70c-39 -54 -92 -81 -159 -81c-122 0 -183 82 -183 245v279h149v-276c0 -83 32 -125 95 -125c65 0 98 50 98 126v275z" />
    <glyph glyph-name="v" unicode="v" horiz-adv-x="599" 
d="M425 513h163l-214 -513h-148l-215 513h163l125 -346z" />
    <glyph glyph-name="w" unicode="w" horiz-adv-x="830" 
d="M181 513l89 -309l93 295h104l93 -295l89 309h164l-40 -117l-143 -396h-127l-88 291l-88 -291h-127l-143 396l-40 117h164z" />
    <glyph glyph-name="x" unicode="x" horiz-adv-x="598" 
d="M592 0h-170l-123 161l-123 -161h-170v20l204 245l-185 231v17h174l100 -141l100 141h174v-17l-185 -231l204 -245v-20z" />
    <glyph glyph-name="y" unicode="y" 
d="M179 513l122 -321l122 321h164l-332 -747h-150l117 277l-211 470h168z" />
    <glyph glyph-name="z" unicode="z" horiz-adv-x="585" 
d="M249 119h304v-119h-521v87l288 309h-274v117h490v-88z" />
    <glyph glyph-name="braceleft" unicode="{" horiz-adv-x="381" 
d="M189 263v-16c48 -13 72 -42 72 -86c0 -23 -10 -62 -30 -116s-30 -94 -30 -120c0 -47 22 -70 66 -70c14 0 43 3 87 8v-95c-49 -5 -85 -8 -108 -8c-51 0 -95 13 -130 39c-35 25 -52 63 -52 114c0 35 13 91 38 170c1 1 4 10 10 27c12 33 20 58 20 74c0 5 -5 9 -14 11l-83 19
v82l83 19c9 2 14 6 14 11c0 8 -2 18 -6 31c-3 13 -8 27 -14 42l-10 28c-25 79 -38 135 -38 170c0 51 17 89 52 114c35 26 79 39 130 39c23 0 59 -3 108 -8v-95c-44 5 -73 8 -87 8c-44 0 -66 -23 -66 -70c0 -26 10 -66 30 -120s30 -93 30 -116c0 -44 -24 -73 -72 -86z" />
    <glyph glyph-name="bar" unicode="|" horiz-adv-x="218" 
d="M152 760v-994h-86v994h86z" />
    <glyph glyph-name="braceright" unicode="}" horiz-adv-x="381" 
d="M192 247v16c-48 13 -72 42 -72 86c0 23 10 62 30 116s30 94 30 120c0 47 -22 70 -66 70c-14 0 -43 -3 -87 -8v95c49 5 85 8 108 8c51 0 94 -13 129 -39c35 -25 53 -63 53 -114c0 -35 -13 -91 -38 -170l-10 -28c-12 -31 -20 -57 -20 -73c0 -5 5 -9 14 -11l83 -19v-82
l-83 -19c-9 -2 -14 -6 -14 -11c0 -8 2 -18 5 -31l15 -43c6 -17 9 -26 10 -27c25 -79 38 -135 38 -170c0 -51 -18 -89 -53 -114c-35 -26 -78 -39 -129 -39c-23 0 -59 3 -108 8v95c44 -5 73 -8 87 -8c44 0 66 23 66 70c0 26 -10 66 -30 120s-30 93 -30 116c0 44 24 73 72 86z
" />
    <glyph glyph-name="asciitilde" unicode="~" horiz-adv-x="570" 
d="M465 385l57 -80c-21 -56 -78 -94 -138 -94c-29 0 -62 11 -101 32c-39 22 -70 33 -93 33c-36 0 -69 -21 -86 -54l-55 83c17 51 72 91 135 91c33 0 69 -11 108 -33c40 -22 69 -33 86 -33c35 0 64 18 87 55z" />
    <glyph glyph-name="uni00A0" unicode="&#xa0;" horiz-adv-x="244" 
 />
    <glyph glyph-name="exclamdown" unicode="&#xa1;" horiz-adv-x="283" 
d="M232 -158v-29h-181v29l36 437h109zM47 438c0 49 41 86 94 86s95 -37 95 -86s-42 -88 -95 -88s-94 37 -94 88z" />
    <glyph glyph-name="cent" unicode="&#xa2;" horiz-adv-x="571" 
d="M38 257c0 76 25 139 76 189c51 51 119 77 204 78l16 88h77l-18 -96c47 -11 95 -33 142 -68l-68 -109c-28 25 -60 40 -97 47l-48 -262h10c52 0 97 17 135 51l68 -109c-69 -51 -139 -76 -210 -76c-7 0 -22 1 -27 1l-17 -93h-76l19 106c-116 35 -186 132 -186 253zM187 257
c0 -51 21 -88 62 -113l44 242c-65 -13 -106 -64 -106 -129z" />
    <glyph glyph-name="sterling" unicode="&#xa3;" horiz-adv-x="637" 
d="M472 350v-72h-149c17 -56 1 -115 -44 -155v-8c35 5 82 8 139 8h180v-123h-562v123c68 4 112 23 132 40c10 9 16 21 19 36c5 29 1 46 -8 79h-123v72h94c-27 68 -40 121 -40 158c0 60 23 109 69 146c46 38 104 57 173 57c164 0 228 -116 228 -209h-140c0 47 -31 79 -90 79
c-57 0 -95 -31 -95 -80c0 -32 14 -82 41 -151h176z" />
    <glyph glyph-name="currency" unicode="&#xa4;" horiz-adv-x="544" 
d="M352 327c0 47 -36 84 -80 84s-80 -37 -80 -84c0 -45 37 -83 80 -83s80 38 80 83zM180 160l-65 -64l-74 76l63 62c-15 27 -23 58 -23 94c0 31 7 60 22 88l-59 61l76 77l57 -60c27 16 58 24 95 24s68 -8 95 -24l57 60l76 -77l-59 -61c15 -28 22 -57 22 -88
c0 -36 -8 -67 -23 -94l63 -62l-74 -76l-65 64c-53 -29 -131 -29 -184 0z" />
    <glyph glyph-name="yen" unicode="&#xa5;" horiz-adv-x="751" 
d="M623 200v-77h-170v-123h-155v123h-171v77h171v74h-171v77h126l-224 329v20h180l166 -273h1l166 273h180v-20l-225 -329h126v-77h-170v-74h170z" />
    <glyph glyph-name="brokenbar" unicode="&#xa6;" horiz-adv-x="230" 
d="M158 760v-410h-86v410h86zM158 176v-410h-86v410h86z" />
    <glyph glyph-name="section" unicode="&#xa7;" horiz-adv-x="602" 
d="M36 -49l54 103c73 -56 144 -84 215 -84c68 0 107 28 107 60c0 25 -28 44 -84 58l-91 23c-124 35 -177 106 -177 174c0 50 25 91 75 124c-49 33 -74 75 -74 126c0 52 23 94 70 127s103 49 168 49c77 0 155 -21 232 -62l-56 -108c-67 34 -124 51 -171 51
c-56 0 -97 -21 -97 -52c0 -24 23 -42 70 -55l88 -22c124 -32 189 -85 189 -173c0 -61 -23 -105 -68 -132c47 -32 71 -73 71 -123c0 -52 -23 -96 -69 -131c-45 -36 -107 -54 -185 -54c-112 0 -207 41 -267 101zM419 271c0 25 -15 55 -59 64l-107 24c-37 -15 -55 -37 -55 -68
c0 -29 20 -48 61 -58l111 -27c29 12 49 38 49 65z" />
    <glyph glyph-name="dieresis" unicode="&#xa8;" horiz-adv-x="700" 
d="M139 664c0 47 38 81 87 81c48 0 87 -36 87 -81s-39 -79 -87 -79c-49 0 -87 34 -87 79zM387 664c0 47 37 81 86 81s88 -36 88 -81s-39 -79 -88 -79s-86 34 -86 79z" />
    <glyph glyph-name="copyright" unicode="&#xa9;" horiz-adv-x="786" 
d="M401 539c47 0 93 -17 138 -50l-41 -72c-28 22 -60 33 -96 33c-61 0 -102 -43 -102 -100s41 -100 102 -100c35 0 67 11 96 33l41 -72c-45 -33 -91 -50 -138 -50c-60 0 -108 18 -145 55c-36 37 -54 81 -54 134s18 97 54 134c37 37 85 55 145 55zM142 94
c-68 71 -102 156 -102 256s34 185 102 255c69 71 152 106 251 106s182 -35 250 -106c69 -70 103 -155 103 -255s-34 -185 -103 -256c-68 -70 -151 -105 -250 -105s-182 35 -251 105zM193 554c-54 -56 -81 -124 -81 -204s27 -148 81 -205c55 -56 121 -84 200 -84
s145 28 199 84c55 57 82 125 82 205s-27 148 -82 204c-54 57 -120 85 -199 85s-145 -28 -200 -85z" />
    <glyph glyph-name="ordfeminine" unicode="&#xaa;" horiz-adv-x="501" 
d="M429 700v-340h-115v56c-19 -43 -68 -62 -109 -62c-95 0 -148 75 -148 176s53 176 148 176c41 0 90 -19 109 -62v56h115zM316 529c0 47 -29 75 -72 75c-39 0 -67 -33 -67 -73c0 -41 28 -75 67 -75c40 0 69 28 72 73zM421 192h-345v80h345v-80z" />
    <glyph glyph-name="guillemotleft" unicode="&#xab;" horiz-adv-x="633" 
d="M311 287v28l199 229l84 -76l-144 -167l143 -165l-83 -77zM34 287v28l199 229l84 -76l-144 -167l143 -165l-83 -77z" />
    <glyph glyph-name="logicalnot" unicode="&#xac;" horiz-adv-x="623" 
d="M435 357h-388v120h511l-1 -291h-122v171z" />
    <glyph glyph-name="uni00AD" unicode="&#xad;" horiz-adv-x="521" 
d="M461 254h-401v120h401v-120z" />
    <glyph glyph-name="registered" unicode="&#xae;" horiz-adv-x="786" 
d="M411 362c43 0 43 91 0 91h-57v-91h57zM542 407c0 -52 -26 -93 -70 -110l76 -115v-18h-97l-71 123h-26v-123h-97v367h164c76 0 121 -55 121 -124zM142 94c-68 71 -102 156 -102 256s34 185 102 255c69 71 152 106 251 106s182 -35 250 -106c69 -70 103 -155 103 -255
s-34 -185 -103 -256c-68 -70 -151 -105 -250 -105s-182 35 -251 105zM193 554c-54 -56 -81 -124 -81 -204s27 -148 81 -205c55 -56 121 -84 200 -84s145 28 199 84c55 57 82 125 82 205s-27 148 -82 204c-54 57 -120 85 -199 85s-145 -28 -200 -85z" />
    <glyph glyph-name="overscore" unicode="&#xaf;" horiz-adv-x="575" 
d="M130 604v103h315v-103h-315z" />
    <glyph glyph-name="degree" unicode="&#xb0;" horiz-adv-x="416" 
d="M36 552c0 48 16 88 49 121s74 50 123 50s90 -17 123 -50s49 -73 49 -121c0 -47 -16 -87 -49 -120s-74 -49 -123 -49s-90 16 -123 49s-49 73 -49 120zM126 552c0 -48 33 -83 82 -83s82 35 82 83c0 49 -33 85 -82 85s-82 -36 -82 -85z" />
    <glyph glyph-name="plusminus" unicode="&#xb1;" horiz-adv-x="620" 
d="M376 358v-134h-131v134h-183v112h183v133h131v-133h182v-112h-182zM558 173v-112h-496v112h496z" />
    <glyph glyph-name="twosuperior" unicode="&#xb2;" horiz-adv-x="326" 
d="M217 595l-49 -46c9 1 21 2 38 2h91v-74h-261l-9 53l131 124c27 23 41 45 41 65c0 24 -17 39 -42 39c-32 0 -47 -28 -47 -53l-84 1c0 31 10 60 31 87s55 40 100 40c80 0 133 -45 133 -114c0 -41 -24 -83 -73 -124z" />
    <glyph glyph-name="threesuperior" unicode="&#xb3;" horiz-adv-x="329" 
d="M150 543c32 0 59 27 59 52c0 28 -24 49 -53 49c-12 0 -25 -2 -39 -7l-32 44l85 71h-137v73h256v-51l-86 -78c57 -7 100 -49 100 -100c0 -35 -14 -64 -42 -89s-65 -37 -111 -37c-56 0 -100 14 -131 42l44 56c25 -17 54 -25 87 -25z" />
    <glyph glyph-name="acute" unicode="&#xb4;" horiz-adv-x="562" 
d="M129 577l99 173h157l-148 -173h-108z" />
    <glyph glyph-name="mu" unicode="&#xb5;" horiz-adv-x="611" 
d="M199 -164h-139v677h149v-276c0 -83 32 -125 95 -125c65 0 98 50 98 126v275h149v-513h-149v70c-39 -54 -92 -81 -159 -81c-12 0 -27 1 -44 4v-157z" />
    <glyph glyph-name="paragraph" unicode="&#xb6;" horiz-adv-x="671" 
d="M197 700h163v-19c-25 -18 -37 -45 -37 -81v-742h-88v508h-38c-47 0 -86 16 -118 48s-48 71 -48 118s16 87 48 119c32 33 71 49 118 49zM473 585v-727h-87v731c0 79 55 122 128 122c81 0 128 -46 128 -111c0 -18 -3 -35 -10 -51h-84c18 45 6 79 -33 79
c-24 0 -42 -15 -42 -43z" />
    <glyph glyph-name="middot" unicode="&#xb7;" horiz-adv-x="291" 
d="M51 280c0 51 41 88 94 88s95 -39 95 -88s-42 -86 -95 -86s-94 37 -94 86z" />
    <glyph glyph-name="cedilla" unicode="&#xb8;" horiz-adv-x="455" 
d="M189 10v20h77c73 -31 108 -90 108 -139c0 -41 -14 -71 -43 -90c-28 -19 -59 -28 -92 -28c-73 0 -129 45 -158 112l76 35c17 -35 38 -53 63 -53c32 0 48 16 48 49c0 9 -1 18 -4 28c-5 19 -32 53 -75 66z" />
    <glyph glyph-name="onesuperior" unicode="&#xb9;" horiz-adv-x="242" 
d="M109 727l-79 -32l-24 68l144 62h53v-348h-94v250z" />
    <glyph glyph-name="ordmasculine" unicode="&#xba;" horiz-adv-x="489" 
d="M418 192h-345v80h345v-80zM55 529c0 49 19 90 57 125s82 52 132 52s94 -18 132 -53s57 -76 57 -124c0 -49 -19 -91 -57 -126s-82 -53 -132 -53s-94 17 -132 52s-57 78 -57 127zM175 529c0 -43 29 -74 69 -74c60 -5 93 85 49 126c-13 14 -29 21 -49 21
c-40 0 -69 -32 -69 -73z" />
    <glyph glyph-name="guillemotright" unicode="&#xbb;" horiz-adv-x="633" 
d="M39 468l84 76l199 -229v-28l-199 -228l-83 77l143 165zM316 468l84 76l199 -229v-28l-199 -228l-83 77l143 165z" />
    <glyph glyph-name="onequarter" unicode="&#xbc;" horiz-adv-x="852" 
d="M132 602l-79 -32l-24 68l144 62h53v-348h-94v250zM630 735h85l-547 -774h-84zM660 250l-77 -92h77v92zM655 0v87h-168v49l172 212h90v-190h69v-71h-69v-87h-94z" />
    <glyph glyph-name="onehalf" unicode="&#xbd;" horiz-adv-x="852" 
d="M132 602l-79 -32l-24 68l144 62h53v-348h-94v250zM630 735h85l-547 -774h-84zM732 118l-49 -46c9 1 21 2 38 2h91v-74h-261l-9 53l131 124c27 23 41 45 41 65c0 24 -17 39 -42 39c-32 0 -47 -28 -47 -53l-84 1c0 31 10 60 31 87s55 40 100 40c80 0 133 -45 133 -114
c0 -41 -24 -83 -73 -124z" />
    <glyph glyph-name="threequarters" unicode="&#xbe;" horiz-adv-x="913" 
d="M697 735h85l-547 -774h-84zM166 418c32 0 59 27 59 52c0 28 -24 49 -53 49c-12 0 -25 -2 -39 -7l-32 44l85 71h-137v73h256v-51l-86 -78c57 -7 100 -49 100 -100c0 -35 -14 -64 -42 -89s-65 -37 -111 -37c-56 0 -100 14 -131 42l44 56c25 -17 54 -25 87 -25zM723 250
l-77 -92h77v92zM718 0v87h-168v49l172 212h90v-190h69v-71h-69v-87h-94z" />
    <glyph glyph-name="questiondown" unicode="&#xbf;" horiz-adv-x="530" 
d="M220 271v9h139c0 -37 -4 -64 -12 -83c-7 -18 -28 -38 -61 -59c-76 -48 -108 -78 -108 -129c0 -49 39 -80 91 -80c49 0 89 28 89 73c0 13 -4 29 -13 50h142c9 -18 14 -40 14 -65c0 -46 -20 -88 -61 -127s-98 -58 -171 -58c-71 0 -128 19 -173 56s-67 87 -67 148
c0 88 53 153 176 229c10 7 15 19 15 36zM386 438c0 -51 -41 -88 -94 -88s-95 39 -95 88s42 86 95 86s94 -37 94 -86z" />
    <glyph glyph-name="Agrave" unicode="&#xc0;" horiz-adv-x="705" 
d="M6 0l270 700h151l274 -700h-162l-50 131v-2h-275v2l-48 -131h-160zM256 256h189l-93 280zM320 750l-136 154h157l87 -154h-108z" />
    <glyph glyph-name="Aacute" unicode="&#xc1;" horiz-adv-x="705" 
d="M6 0l270 700h151l274 -700h-162l-50 131v-2h-275v2l-48 -131h-160zM256 256h189l-93 280zM277 750l87 154h157l-136 -154h-108z" />
    <glyph glyph-name="Acircumflex" unicode="&#xc2;" horiz-adv-x="705" 
d="M6 0l270 700h151l274 -700h-162l-50 131v-2h-275v2l-48 -131h-160zM256 256h189l-93 280zM179 750l100 154h147l101 -154h-102l-72 79l-72 -79h-102z" />
    <glyph glyph-name="Atilde" unicode="&#xc3;" horiz-adv-x="705" 
d="M6 0l270 700h151l274 -700h-162l-50 131v-2h-275v2l-48 -131h-160zM256 256h189l-93 280zM469 906l75 -22c-23 -81 -54 -122 -115 -122c-21 0 -47 6 -78 17s-52 17 -61 17c-27 0 -38 -12 -53 -43l-75 22c23 81 54 122 115 122c21 0 47 -6 78 -17s52 -17 61 -17
c27 0 38 12 53 43z" />
    <glyph glyph-name="Adieresis" unicode="&#xc4;" horiz-adv-x="705" 
d="M6 0l270 700h151l274 -700h-162l-50 131v-2h-275v2l-48 -131h-160zM256 256h189l-93 280zM144 826c0 45 34 75 85 75c49 0 85 -30 85 -75c0 -44 -36 -73 -85 -73c-51 0 -85 29 -85 73zM392 826c0 45 35 75 84 75s86 -30 86 -75c0 -44 -37 -73 -86 -73s-84 29 -84 73z" />
    <glyph glyph-name="Aring" unicode="&#xc5;" horiz-adv-x="705" 
d="M428 697l273 -697h-162l-50 131v-2h-275v2l-48 -131h-160l269 698c-31 20 -46 49 -46 87c0 68 54 112 123 112c71 0 124 -44 124 -112c0 -39 -16 -68 -48 -88zM445 256l-93 280l-96 -280h189zM298 785c0 -29 18 -44 54 -44s54 15 54 44c7 62 -115 62 -108 0z" />
    <glyph glyph-name="AE" unicode="&#xc6;" horiz-adv-x="911" 
d="M156 0h-163l372 700h499v-123h-280v-183h239v-123h-239v-148h280v-123h-435v262h-135c-11 -21 -34 -66 -71 -135s-59 -111 -67 -127zM429 547l-79 -163h79v163z" />
    <glyph glyph-name="Ccedilla" unicode="&#xc7;" horiz-adv-x="694" 
d="M458 -10c31 -30 46 -63 46 -99c0 -41 -14 -71 -43 -90c-28 -19 -59 -28 -92 -28c-73 0 -129 45 -158 112l76 35c17 -35 38 -53 63 -53c32 0 48 16 48 49c0 32 -15 58 -45 78c-96 14 -172 54 -229 121s-85 145 -85 235c0 101 35 186 105 256c71 70 164 105 279 105
c103 0 172 -29 251 -88l-64 -118c-59 45 -121 68 -186 68c-69 0 -125 -21 -166 -64c-41 -42 -62 -95 -62 -159s21 -117 62 -160c41 -42 97 -63 166 -63c65 0 127 23 186 68l64 -118c-70 -52 -142 -81 -216 -87z" />
    <glyph glyph-name="Egrave" unicode="&#xc8;" 
d="M548 123v-123h-465v700h465v-123h-310v-172h269v-123h-269v-159h310zM276 750l-136 154h157l87 -154h-108z" />
    <glyph glyph-name="Eacute" unicode="&#xc9;" 
d="M548 123v-123h-465v700h465v-123h-310v-172h269v-123h-269v-159h310zM210 750l87 154h157l-136 -154h-108z" />
    <glyph glyph-name="Ecircumflex" unicode="&#xca;" 
d="M548 123v-123h-465v700h465v-123h-310v-172h269v-123h-269v-159h310zM139 750l100 154h147l101 -154h-102l-72 79l-72 -79h-102z" />
    <glyph glyph-name="Edieresis" unicode="&#xcb;" 
d="M548 123v-123h-465v700h465v-123h-310v-172h269v-123h-269v-159h310zM100 826c0 45 34 75 85 75c49 0 85 -30 85 -75c0 -44 -36 -73 -85 -73c-51 0 -85 29 -85 73zM348 826c0 45 35 75 84 75s86 -30 86 -75c0 -44 -37 -73 -86 -73s-84 29 -84 73z" />
    <glyph glyph-name="Igrave" unicode="&#xcc;" horiz-adv-x="321" 
d="M238 0h-155v700h155v-700zM135 750l-136 154h157l87 -154h-108z" />
    <glyph glyph-name="Iacute" unicode="&#xcd;" horiz-adv-x="321" 
d="M238 0h-155v700h155v-700zM79 750l87 154h157l-136 -154h-108z" />
    <glyph glyph-name="Icircumflex" unicode="&#xce;" horiz-adv-x="321" 
d="M238 0h-155v700h155v-700zM-13 750l100 154h147l101 -154h-102l-72 79l-72 -79h-102z" />
    <glyph glyph-name="Idieresis" unicode="&#xcf;" horiz-adv-x="321" 
d="M238 0h-155v700h155v-700zM-48 826c0 45 34 75 85 75c49 0 85 -30 85 -75c0 -44 -36 -73 -85 -73c-51 0 -85 29 -85 73zM200 826c0 45 35 75 84 75s86 -30 86 -75c0 -44 -37 -73 -86 -73s-84 29 -84 73z" />
    <glyph glyph-name="Eth" unicode="&#xd0;" horiz-adv-x="767" 
d="M93 293h-82v108h82v299h262c112 0 202 -34 270 -101s102 -150 102 -249s-34 -183 -102 -250s-158 -100 -270 -100h-262v293zM355 577h-107v-176h149v-108h-149v-170h107c65 0 117 22 156 65c40 44 60 98 60 162s-20 118 -60 161c-39 44 -91 66 -156 66z" />
    <glyph glyph-name="Ntilde" unicode="&#xd1;" horiz-adv-x="747" 
d="M237 426v-425h-155v699h119l308 -422v422h155v-700h-118zM484 906l75 -22c-23 -81 -54 -122 -115 -122c-21 0 -48 6 -79 17s-51 17 -60 17c-27 0 -38 -12 -53 -43l-75 22c23 81 54 122 115 122c21 0 48 -6 79 -17s51 -17 60 -17c27 0 38 12 53 43z" />
    <glyph glyph-name="Ograve" unicode="&#xd2;" horiz-adv-x="805" 
d="M403 711c100 0 185 -35 256 -106s107 -156 107 -255s-36 -184 -107 -255s-156 -106 -256 -106c-101 0 -187 35 -258 106s-106 156 -106 255s35 184 106 255s157 106 258 106zM253 507c-41 -41 -61 -94 -61 -157s20 -116 61 -157s91 -62 150 -62s108 21 149 62
s61 94 61 157s-20 116 -61 157s-90 62 -149 62s-109 -21 -150 -62zM361 750l-136 154h157l87 -154h-108z" />
    <glyph glyph-name="Oacute" unicode="&#xd3;" horiz-adv-x="805" 
d="M403 711c100 0 185 -35 256 -106s107 -156 107 -255s-36 -184 -107 -255s-156 -106 -256 -106c-101 0 -187 35 -258 106s-106 156 -106 255s35 184 106 255s157 106 258 106zM253 507c-41 -41 -61 -94 -61 -157s20 -116 61 -157s91 -62 150 -62s108 21 149 62
s61 94 61 157s-20 116 -61 157s-90 62 -149 62s-109 -21 -150 -62zM316 750l87 154h157l-136 -154h-108z" />
    <glyph glyph-name="Ocircumflex" unicode="&#xd4;" horiz-adv-x="805" 
d="M403 711c100 0 185 -35 256 -106s107 -156 107 -255s-36 -184 -107 -255s-156 -106 -256 -106c-101 0 -187 35 -258 106s-106 156 -106 255s35 184 106 255s157 106 258 106zM253 507c-41 -41 -61 -94 -61 -157s20 -116 61 -157s91 -62 150 -62s108 21 149 62
s61 94 61 157s-20 116 -61 157s-90 62 -149 62s-109 -21 -150 -62zM228 750l100 154h147l101 -154h-102l-72 79l-72 -79h-102z" />
    <glyph glyph-name="Otilde" unicode="&#xd5;" horiz-adv-x="805" 
d="M403 711c100 0 185 -35 256 -106s107 -156 107 -255s-36 -184 -107 -255s-156 -106 -256 -106c-101 0 -187 35 -258 106s-106 156 -106 255s35 184 106 255s157 106 258 106zM253 507c-41 -41 -61 -94 -61 -157s20 -116 61 -157s91 -62 150 -62s108 21 149 62
s61 94 61 157s-20 116 -61 157s-90 62 -149 62s-109 -21 -150 -62zM518 906l75 -22c-23 -81 -54 -122 -115 -122c-21 0 -48 6 -79 17s-51 17 -60 17c-27 0 -38 -12 -53 -43l-75 22c23 81 54 122 115 122c21 0 48 -6 79 -17s51 -17 60 -17c27 0 38 12 53 43z" />
    <glyph glyph-name="Odieresis" unicode="&#xd6;" horiz-adv-x="805" 
d="M403 711c100 0 185 -35 256 -106s107 -156 107 -255s-36 -184 -107 -255s-156 -106 -256 -106c-101 0 -187 35 -258 106s-106 156 -106 255s35 184 106 255s157 106 258 106zM253 507c-41 -41 -61 -94 -61 -157s20 -116 61 -157s91 -62 150 -62s108 21 149 62
s61 94 61 157s-20 116 -61 157s-90 62 -149 62s-109 -21 -150 -62zM193 826c0 45 34 75 85 75c49 0 85 -30 85 -75c0 -44 -36 -73 -85 -73c-51 0 -85 29 -85 73zM441 826c0 45 35 75 84 75s86 -30 86 -75c0 -44 -37 -73 -86 -73s-84 29 -84 73z" />
    <glyph glyph-name="multiply" unicode="&#xd7;" horiz-adv-x="544" 
d="M358 314l144 -143l-90 -90l-144 143l-144 -145l-83 83l145 144l-143 144l90 90l143 -144l144 145l83 -83z" />
    <glyph glyph-name="Oslash" unicode="&#xd8;" horiz-adv-x="805" 
d="M244 25l-53 -78l-77 53l51 76c-79 68 -126 167 -126 274c0 99 35 184 106 255s157 106 258 106c57 0 112 -13 164 -39l48 71l77 -53l-48 -71c76 -67 122 -164 122 -269c0 -99 -36 -184 -107 -255s-156 -106 -256 -106c-56 0 -109 12 -159 36zM192 350
c0 -60 19 -110 56 -151l238 353c-26 11 -54 17 -83 17c-59 0 -109 -21 -150 -62s-61 -94 -61 -157zM613 350c0 56 -17 105 -52 146l-236 -351c25 -9 51 -14 78 -14c59 0 108 21 149 62s61 94 61 157z" />
    <glyph glyph-name="Ugrave" unicode="&#xd9;" horiz-adv-x="729" 
d="M499 265v435h155v-435c0 -87 -28 -154 -83 -203s-124 -73 -207 -73s-152 24 -207 73s-82 116 -82 203v435h155v-435c0 -93 58 -146 134 -146s135 54 135 146zM354 750l-136 154h157l87 -154h-108z" />
    <glyph glyph-name="Uacute" unicode="&#xda;" horiz-adv-x="729" 
d="M499 265v435h155v-435c0 -87 -28 -154 -83 -203s-124 -73 -207 -73s-152 24 -207 73s-82 116 -82 203v435h155v-435c0 -93 58 -146 134 -146s135 54 135 146zM258 750l87 154h157l-136 -154h-108z" />
    <glyph glyph-name="Ucircumflex" unicode="&#xdb;" horiz-adv-x="729" 
d="M499 265v435h155v-435c0 -87 -28 -154 -83 -203s-124 -73 -207 -73s-152 24 -207 73s-82 116 -82 203v435h155v-435c0 -93 58 -146 134 -146s135 54 135 146zM190 750l100 154h147l101 -154h-102l-72 79l-72 -79h-102z" />
    <glyph glyph-name="Udieresis" unicode="&#xdc;" horiz-adv-x="729" 
d="M499 265v435h155v-435c0 -87 -28 -154 -83 -203s-124 -73 -207 -73s-152 24 -207 73s-82 116 -82 203v435h155v-435c0 -93 58 -146 134 -146s135 54 135 146zM155 826c0 45 34 75 85 75c49 0 85 -30 85 -75c0 -44 -36 -73 -85 -73c-51 0 -85 29 -85 73zM403 826
c0 45 35 75 84 75s86 -30 86 -75c0 -44 -37 -73 -86 -73s-84 29 -84 73z" />
    <glyph glyph-name="Yacute" unicode="&#xdd;" horiz-adv-x="729" 
d="M198 700l166 -273h1l166 273h180v-20l-269 -393v-287h-155v285l-269 395v20h180zM269 750l87 154h157l-136 -154h-108z" />
    <glyph glyph-name="Thorn" unicode="&#xde;" horiz-adv-x="640" 
d="M425 151h-187v-151h-155v700h155v-150h191c53 0 97 -20 132 -60c35 -39 53 -86 53 -140s-18 -101 -53 -140s-80 -59 -136 -59zM238 427v-153h148c47 0 71 35 71 76c0 51 -24 77 -71 77h-148z" />
    <glyph glyph-name="germandbls" unicode="&#xdf;" horiz-adv-x="623" 
d="M343 0h-60l-21 123h81c65 0 99 40 99 92c0 29 -15 56 -44 80c-29 25 -68 37 -119 36l-15 89c79 15 120 55 120 107c0 47 -36 78 -83 78c-51 0 -87 -39 -87 -98v-507h-149v507c0 145 91 228 236 228c71 0 128 -19 170 -56c43 -37 64 -85 64 -144s-29 -113 -86 -138
c85 -23 142 -96 142 -185c0 -63 -23 -114 -68 -153s-105 -59 -180 -59z" />
    <glyph glyph-name="agrave" unicode="&#xe0;" horiz-adv-x="658" 
d="M183 258c0 -84 52 -148 132 -148c77 0 134 51 134 140c0 93 -55 153 -138 153c-79 0 -128 -62 -128 -145zM445 443v70h149v-513h-149v75c-40 -57 -94 -86 -161 -86c-76 0 -137 26 -182 77s-68 116 -68 193c0 75 22 138 65 189c44 51 105 76 182 76c67 0 128 -32 164 -81z
M308 577l-148 173h157l99 -173h-108z" />
    <glyph glyph-name="aacute" unicode="&#xe1;" horiz-adv-x="658" 
d="M183 258c0 -84 52 -148 132 -148c77 0 134 51 134 140c0 93 -55 153 -138 153c-79 0 -128 -62 -128 -145zM445 443v70h149v-513h-149v75c-40 -57 -94 -86 -161 -86c-76 0 -137 26 -182 77s-68 116 -68 193c0 75 22 138 65 189c44 51 105 76 182 76c67 0 128 -32 164 -81z
M245 577l99 173h157l-148 -173h-108z" />
    <glyph glyph-name="acircumflex" unicode="&#xe2;" horiz-adv-x="658" 
d="M183 258c0 -84 52 -148 132 -148c77 0 134 51 134 140c0 93 -55 153 -138 153c-79 0 -128 -62 -128 -145zM445 443v70h149v-513h-149v75c-40 -57 -94 -86 -161 -86c-76 0 -137 26 -182 77s-68 116 -68 193c0 75 22 138 65 189c44 51 105 76 182 76c67 0 128 -32 164 -81z
M148 577l105 173h147l106 -173h-105l-74 92l-74 -92h-105z" />
    <glyph glyph-name="atilde" unicode="&#xe3;" horiz-adv-x="658" 
d="M183 258c0 -84 52 -148 132 -148c77 0 134 51 134 140c0 93 -55 153 -138 153c-79 0 -128 -62 -128 -145zM445 443v70h149v-513h-149v75c-40 -57 -94 -86 -161 -86c-76 0 -137 26 -182 77s-68 116 -68 193c0 75 22 138 65 189c44 51 105 76 182 76c67 0 128 -32 164 -81z
M443 738l75 -22c-23 -81 -54 -122 -115 -122c-21 0 -47 6 -78 17s-52 17 -61 17c-27 0 -38 -12 -53 -43l-75 22c23 81 54 122 115 122c21 0 47 -6 78 -17s52 -17 61 -17c27 0 38 12 53 43z" />
    <glyph glyph-name="adieresis" unicode="&#xe4;" horiz-adv-x="658" 
d="M183 258c0 -84 52 -148 132 -148c77 0 134 51 134 140c0 93 -55 153 -138 153c-79 0 -128 -62 -128 -145zM445 443v70h149v-513h-149v75c-40 -57 -94 -86 -161 -86c-76 0 -137 26 -182 77s-68 116 -68 193c0 75 22 138 65 189c44 51 105 76 182 76c67 0 128 -32 164 -81z
M117 664c0 47 38 81 87 81c48 0 87 -36 87 -81s-39 -79 -87 -79c-49 0 -87 34 -87 79zM365 664c0 47 37 81 86 81s88 -36 88 -81s-39 -79 -88 -79s-86 34 -86 79z" />
    <glyph glyph-name="aring" unicode="&#xe5;" horiz-adv-x="658" 
d="M183 258c0 -84 52 -148 132 -148c77 0 134 51 134 140c0 93 -55 153 -138 153c-79 0 -128 -62 -128 -145zM445 443v70h149v-513h-149v75c-40 -57 -94 -86 -161 -86c-76 0 -137 26 -182 77s-68 116 -68 193c0 75 22 138 65 189c44 51 105 76 182 76c67 0 128 -32 164 -81z
M204 682c0 68 54 116 123 116c71 0 124 -48 124 -116c0 -67 -53 -115 -124 -115c-69 0 -123 48 -123 115zM288 719c-20 -19 -20 -55 0 -75c21 -19 57 -19 77 0c21 20 21 56 1 75s-58 19 -78 0z" />
    <glyph glyph-name="ae" unicode="&#xe6;" horiz-adv-x="933" 
d="M247 321c41 0 86 -7 136 -21v13c0 27 -11 48 -34 63s-45 23 -68 23c-66 0 -121 -16 -164 -49l-55 94c53 53 129 80 228 80c81 0 141 -25 181 -75c40 50 99 75 176 75c75 0 137 -26 186 -77s74 -126 74 -223h-385c3 -69 51 -113 152 -113c60 0 91 20 124 61l86 -82
c-69 -76 -134 -101 -221 -101c-95 0 -169 29 -223 86c-55 -57 -123 -86 -206 -86c-57 0 -106 15 -146 44c-39 30 -59 72 -59 126c0 48 20 87 61 117s93 45 157 45zM530 314h229c-13 119 -201 123 -229 0zM375 221c-36 10 -69 15 -99 15c-71 0 -96 -31 -96 -67
c0 -35 30 -58 79 -58c53 0 97 15 131 46c-9 23 -14 45 -15 64z" />
    <glyph glyph-name="ccedilla" unicode="&#xe7;" horiz-adv-x="549" 
d="M369 -6c37 -33 56 -67 56 -103c0 -41 -14 -71 -43 -90c-28 -19 -59 -28 -92 -28c-73 0 -129 45 -158 112l76 35c17 -35 38 -53 63 -53c32 0 48 16 48 49c0 32 -25 69 -68 80c-67 13 -121 43 -160 90c-39 48 -58 105 -58 171c0 77 26 141 78 191c53 51 122 76 209 76
c71 0 141 -25 210 -76l-68 -109c-38 34 -83 51 -135 51c-87 0 -145 -54 -145 -133s58 -133 145 -133c52 0 97 17 135 51l61 -109c-54 -40 -105 -64 -154 -72z" />
    <glyph glyph-name="egrave" unicode="&#xe8;" horiz-adv-x="616" 
d="M313 403c-57 0 -114 -28 -130 -91h257c-5 30 -20 53 -45 68s-53 23 -82 23zM479 172l86 -82c-61 -67 -141 -101 -239 -101c-92 0 -164 25 -216 75c-52 51 -78 114 -78 190s27 140 80 192s121 78 203 78c77 0 142 -26 196 -79c55 -52 82 -126 82 -223h-413
c3 -65 64 -111 157 -111c51 0 99 20 142 61zM266 577l-148 173h157l99 -173h-108z" />
    <glyph glyph-name="eacute" unicode="&#xe9;" horiz-adv-x="616" 
d="M313 403c-57 0 -114 -28 -130 -91h257c-5 30 -20 53 -45 68s-53 23 -82 23zM479 172l86 -82c-61 -67 -141 -101 -239 -101c-92 0 -164 25 -216 75c-52 51 -78 114 -78 190s27 140 80 192s121 78 203 78c77 0 142 -26 196 -79c55 -52 82 -126 82 -223h-413
c3 -65 64 -111 157 -111c51 0 99 20 142 61zM236 577l99 173h157l-148 -173h-108z" />
    <glyph glyph-name="ecircumflex" unicode="&#xea;" horiz-adv-x="616" 
d="M313 403c-57 0 -114 -28 -130 -91h257c-5 30 -20 53 -45 68s-53 23 -82 23zM479 172l86 -82c-61 -67 -141 -101 -239 -101c-92 0 -164 25 -216 75c-52 51 -78 114 -78 190s27 140 80 192s121 78 203 78c77 0 142 -26 196 -79c55 -52 82 -126 82 -223h-413
c3 -65 64 -111 157 -111c51 0 99 20 142 61zM131 577l105 173h147l106 -173h-105l-74 92l-74 -92h-105z" />
    <glyph glyph-name="edieresis" unicode="&#xeb;" horiz-adv-x="616" 
d="M313 403c-57 0 -114 -28 -130 -91h257c-5 30 -20 53 -45 68s-53 23 -82 23zM479 172l86 -82c-61 -67 -141 -101 -239 -101c-92 0 -164 25 -216 75c-52 51 -78 114 -78 190s27 140 80 192s121 78 203 78c77 0 142 -26 196 -79c55 -52 82 -126 82 -223h-413
c3 -65 64 -111 157 -111c51 0 99 20 142 61zM99 664c0 47 38 81 87 81c48 0 87 -36 87 -81s-39 -79 -87 -79c-49 0 -87 34 -87 79zM347 664c0 47 37 81 86 81s88 -36 88 -81s-39 -79 -88 -79s-86 34 -86 79z" />
    <glyph glyph-name="igrave" unicode="&#xec;" horiz-adv-x="282" 
d="M216 513v-513h-149v513h149zM103 577l-148 173h157l99 -173h-108z" />
    <glyph glyph-name="iacute" unicode="&#xed;" horiz-adv-x="282" 
d="M215 513v-513h-149v513h149zM71 577l99 173h157l-148 -173h-108z" />
    <glyph glyph-name="icircumflex" unicode="&#xee;" horiz-adv-x="283" 
d="M216 513v-513h-149v513h149zM-37 577l105 173h147l106 -173h-105l-74 92l-74 -92h-105z" />
    <glyph glyph-name="idieresis" unicode="&#xef;" horiz-adv-x="283" 
d="M216 513v-513h-149v513h149zM-69 664c0 47 38 81 87 81c48 0 87 -36 87 -81s-39 -79 -87 -79c-49 0 -87 34 -87 79zM179 664c0 47 37 81 86 81s88 -36 88 -81s-39 -79 -88 -79s-86 34 -86 79z" />
    <glyph glyph-name="eth" unicode="&#xf0;" horiz-adv-x="598" 
d="M266 549l-114 -50l-29 64l87 38l-76 65l112 76c33 -27 64 -55 95 -84l110 49l33 -64l-90 -39c113 -125 170 -245 170 -358c0 -78 -26 -140 -78 -187c-51 -47 -113 -70 -185 -70c-76 0 -140 24 -192 72c-52 49 -78 109 -78 180c0 69 24 123 73 162c49 40 103 60 162 60
c38 0 66 -5 85 -14c-18 29 -46 63 -85 100zM298 114c72 0 117 50 117 127c0 76 -44 119 -117 119c-72 0 -118 -46 -118 -119s47 -127 118 -127z" />
    <glyph glyph-name="ntilde" unicode="&#xf1;" horiz-adv-x="613" 
d="M213 0h-149v513h149v-70c39 54 92 81 159 81c122 0 183 -82 183 -245v-279h-149v276c0 83 -32 125 -95 125c-65 0 -98 -50 -98 -126v-275zM422 738l75 -22c-23 -81 -54 -122 -115 -122c-21 0 -48 6 -79 17s-51 17 -60 17c-27 0 -38 -12 -53 -43l-75 22
c23 81 54 122 115 122c21 0 48 -6 79 -17s51 -17 60 -17c27 0 38 12 53 43z" />
    <glyph glyph-name="ograve" unicode="&#xf2;" horiz-adv-x="628" 
d="M314 524c77 0 144 -25 199 -76c55 -50 83 -114 83 -191c0 -78 -28 -142 -83 -193c-55 -50 -122 -75 -199 -75s-143 25 -199 75c-55 51 -83 115 -83 193s28 142 83 192c56 50 122 75 199 75zM177 257c0 -40 13 -73 40 -100s60 -40 97 -40s69 13 96 40s41 61 41 100
s-14 72 -41 99s-59 40 -96 40s-70 -13 -97 -40s-40 -60 -40 -99zM260 577l-148 173h157l99 -173h-108z" />
    <glyph glyph-name="oacute" unicode="&#xf3;" horiz-adv-x="628" 
d="M314 524c77 0 144 -25 199 -76c55 -50 83 -114 83 -191c0 -78 -28 -142 -83 -193c-55 -50 -122 -75 -199 -75s-143 25 -199 75c-55 51 -83 115 -83 193s28 142 83 192c56 50 122 75 199 75zM177 257c0 -40 13 -73 40 -100s60 -40 97 -40s69 13 96 40s41 61 41 100
s-14 72 -41 99s-59 40 -96 40s-70 -13 -97 -40s-40 -60 -40 -99zM247 577l99 173h157l-148 -173h-108z" />
    <glyph glyph-name="ocircumflex" unicode="&#xf4;" horiz-adv-x="628" 
d="M314 524c77 0 144 -25 199 -76c55 -50 83 -114 83 -191c0 -78 -28 -142 -83 -193c-55 -50 -122 -75 -199 -75s-143 25 -199 75c-55 51 -83 115 -83 193s28 142 83 192c56 50 122 75 199 75zM177 257c0 -40 13 -73 40 -100s60 -40 97 -40s69 13 96 40s41 61 41 100
s-14 72 -41 99s-59 40 -96 40s-70 -13 -97 -40s-40 -60 -40 -99zM135 577l105 173h147l106 -173h-105l-74 92l-74 -92h-105z" />
    <glyph glyph-name="otilde" unicode="&#xf5;" horiz-adv-x="628" 
d="M314 524c77 0 144 -25 199 -76c55 -50 83 -114 83 -191c0 -78 -28 -142 -83 -193c-55 -50 -122 -75 -199 -75s-143 25 -199 75c-55 51 -83 115 -83 193s28 142 83 192c56 50 122 75 199 75zM177 257c0 -40 13 -73 40 -100s60 -40 97 -40s69 13 96 40s41 61 41 100
s-14 72 -41 99s-59 40 -96 40s-70 -13 -97 -40s-40 -60 -40 -99zM430 738l75 -22c-23 -81 -54 -122 -115 -122c-21 0 -48 6 -79 17s-51 17 -60 17c-27 0 -38 -12 -53 -43l-75 22c23 81 54 122 115 122c21 0 48 -6 79 -17s51 -17 60 -17c27 0 38 12 53 43z" />
    <glyph glyph-name="odieresis" unicode="&#xf6;" horiz-adv-x="628" 
d="M314 524c77 0 144 -25 199 -76c55 -50 83 -114 83 -191c0 -78 -28 -142 -83 -193c-55 -50 -122 -75 -199 -75s-143 25 -199 75c-55 51 -83 115 -83 193s28 142 83 192c56 50 122 75 199 75zM177 257c0 -40 13 -73 40 -100s60 -40 97 -40s69 13 96 40s41 61 41 100
s-14 72 -41 99s-59 40 -96 40s-70 -13 -97 -40s-40 -60 -40 -99zM103 664c0 47 38 81 87 81c48 0 87 -36 87 -81s-39 -79 -87 -79c-49 0 -87 34 -87 79zM351 664c0 47 37 81 86 81s88 -36 88 -81s-39 -79 -88 -79s-86 34 -86 79z" />
    <glyph glyph-name="divide" unicode="&#xf7;" horiz-adv-x="625" 
d="M585 249h-544v120h544v-120zM219 108c0 49 39 81 94 81s95 -32 95 -81c0 -48 -40 -79 -95 -79s-94 31 -94 79zM219 510c0 49 39 81 94 81s95 -32 95 -81c0 -48 -40 -79 -95 -79s-94 31 -94 79z" />
    <glyph glyph-name="oslash" unicode="&#xf8;" horiz-adv-x="628" 
d="M32 257c0 78 28 142 83 192c56 50 122 75 199 75c53 0 103 -13 149 -39l55 62l61 -57l-51 -57c45 -49 68 -108 68 -176c0 -78 -28 -142 -83 -193c-55 -50 -122 -75 -199 -75c-53 0 -102 12 -146 37l-56 -63l-61 57l51 57c-47 50 -70 110 -70 180zM177 257
c0 -27 6 -51 19 -73l176 198c-19 9 -38 14 -58 14c-37 0 -70 -13 -97 -40s-40 -60 -40 -99zM451 257c0 26 -6 49 -18 69l-175 -197c17 -8 36 -12 56 -12c37 0 69 13 96 40s41 61 41 100z" />
    <glyph glyph-name="ugrave" unicode="&#xf9;" horiz-adv-x="614" 
d="M400 513h149v-513h-149v70c-39 -54 -92 -81 -159 -81c-122 0 -183 82 -183 245v279h149v-276c0 -83 32 -125 95 -125c65 0 98 50 98 126v275zM292 577l-148 173h157l99 -173h-108z" />
    <glyph glyph-name="uacute" unicode="&#xfa;" horiz-adv-x="614" 
d="M400 513h149v-513h-149v70c-39 -54 -92 -81 -159 -81c-122 0 -183 82 -183 245v279h149v-276c0 -83 32 -125 95 -125c65 0 98 50 98 126v275zM231 577l99 173h157l-148 -173h-108z" />
    <glyph glyph-name="ucircumflex" unicode="&#xfb;" horiz-adv-x="614" 
d="M400 513h149v-513h-149v70c-39 -54 -92 -81 -159 -81c-122 0 -183 82 -183 245v279h149v-276c0 -83 32 -125 95 -125c65 0 98 50 98 126v275zM128 577l105 173h147l106 -173h-105l-74 92l-74 -92h-105z" />
    <glyph glyph-name="udieresis" unicode="&#xfc;" horiz-adv-x="614" 
d="M400 513h149v-513h-149v70c-39 -54 -92 -81 -159 -81c-122 0 -183 82 -183 245v279h149v-276c0 -83 32 -125 95 -125c65 0 98 50 98 126v275zM96 664c0 47 38 81 87 81c48 0 87 -36 87 -81s-39 -79 -87 -79c-49 0 -87 34 -87 79zM344 664c0 47 37 81 86 81s88 -36 88 -81
s-39 -79 -88 -79s-86 34 -86 79z" />
    <glyph glyph-name="yacute" unicode="&#xfd;" 
d="M179 513l122 -321l122 321h164l-332 -747h-150l117 277l-211 470h168zM221 577l99 173h157l-148 -173h-108z" />
    <glyph glyph-name="thorn" unicode="&#xfe;" horiz-adv-x="659" 
d="M625 259c0 -77 -23 -142 -68 -193s-106 -77 -182 -77c-67 0 -121 29 -161 86v-309h-149v957h149v-280c36 49 97 81 164 81c77 0 138 -25 181 -76c44 -51 66 -114 66 -189zM476 258c0 83 -49 145 -128 145c-83 0 -138 -60 -138 -153c0 -89 57 -140 134 -140
c80 0 132 64 132 148z" />
    <glyph glyph-name="ydieresis" unicode="&#xff;" 
d="M179 513l122 -321l122 321h164l-332 -747h-150l117 277l-211 470h168zM82 664c0 47 38 81 87 81c48 0 87 -36 87 -81s-39 -79 -87 -79c-49 0 -87 34 -87 79zM330 664c0 47 37 81 86 81s88 -36 88 -81s-39 -79 -88 -79s-86 34 -86 79z" />
    <glyph glyph-name="Amacron" unicode="&#x100;" horiz-adv-x="705" 
d="M214 131l-48 -131h-160l270 700h151l274 -700h-162l-50 131v-2h-275v2zM445 256l-93 280l-96 -280h189zM196 773v103h315v-103h-315z" />
    <glyph glyph-name="amacron" unicode="&#x101;" horiz-adv-x="658" 
d="M183 258c0 -84 52 -148 132 -148c77 0 134 51 134 140c0 93 -55 153 -138 153c-79 0 -128 -62 -128 -145zM445 443v70h149v-513h-149v75c-40 -57 -94 -86 -161 -86c-76 0 -137 26 -182 77s-68 116 -68 193c0 75 22 138 65 189c44 51 105 76 182 76c67 0 128 -32 164 -81z
M170 604v103h315v-103h-315z" />
    <glyph glyph-name="Abreve" unicode="&#x102;" horiz-adv-x="705" 
d="M6 0l270 700h151l274 -700h-162l-50 131v-2h-275v2l-48 -131h-160zM256 256h189l-93 280zM422 916l91 -10c-7 -59 -33 -102 -68 -122c-35 -19 -63 -26 -92 -26s-57 7 -92 26c-35 20 -61 63 -68 122l91 10c8 -91 130 -91 138 0z" />
    <glyph glyph-name="abreve" unicode="&#x103;" horiz-adv-x="658" 
d="M183 258c0 -84 52 -148 132 -148c77 0 134 51 134 140c0 93 -55 153 -138 153c-79 0 -128 -62 -128 -145zM445 443v70h149v-513h-149v75c-40 -57 -94 -86 -161 -86c-76 0 -137 26 -182 77s-68 116 -68 193c0 75 22 138 65 189c44 51 105 76 182 76c67 0 128 -32 164 -81z
M393 750l94 -10c-5 -64 -30 -110 -63 -131s-62 -29 -97 -29s-64 8 -97 29s-58 67 -63 131l94 10c4 -50 26 -75 66 -75s62 25 66 75z" />
    <glyph glyph-name="Aogonek" unicode="&#x104;" horiz-adv-x="704" 
d="M535 8l-47 123v-2h-275v2l-48 -131h-160l270 700h151l274 -700h-16c-105 0 -120 -62 -120 -84c0 -33 16 -49 48 -49c25 0 46 18 63 53l76 -35c-29 -67 -85 -112 -158 -112c-33 0 -64 9 -93 28c-28 19 -42 49 -42 90c0 48 26 87 77 117zM444 256l-93 280l-96 -280h189z
" />
    <glyph glyph-name="aogonek" unicode="&#x105;" horiz-adv-x="658" 
d="M183 258c0 -84 52 -148 132 -148c77 0 134 51 134 140c0 93 -55 153 -138 153c-79 0 -128 -62 -128 -145zM445 513h149v-513c-105 0 -120 -62 -120 -84c0 -33 16 -49 48 -49c25 0 46 18 63 53l76 -35c-29 -67 -85 -112 -158 -112c-33 0 -64 9 -93 28
c-28 19 -42 49 -42 90c0 48 26 87 77 117v67c-40 -57 -94 -86 -161 -86c-76 0 -137 26 -182 77s-68 116 -68 193c0 75 22 138 65 189c44 51 105 76 182 76c67 0 128 -32 164 -81v70z" />
    <glyph glyph-name="Cacute" unicode="&#x106;" horiz-adv-x="694" 
d="M423 711c103 0 172 -29 251 -88l-64 -118c-59 45 -121 68 -186 68c-69 0 -125 -21 -166 -64c-41 -42 -62 -95 -62 -159s21 -117 62 -160c41 -42 97 -63 166 -63c65 0 127 23 186 68l64 -118c-79 -59 -148 -88 -251 -88c-115 0 -208 35 -279 105c-70 70 -105 155 -105 256
s35 186 105 256c71 70 164 105 279 105zM294 750l87 154h157l-136 -154h-108z" />
    <glyph glyph-name="cacute" unicode="&#x107;" horiz-adv-x="553" 
d="M320 524c71 0 141 -25 210 -76l-68 -109c-38 34 -83 51 -135 51c-87 0 -145 -54 -145 -133s58 -133 145 -133c52 0 97 17 135 51l68 -109c-69 -51 -139 -76 -210 -76c-87 0 -156 25 -209 75c-52 51 -78 115 -78 192s26 141 78 191c53 51 122 76 209 76zM226 577l99 173
h157l-148 -173h-108z" />
    <glyph glyph-name="Ccircumflex" unicode="&#x108;" horiz-adv-x="694" 
d="M423 711c103 0 172 -29 251 -88l-64 -118c-59 45 -121 68 -186 68c-69 0 -125 -21 -166 -64c-41 -42 -62 -95 -62 -159s21 -117 62 -160c41 -42 97 -63 166 -63c65 0 127 23 186 68l64 -118c-79 -59 -148 -88 -251 -88c-115 0 -208 35 -279 105c-70 70 -105 155 -105 256
s35 186 105 256c71 70 164 105 279 105zM217 750l100 154h147l101 -154h-102l-72 79l-72 -79h-102z" />
    <glyph glyph-name="ccircumflex" unicode="&#x109;" horiz-adv-x="553" 
d="M320 524c71 0 141 -25 210 -76l-68 -109c-38 34 -83 51 -135 51c-87 0 -145 -54 -145 -133s58 -133 145 -133c52 0 97 17 135 51l68 -109c-69 -51 -139 -76 -210 -76c-87 0 -156 25 -209 75c-52 51 -78 115 -78 192s26 141 78 191c53 51 122 76 209 76zM120 577l105 173
h147l106 -173h-105l-74 92l-74 -92h-105z" />
    <glyph glyph-name="Cdotaccent" unicode="&#x10a;" horiz-adv-x="694" 
d="M423 711c103 0 172 -29 251 -88l-64 -118c-59 45 -121 68 -186 68c-69 0 -125 -21 -166 -64c-41 -42 -62 -95 -62 -159s21 -117 62 -160c41 -42 97 -63 166 -63c65 0 127 23 186 68l64 -118c-79 -59 -148 -88 -251 -88c-115 0 -208 35 -279 105c-70 70 -105 155 -105 256
s35 186 105 256c71 70 164 105 279 105zM310 829c0 45 36 75 87 75c49 0 87 -30 87 -75c0 -44 -38 -73 -87 -73c-51 0 -87 29 -87 73z" />
    <glyph glyph-name="cdotaccent" unicode="&#x10b;" horiz-adv-x="553" 
d="M320 524c71 0 141 -25 210 -76l-68 -109c-38 34 -83 51 -135 51c-87 0 -145 -54 -145 -133s58 -133 145 -133c52 0 97 17 135 51l68 -109c-69 -51 -139 -76 -210 -76c-87 0 -156 25 -209 75c-52 51 -78 115 -78 192s26 141 78 191c53 51 122 76 209 76zM214 664
c0 47 38 81 87 81c48 0 87 -36 87 -81s-39 -79 -87 -79c-49 0 -87 34 -87 79z" />
    <glyph glyph-name="Ccaron" unicode="&#x10c;" horiz-adv-x="694" 
d="M423 711c103 0 172 -29 251 -88l-64 -118c-59 45 -121 68 -186 68c-69 0 -125 -21 -166 -64c-41 -42 -62 -95 -62 -159s21 -117 62 -160c41 -42 97 -63 166 -63c65 0 127 23 186 68l64 -118c-79 -59 -148 -88 -251 -88c-115 0 -208 35 -279 105c-70 70 -105 155 -105 256
s35 186 105 256c71 70 164 105 279 105zM572 904l-101 -154h-147l-100 154h102l72 -79l72 79h102z" />
    <glyph glyph-name="ccaron" unicode="&#x10d;" horiz-adv-x="553" 
d="M320 524c71 0 141 -25 210 -76l-68 -109c-38 34 -83 51 -135 51c-87 0 -145 -54 -145 -133s58 -133 145 -133c52 0 97 17 135 51l68 -109c-69 -51 -139 -76 -210 -76c-87 0 -156 25 -209 75c-52 51 -78 115 -78 192s26 141 78 191c53 51 122 76 209 76zM477 750
l-106 -173h-147l-105 173h105l74 -92l74 92h105z" />
    <glyph glyph-name="Dcaron" unicode="&#x10e;" horiz-adv-x="757" 
d="M515 904l-101 -154h-147l-100 154h102l72 -79l72 79h102zM345 123c65 0 117 22 156 65c40 44 60 98 60 162s-20 118 -60 161c-39 44 -91 66 -156 66h-107v-454h107zM345 700c112 0 202 -34 270 -101s102 -150 102 -249s-34 -183 -102 -250s-158 -100 -270 -100h-262v700
h262z" />
    <glyph glyph-name="dcaron" unicode="&#x10f;" horiz-adv-x="731" 
d="M183 258c0 -84 52 -148 132 -148c77 0 134 51 134 140c0 93 -55 153 -138 153c-79 0 -128 -62 -128 -145zM445 443v280h149v-723h-149v75c-40 -57 -94 -86 -161 -86c-76 0 -137 26 -182 77s-68 116 -68 193c0 75 22 138 65 189c44 51 105 76 182 76c67 0 128 -32 164 -81
zM675 460l-30 51c47 18 71 42 71 73c-45 -12 -80 19 -80 66c0 43 31 73 78 73c56 0 84 -42 84 -82c0 -92 -41 -152 -123 -181z" />
    <glyph glyph-name="Dcroat" unicode="&#x110;" horiz-adv-x="767" 
d="M93 293h-82v108h82v299h262c112 0 202 -34 270 -101s102 -150 102 -249s-34 -183 -102 -250s-158 -100 -270 -100h-262v293zM355 577h-107v-176h149v-108h-149v-170h107c65 0 117 22 156 65c40 44 60 98 60 162s-20 118 -60 161c-39 44 -91 66 -156 66z" />
    <glyph glyph-name="dslash" unicode="&#x111;" horiz-adv-x="659" 
d="M445 571h-165v71h165v81h149v-81h79v-71h-79v-571h-149v75c-40 -57 -94 -86 -161 -86c-76 0 -137 26 -182 77s-68 116 -68 193c0 75 22 138 65 189c44 51 105 76 182 76c67 0 128 -32 164 -81v128zM183 258c0 -84 52 -148 132 -148c77 0 134 51 134 140
c0 93 -55 153 -138 153c-79 0 -128 -62 -128 -145z" />
    <glyph glyph-name="Emacron" unicode="&#x112;" 
d="M548 123v-123h-465v700h465v-123h-310v-172h269v-123h-269v-159h310zM159 773v103h315v-103h-315z" />
    <glyph glyph-name="emacron" unicode="&#x113;" horiz-adv-x="616" 
d="M313 403c-57 0 -114 -28 -130 -91h257c-5 30 -20 53 -45 68s-53 23 -82 23zM479 172l86 -82c-61 -67 -141 -101 -239 -101c-92 0 -164 25 -216 75c-52 51 -78 114 -78 190s27 140 80 192s121 78 203 78c77 0 142 -26 196 -79c55 -52 82 -126 82 -223h-413
c3 -65 64 -111 157 -111c51 0 99 20 142 61zM152 604v103h315v-103h-315z" />
    <glyph glyph-name="Ebreve" unicode="&#x114;" 
d="M548 123v-123h-465v700h465v-123h-310v-172h269v-123h-269v-159h310zM385 916l91 -10c-7 -59 -33 -102 -68 -122c-35 -19 -63 -26 -92 -26s-57 7 -92 26c-35 20 -61 63 -68 122l91 10c8 -91 130 -91 138 0z" />
    <glyph glyph-name="ebreve" unicode="&#x115;" horiz-adv-x="616" 
d="M313 403c-57 0 -114 -28 -130 -91h257c-5 30 -20 53 -45 68s-53 23 -82 23zM479 172l86 -82c-61 -67 -141 -101 -239 -101c-92 0 -164 25 -216 75c-52 51 -78 114 -78 190s27 140 80 192s121 78 203 78c77 0 142 -26 196 -79c55 -52 82 -126 82 -223h-413
c3 -65 64 -111 157 -111c51 0 99 20 142 61zM376 750l94 -10c-5 -64 -30 -110 -63 -131s-62 -29 -97 -29s-64 8 -97 29s-58 67 -63 131l94 10c4 -50 26 -75 66 -75s62 25 66 75z" />
    <glyph glyph-name="Edotaccent" unicode="&#x116;" 
d="M548 123v-123h-465v700h465v-123h-310v-172h269v-123h-269v-159h310zM229 829c0 45 36 75 87 75c49 0 87 -30 87 -75c0 -44 -38 -73 -87 -73c-51 0 -87 29 -87 73z" />
    <glyph glyph-name="edotaccent" unicode="&#x117;" horiz-adv-x="616" 
d="M313 403c-57 0 -114 -28 -130 -91h257c-5 30 -20 53 -45 68s-53 23 -82 23zM479 172l86 -82c-61 -67 -141 -101 -239 -101c-92 0 -164 25 -216 75c-52 51 -78 114 -78 190s27 140 80 192s121 78 203 78c77 0 142 -26 196 -79c55 -52 82 -126 82 -223h-413
c3 -65 64 -111 157 -111c51 0 99 20 142 61zM223 664c0 47 38 81 87 81c48 0 87 -36 87 -81s-39 -79 -87 -79c-49 0 -87 34 -87 79z" />
    <glyph glyph-name="Eogonek" unicode="&#x118;" 
d="M351 0h-268v700h465v-123h-310v-172h269v-123h-269v-159h310v-123h-40c-105 0 -120 -62 -120 -84c0 -33 16 -49 48 -49c25 0 46 18 63 53l76 -35c-29 -67 -85 -112 -158 -112c-33 0 -64 9 -93 28c-28 19 -42 49 -42 90c0 7 1 16 4 27c5 20 28 59 65 82z" />
    <glyph glyph-name="eogonek" unicode="&#x119;" horiz-adv-x="617" 
d="M422 -17c-17 -20 -25 -43 -25 -70c0 -28 18 -46 47 -46c26 0 47 18 64 53l76 -35c-28 -64 -85 -112 -156 -112c-56 -3 -135 29 -137 115c0 38 15 72 44 101h-9c-92 0 -164 25 -216 75c-52 51 -78 114 -78 190s27 140 80 192s121 78 203 78c77 0 142 -26 196 -79
c55 -52 82 -126 82 -223h-413c3 -65 64 -111 157 -111c51 0 99 20 142 61l86 -82c-21 -23 -46 -43 -73 -58c-35 -18 -59 -34 -70 -49zM313 403c-57 0 -114 -28 -130 -91h257c-5 30 -20 53 -45 68s-53 23 -82 23z" />
    <glyph glyph-name="Ecaron" unicode="&#x11a;" 
d="M548 123v-123h-465v700h465v-123h-310v-172h269v-123h-269v-159h310zM487 904l-101 -154h-147l-100 154h102l72 -79l72 79h102z" />
    <glyph glyph-name="ecaron" unicode="&#x11b;" horiz-adv-x="616" 
d="M313 403c-57 0 -114 -28 -130 -91h257c-5 30 -20 53 -45 68s-53 23 -82 23zM479 172l86 -82c-61 -67 -141 -101 -239 -101c-92 0 -164 25 -216 75c-52 51 -78 114 -78 190s27 140 80 192s121 78 203 78c77 0 142 -26 196 -79c55 -52 82 -126 82 -223h-413
c3 -65 64 -111 157 -111c51 0 99 20 142 61zM489 750l-106 -173h-147l-105 173h105l74 -92l74 92h105z" />
    <glyph glyph-name="Gcircumflex" unicode="&#x11c;" horiz-adv-x="734" 
d="M226 750l100 154h147l101 -154h-102l-72 79l-72 -79h-102zM39 350c0 101 35 186 104 256s161 105 274 105c88 0 172 -30 252 -90l-77 -115c-58 43 -115 64 -170 63c-170 0 -228 -120 -228 -221c0 -63 20 -115 60 -156c41 -41 93 -61 156 -61c51 0 94 9 129 26v100h-177
v124h322v-285c-80 -71 -171 -107 -273 -107c-106 0 -195 35 -266 105c-71 71 -106 156 -106 256z" />
    <glyph glyph-name="gcircumflex" unicode="&#x11d;" horiz-adv-x="659" 
d="M134 577l105 173h147l106 -173h-105l-74 92l-74 -92h-105zM183 258c0 -84 52 -148 132 -148c77 0 134 51 134 140c0 93 -55 153 -138 153c-79 0 -128 -62 -128 -145zM445 513h149v-477c0 -95 -26 -165 -79 -211c-53 -47 -119 -70 -199 -70c-103 0 -184 24 -243 71l59 116
c17 -15 40 -28 69 -40c30 -12 58 -18 85 -18c106 0 159 45 159 135v56c-40 -57 -94 -86 -161 -86c-76 0 -137 26 -182 77s-68 116 -68 193c0 75 22 138 65 189c44 51 105 76 182 76c67 0 128 -32 164 -81v70z" />
    <glyph glyph-name="Gbreve" unicode="&#x11e;" horiz-adv-x="734" 
d="M449 916l91 -10c-7 -59 -33 -102 -68 -122c-35 -19 -63 -26 -92 -26s-57 7 -92 26c-35 20 -61 63 -68 122l91 10c8 -91 130 -91 138 0zM39 350c0 101 35 186 104 256s161 105 274 105c88 0 172 -30 252 -90l-77 -115c-58 43 -115 64 -170 63c-170 0 -228 -120 -228 -221
c0 -63 20 -115 60 -156c41 -41 93 -61 156 -61c51 0 94 9 129 26v100h-177v124h322v-285c-80 -71 -171 -107 -273 -107c-106 0 -195 35 -266 105c-71 71 -106 156 -106 256z" />
    <glyph glyph-name="gbreve" unicode="&#x11f;" horiz-adv-x="659" 
d="M380 750l94 -10c-5 -64 -30 -110 -63 -131s-62 -29 -97 -29s-64 8 -97 29s-58 67 -63 131l94 10c4 -50 26 -75 66 -75s62 25 66 75zM183 258c0 -84 52 -148 132 -148c77 0 134 51 134 140c0 93 -55 153 -138 153c-79 0 -128 -62 -128 -145zM445 513h149v-477
c0 -95 -26 -165 -79 -211c-53 -47 -119 -70 -199 -70c-103 0 -184 24 -243 71l59 116c17 -15 40 -28 69 -40c30 -12 58 -18 85 -18c106 0 159 45 159 135v56c-40 -57 -94 -86 -161 -86c-76 0 -137 26 -182 77s-68 116 -68 193c0 75 22 138 65 189c44 51 105 76 182 76
c67 0 128 -32 164 -81v70z" />
    <glyph glyph-name="Gdotaccent" unicode="&#x120;" horiz-adv-x="734" 
d="M306 829c0 45 36 75 87 75c49 0 87 -30 87 -75c0 -44 -38 -73 -87 -73c-51 0 -87 29 -87 73zM39 350c0 101 35 186 104 256s161 105 274 105c88 0 172 -30 252 -90l-77 -115c-58 43 -115 64 -170 63c-170 0 -228 -120 -228 -221c0 -63 20 -115 60 -156
c41 -41 93 -61 156 -61c51 0 94 9 129 26v100h-177v124h322v-285c-80 -71 -171 -107 -273 -107c-106 0 -195 35 -266 105c-71 71 -106 156 -106 256z" />
    <glyph glyph-name="gdotaccent" unicode="&#x121;" horiz-adv-x="659" 
d="M223 664c0 47 38 81 87 81c48 0 87 -36 87 -81s-39 -79 -87 -79c-49 0 -87 34 -87 79zM183 258c0 -84 52 -148 132 -148c77 0 134 51 134 140c0 93 -55 153 -138 153c-79 0 -128 -62 -128 -145zM445 513h149v-477c0 -95 -26 -165 -79 -211c-53 -47 -119 -70 -199 -70
c-103 0 -184 24 -243 71l59 116c17 -15 40 -28 69 -40c30 -12 58 -18 85 -18c106 0 159 45 159 135v56c-40 -57 -94 -86 -161 -86c-76 0 -137 26 -182 77s-68 116 -68 193c0 75 22 138 65 189c44 51 105 76 182 76c67 0 128 -32 164 -81v70z" />
    <glyph glyph-name="Gcommaaccent" unicode="&#x122;" horiz-adv-x="734" 
d="M370 -313l-30 51c47 18 71 42 71 73c-45 -12 -80 19 -80 66c0 43 31 73 78 73c56 0 84 -42 84 -82c0 -92 -41 -152 -123 -181zM39 350c0 101 35 186 104 256s161 105 274 105c88 0 172 -30 252 -90l-77 -115c-58 43 -115 64 -170 63c-170 0 -228 -120 -228 -221
c0 -63 20 -115 60 -156c41 -41 93 -61 156 -61c51 0 94 9 129 26v100h-177v124h322v-285c-80 -71 -171 -107 -273 -107c-106 0 -195 35 -266 105c-71 71 -106 156 -106 256z" />
    <glyph glyph-name="gcommaaccent" unicode="&#x123;" horiz-adv-x="659" 
d="M348 839l30 -51c-47 -18 -71 -42 -71 -73c45 12 80 -19 80 -66c0 -43 -31 -73 -78 -73c-56 0 -84 42 -84 82c0 92 41 152 123 181zM183 258c0 -84 52 -148 132 -148c77 0 134 51 134 140c0 93 -55 153 -138 153c-79 0 -128 -62 -128 -145zM445 513h149v-477
c0 -95 -26 -165 -79 -211c-53 -47 -119 -70 -199 -70c-103 0 -184 24 -243 71l59 116c17 -15 40 -28 69 -40c30 -12 58 -18 85 -18c106 0 159 45 159 135v56c-40 -57 -94 -86 -161 -86c-76 0 -137 26 -182 77s-68 116 -68 193c0 75 22 138 65 189c44 51 105 76 182 76
c67 0 128 -32 164 -81v70z" />
    <glyph glyph-name="Hcircumflex" unicode="&#x124;" horiz-adv-x="742" 
d="M659 700v-700h-155v273h-266v-273h-155v700h155v-304h266v304h155zM197 750l100 154h147l101 -154h-102l-72 79l-72 -79h-102z" />
    <glyph glyph-name="hcircumflex" unicode="&#x125;" horiz-adv-x="614" 
d="M214 0h-149v723h149v-280c39 54 92 81 159 81c122 0 183 -82 183 -245v-279h-149v276c0 83 -32 125 -95 125c-65 0 -98 -50 -98 -126v-275zM-51 756l113 147h147l114 -147h-98l-89 72l-89 -72h-98z" />
    <glyph glyph-name="Hbar" unicode="&#x126;" horiz-adv-x="751" 
d="M508 396v80h-266v-80h266zM242 0h-155v476h-74v82h74v142h155v-142h266v142h155v-142h75v-82h-75v-476h-155v273h-266v-273z" />
    <glyph glyph-name="hbar" unicode="&#x127;" horiz-adv-x="614" 
d="M65 570h-76v71h76v82h149v-82h139v-71h-139v-127c39 54 92 81 159 81c122 0 183 -82 183 -245v-279h-149v276c0 83 -32 125 -95 125c-65 0 -98 -50 -98 -126v-275h-149v570z" />
    <glyph glyph-name="Itilde" unicode="&#x128;" horiz-adv-x="321" 
d="M238 0h-155v700h155v-700zM277 906l75 -22c-23 -81 -54 -122 -115 -122c-21 0 -47 6 -78 17s-52 17 -61 17c-27 0 -38 -12 -53 -43l-75 22c23 81 54 122 115 122c21 0 47 -6 78 -17s52 -17 61 -17c27 0 38 12 53 43z" />
    <glyph glyph-name="itilde" unicode="&#x129;" horiz-adv-x="283" 
d="M216 513v-513h-149v513h149zM258 738l75 -22c-23 -81 -54 -122 -115 -122c-21 0 -48 6 -79 17s-51 17 -60 17c-27 0 -38 -12 -53 -43l-75 22c23 81 54 122 115 122c21 0 48 -6 79 -17s51 -17 60 -17c27 0 38 12 53 43z" />
    <glyph glyph-name="Imacron" unicode="&#x12a;" horiz-adv-x="321" 
d="M83 700h155v-700h-155v700zM3 773v103h315v-103h-315z" />
    <glyph glyph-name="imacron" unicode="&#x12b;" horiz-adv-x="283" 
d="M216 513v-513h-149v513h149zM-16 604v103h315v-103h-315z" />
    <glyph glyph-name="Ibreve" unicode="&#x12c;" horiz-adv-x="321" 
d="M238 0h-155v700h155v-700zM230 916l91 -10c-7 -59 -33 -102 -68 -122c-35 -19 -63 -26 -92 -26s-57 7 -92 26c-35 20 -61 63 -68 122l91 10c8 -91 130 -91 138 0z" />
    <glyph glyph-name="ibreve" unicode="&#x12d;" horiz-adv-x="283" 
d="M216 513v-513h-149v513h149zM208 750l94 -10c-5 -64 -30 -110 -63 -131s-62 -29 -97 -29s-64 8 -97 29s-58 67 -63 131l94 10c4 -50 26 -75 66 -75s62 25 66 75z" />
    <glyph glyph-name="Iogonek" unicode="&#x12e;" horiz-adv-x="321" 
d="M238 700v-700h-6c-105 0 -120 -62 -120 -84c0 -33 16 -49 48 -49c25 0 46 18 63 53l76 -35c-29 -67 -85 -112 -158 -112c-33 0 -64 9 -93 28c-28 19 -42 49 -42 90c0 48 26 87 77 117v692h155z" />
    <glyph glyph-name="iogonek" unicode="&#x12f;" horiz-adv-x="281" 
d="M66 513h149v-513c-105 0 -120 -62 -120 -84c0 -33 16 -49 48 -49c25 0 46 18 63 53l76 -35c-29 -67 -85 -112 -158 -112c-33 0 -64 9 -93 28c-28 19 -42 49 -42 90c0 48 26 87 77 117v505zM142 734c53 0 95 -36 95 -85c0 -48 -42 -83 -95 -83c-55 0 -94 34 -94 83
s39 85 94 85z" />
    <glyph glyph-name="Idot" unicode="&#x130;" horiz-adv-x="321" 
d="M238 0h-155v700h155v-700zM74 829c0 45 36 75 87 75c49 0 87 -30 87 -75c0 -44 -38 -73 -87 -73c-51 0 -87 29 -87 73z" />
    <glyph glyph-name="dotlessi" unicode="&#x131;" horiz-adv-x="281" 
d="M215 513v-513h-149v513h149z" />
    <glyph glyph-name="IJ" unicode="&#x132;" horiz-adv-x="981" 
d="M238 0h-155v700h155v-700zM752 701h155v-392c0 -212 -103 -320 -291 -320c-96 0 -170 33 -211 82c-40 49 -59 105 -59 164c0 44 12 83 35 117h143c-21 -33 -31 -69 -31 -106c0 -68 40 -127 121 -127c99 0 138 62 138 190v392z" />
    <glyph glyph-name="ij" unicode="&#x133;" horiz-adv-x="601" 
d="M215 513v-513h-149v513h149zM142 734c53 0 95 -36 95 -85c0 -48 -42 -83 -95 -83c-55 0 -94 34 -94 83s39 85 94 85zM386 -78v591h149v-567c0 -69 -17 -118 -50 -147s-76 -44 -128 -44c-113 0 -171 69 -171 153c0 11 2 20 6 28h118c-1 -3 -1 -8 -1 -17
c0 -30 13 -45 39 -45c25 0 38 16 38 48zM461 734c53 0 95 -36 95 -85c0 -48 -42 -83 -95 -83c-55 0 -94 34 -94 83s39 85 94 85z" />
    <glyph glyph-name="Jcircumflex" unicode="&#x134;" horiz-adv-x="660" 
d="M431 701h155v-392c0 -212 -103 -320 -291 -320c-96 0 -170 33 -211 82c-40 49 -59 105 -59 164c0 44 12 83 35 117h143c-21 -33 -31 -69 -31 -106c0 -68 40 -127 121 -127c99 0 138 62 138 190v392zM330 750l100 154h147l101 -154h-102l-72 79l-72 -79h-102z" />
    <glyph glyph-name="jcircumflex" unicode="&#x135;" horiz-adv-x="321" 
d="M105 -78v591h149v-567c0 -69 -17 -118 -50 -147s-76 -44 -128 -44c-113 0 -171 69 -171 153c0 11 2 20 6 28h118c-1 -3 -1 -8 -1 -17c0 -30 13 -45 39 -45c25 0 38 16 38 48zM-1 577l105 173h147l106 -173h-105l-74 92l-74 -92h-105z" />
    <glyph glyph-name="Kcommaaccent" unicode="&#x136;" horiz-adv-x="664" 
d="M342 131l-107 191v-2v-320h-153v700h153v-321l207 321h159v-20l-218 -323l88 -155c20 -35 36 -58 48 -68c13 -9 29 -14 50 -14c13 0 29 6 49 17l56 -110c-39 -25 -84 -38 -135 -38c-83 0 -148 47 -197 142zM311 -313l-30 51c47 18 71 42 71 73c-45 -12 -80 19 -80 66
c0 43 31 73 78 73c56 0 84 -42 84 -82c0 -92 -41 -152 -123 -181z" />
    <glyph glyph-name="kcommaaccent" unicode="&#x137;" horiz-adv-x="597" 
d="M212 723v-418l146 208h165v-20l-170 -214l67 -107c20 -31 43 -46 70 -46c20 0 38 6 55 18l56 -105c-37 -33 -82 -50 -134 -50c-65 0 -116 26 -152 78l-103 166v-233h-149v723h149zM255 -313l-30 51c47 18 71 42 71 73c-45 -12 -80 19 -80 66c0 43 31 73 78 73
c56 0 84 -42 84 -82c0 -92 -41 -152 -123 -181z" />
    <glyph glyph-name="kgreenlandic" unicode="&#x138;" horiz-adv-x="576" 
d="M213 513v-176l142 176h157v-34l-186 -219l71 -104c17 -22 38 -33 63 -33c21 0 42 9 65 26l50 -97c-42 -42 -90 -63 -143 -63c-57 0 -101 23 -134 70l-84 119v-178h-150v513h149z" />
    <glyph glyph-name="Lacute" unicode="&#x139;" horiz-adv-x="575" 
d="M238 700v-577h317v-123h-472v700h155zM88 750l87 154h157l-136 -154h-108z" />
    <glyph glyph-name="lacute" unicode="&#x13a;" horiz-adv-x="281" 
d="M215 723v-723h-149v723h149zM75 764l83 140h157l-132 -140h-108z" />
    <glyph glyph-name="Lcommaaccent" unicode="&#x13b;" horiz-adv-x="575" 
d="M238 700v-577h317v-123h-472v700h155zM260 -313l-30 51c47 18 71 42 71 73c-45 -12 -80 19 -80 66c0 43 31 73 78 73c56 0 84 -42 84 -82c0 -92 -41 -152 -123 -181z" />
    <glyph glyph-name="lcommaaccent" unicode="&#x13c;" horiz-adv-x="281" 
d="M215 723v-723h-149v723h149zM99 -313l-30 51c47 18 71 42 71 73c-45 -12 -80 19 -80 66c0 43 31 73 78 73c56 0 84 -42 84 -82c0 -92 -41 -152 -123 -181z" />
    <glyph glyph-name="Lcaron" unicode="&#x13d;" horiz-adv-x="576" 
d="M237 700v-577h317v-123h-472v700h155zM386 460l-30 51c47 18 71 42 71 73c-45 -12 -80 19 -80 66c0 43 31 73 78 73c56 0 84 -42 84 -82c0 -92 -41 -152 -123 -181z" />
    <glyph glyph-name="lcaron" unicode="&#x13e;" horiz-adv-x="354" 
d="M215 723v-723h-149v723h149zM296 460l-30 51c47 18 71 42 71 73c-45 -12 -80 19 -80 66c0 43 31 73 78 73c56 0 84 -42 84 -82c0 -92 -41 -152 -123 -181z" />
    <glyph glyph-name="Ldot" unicode="&#x13f;" horiz-adv-x="588" 
d="M238 700v-577h317v-123h-472v700h155zM424 415c55 0 100 -41 100 -92s-45 -92 -100 -92c-56 0 -99 41 -99 92s43 92 99 92z" />
    <glyph glyph-name="ldot" unicode="&#x140;" horiz-adv-x="430" 
d="M215 723v-723h-149v723h149zM354 396c55 0 100 -41 100 -92s-45 -92 -100 -92c-56 0 -99 41 -99 92s43 92 99 92z" />
    <glyph glyph-name="Lslash" unicode="&#x141;" horiz-adv-x="578" 
d="M241 322v-199h317v-123h-472v252l-70 -31v94l70 32v353h155v-282l161 74v-96z" />
    <glyph glyph-name="lslash" unicode="&#x142;" horiz-adv-x="348" 
d="M233 319v-319h-149v250l-71 -33v94l71 33v379h149v-309l92 44v-96z" />
    <glyph glyph-name="Nacute" unicode="&#x143;" horiz-adv-x="747" 
d="M237 426v-425h-155v699h119l308 -422v422h155v-700h-118zM251 750l87 154h157l-136 -154h-108z" />
    <glyph glyph-name="nacute" unicode="&#x144;" horiz-adv-x="613" 
d="M213 0h-149v513h149v-70c39 54 92 81 159 81c122 0 183 -82 183 -245v-279h-149v276c0 83 -32 125 -95 125c-65 0 -98 -50 -98 -126v-275zM209 577l99 173h157l-148 -173h-108z" />
    <glyph glyph-name="Ncommaaccent" unicode="&#x145;" horiz-adv-x="747" 
d="M664 0h-118l-309 426v-425h-155v699h119l308 -422v422h155v-700zM331 -313l-30 51c47 18 71 42 71 73c-45 -12 -80 19 -80 66c0 43 31 73 78 73c56 0 84 -42 84 -82c0 -92 -41 -152 -123 -181z" />
    <glyph glyph-name="ncommaaccent" unicode="&#x146;" horiz-adv-x="613" 
d="M213 0h-149v513h149v-70c39 54 92 81 159 81c122 0 183 -82 183 -245v-279h-149v276c0 83 -32 125 -95 125c-65 0 -98 -50 -98 -126v-275zM264 -313l-30 51c47 18 71 42 71 73c-45 -12 -80 19 -80 66c0 43 31 73 78 73c56 0 84 -42 84 -82c0 -92 -41 -152 -123 -181z" />
    <glyph glyph-name="Ncaron" unicode="&#x147;" horiz-adv-x="747" 
d="M237 426v-425h-155v699h119l308 -422v422h155v-700h-118zM531 904l-101 -154h-147l-100 154h102l72 -79l72 79h102z" />
    <glyph glyph-name="ncaron" unicode="&#x148;" horiz-adv-x="613" 
d="M213 0h-149v513h149v-70c39 54 92 81 159 81c122 0 183 -82 183 -245v-279h-149v276c0 83 -32 125 -95 125c-65 0 -98 -50 -98 -126v-275zM487 750l-106 -173h-147l-105 173h105l74 -92l74 92h105z" />
    <glyph glyph-name="napostrophe" unicode="&#x149;" horiz-adv-x="724" 
d="M334 0h-149v513h149v-70c39 54 92 81 159 81c122 0 183 -82 183 -245v-279h-149v276c0 83 -32 125 -95 125c-65 0 -98 -50 -98 -126v-275zM56 490l-30 51c47 18 71 42 71 73c-45 -12 -80 19 -80 66c0 43 31 73 78 73c56 0 84 -42 84 -82c0 -92 -41 -152 -123 -181z" />
    <glyph glyph-name="Eng" unicode="&#x14a;" horiz-adv-x="747" 
d="M490 76l-253 350v-425h-155v699h119l308 -422v422h155v-641c-9 -196 -106 -297 -291 -304v136c76 0 126 47 134 136c2 15 -4 31 -17 49z" />
    <glyph glyph-name="eng" unicode="&#x14b;" horiz-adv-x="612" 
d="M554 279v-234c0 -175 -93 -283 -278 -290v130c79 0 129 54 129 153v238c0 83 -32 125 -95 125c-65 0 -98 -50 -98 -126v-275h-149v513h149v-70c39 54 92 81 159 81c122 0 183 -82 183 -245z" />
    <glyph glyph-name="Omacron" unicode="&#x14c;" horiz-adv-x="805" 
d="M403 711c100 0 185 -35 256 -106s107 -156 107 -255s-36 -184 -107 -255s-156 -106 -256 -106c-101 0 -187 35 -258 106s-106 156 -106 255s35 184 106 255s157 106 258 106zM253 507c-41 -41 -61 -94 -61 -157s20 -116 61 -157s91 -62 150 -62s108 21 149 62
s61 94 61 157s-20 116 -61 157s-90 62 -149 62s-109 -21 -150 -62zM245 773v103h315v-103h-315z" />
    <glyph glyph-name="omacron" unicode="&#x14d;" horiz-adv-x="628" 
d="M314 524c77 0 144 -25 199 -76c55 -50 83 -114 83 -191c0 -78 -28 -142 -83 -193c-55 -50 -122 -75 -199 -75s-143 25 -199 75c-55 51 -83 115 -83 193s28 142 83 192c56 50 122 75 199 75zM177 257c0 -40 13 -73 40 -100s60 -40 97 -40s69 13 96 40s41 61 41 100
s-14 72 -41 99s-59 40 -96 40s-70 -13 -97 -40s-40 -60 -40 -99zM156 604v103h315v-103h-315z" />
    <glyph glyph-name="Obreve" unicode="&#x14e;" horiz-adv-x="805" 
d="M403 711c100 0 185 -35 256 -106s107 -156 107 -255s-36 -184 -107 -255s-156 -106 -256 -106c-101 0 -187 35 -258 106s-106 156 -106 255s35 184 106 255s157 106 258 106zM253 507c-41 -41 -61 -94 -61 -157s20 -116 61 -157s91 -62 150 -62s108 21 149 62
s61 94 61 157s-20 116 -61 157s-90 62 -149 62s-109 -21 -150 -62zM471 916l91 -10c-7 -59 -33 -102 -68 -122c-35 -19 -63 -26 -92 -26s-57 7 -92 26c-35 20 -61 63 -68 122l91 10c8 -91 130 -91 138 0z" />
    <glyph glyph-name="obreve" unicode="&#x14f;" horiz-adv-x="628" 
d="M314 524c77 0 144 -25 199 -76c55 -50 83 -114 83 -191c0 -78 -28 -142 -83 -193c-55 -50 -122 -75 -199 -75s-143 25 -199 75c-55 51 -83 115 -83 193s28 142 83 192c56 50 122 75 199 75zM177 257c0 -40 13 -73 40 -100s60 -40 97 -40s69 13 96 40s41 61 41 100
s-14 72 -41 99s-59 40 -96 40s-70 -13 -97 -40s-40 -60 -40 -99zM380 750l94 -10c-5 -64 -30 -110 -63 -131s-62 -29 -97 -29s-64 8 -97 29s-58 67 -63 131l94 10c4 -50 26 -75 66 -75s62 25 66 75z" />
    <glyph glyph-name="Ohungarumlaut" unicode="&#x150;" horiz-adv-x="805" 
d="M403 711c100 0 185 -35 256 -106s107 -156 107 -255s-36 -184 -107 -255s-156 -106 -256 -106c-101 0 -187 35 -258 106s-106 156 -106 255s35 184 106 255s157 106 258 106zM253 507c-41 -41 -61 -94 -61 -157s20 -116 61 -157s91 -62 150 -62s108 21 149 62
s61 94 61 157s-20 116 -61 157s-90 62 -149 62s-109 -21 -150 -62zM254 760l84 154h110l-102 -154h-92zM411 760l99 154h110l-113 -154h-96z" />
    <glyph glyph-name="ohungarumlaut" unicode="&#x151;" horiz-adv-x="628" 
d="M314 524c77 0 144 -25 199 -76c55 -50 83 -114 83 -191c0 -78 -28 -142 -83 -193c-55 -50 -122 -75 -199 -75s-143 25 -199 75c-55 51 -83 115 -83 193s28 142 83 192c56 50 122 75 199 75zM177 257c0 -40 13 -73 40 -100s60 -40 97 -40s69 13 96 40s41 61 41 100
s-14 72 -41 99s-59 40 -96 40s-70 -13 -97 -40s-40 -60 -40 -99zM176 577l95 173h110l-113 -173h-92zM333 577l110 173h110l-124 -173h-96z" />
    <glyph glyph-name="OE" unicode="&#x152;" horiz-adv-x="937" 
d="M397 123h46v454h-46c-59 0 -107 -20 -146 -61c-39 -40 -58 -92 -58 -156c0 -65 20 -121 59 -168c39 -46 88 -69 145 -69zM890 123v-123h-493c-101 0 -186 35 -255 104c-68 70 -102 155 -102 256c0 99 34 181 101 244c67 64 153 96 256 96h45h448v-123h-293v-172h252v-123
h-252v-159h293z" />
    <glyph glyph-name="oe" unicode="&#x153;" horiz-adv-x="972" 
d="M835 172l86 -82c-61 -67 -141 -101 -239 -101c-78 0 -142 19 -193 57c-51 -38 -109 -57 -175 -57c-77 0 -143 25 -199 75c-55 51 -83 115 -83 193s28 142 83 192c56 50 122 75 199 75c68 0 127 -20 178 -59c50 39 110 59 179 59c77 0 142 -26 196 -79
c55 -52 82 -126 82 -223h-409c3 -65 60 -111 153 -111c51 0 99 20 142 61zM177 257c0 -40 13 -73 40 -100s60 -40 97 -40s69 13 94 40c-11 29 -16 62 -16 97c0 36 6 69 18 100c-26 28 -58 42 -96 42c-37 0 -70 -13 -97 -40s-40 -60 -40 -99zM669 403
c-56 0 -110 -28 -126 -91h253c-5 30 -20 53 -45 68s-53 23 -82 23z" />
    <glyph glyph-name="Racute" unicode="&#x154;" horiz-adv-x="705" 
d="M373 373c55 0 88 39 88 98c0 60 -33 99 -88 99h-137v-197h137zM616 470c0 -100 -56 -181 -148 -210c21 -85 52 -134 116 -134c26 0 50 10 71 30l55 -107c-27 -21 -51 -36 -73 -46c-22 -9 -50 -14 -83 -14c-99 0 -159 67 -190 137c-23 51 -31 88 -35 123h-93v-249h-154
v700h311c69 0 124 -22 163 -67c40 -44 60 -98 60 -163zM240 750l87 154h157l-136 -154h-108z" />
    <glyph glyph-name="racute" unicode="&#x155;" horiz-adv-x="402" 
d="M64 513h145v-112c5 29 17 53 34 72c36 40 72 51 107 51c11 0 24 -1 38 -4v-147c-19 5 -40 7 -63 7c-61 0 -112 -37 -112 -101v-279h-149v513zM79 577l99 173h157l-148 -173h-108z" />
    <glyph glyph-name="Rcommaaccent" unicode="&#x156;" horiz-adv-x="705" 
d="M236 570v-197h137c55 0 88 39 88 98c0 60 -33 99 -88 99h-137zM616 470c0 -100 -56 -181 -148 -210c21 -85 52 -134 116 -134c26 0 50 10 71 30l55 -107c-27 -21 -51 -36 -73 -46c-22 -9 -50 -14 -83 -14c-63 0 -117 31 -149 70c-16 19 -30 42 -41 67
c-23 51 -31 88 -35 123h-93v-249h-154v700h311c69 0 124 -22 163 -67c40 -44 60 -98 60 -163zM320 -313l-30 51c47 18 71 42 71 73c-45 -12 -80 19 -80 66c0 43 31 73 78 73c56 0 84 -42 84 -82c0 -92 -41 -152 -123 -181z" />
    <glyph glyph-name="rcommaaccent" unicode="&#x157;" horiz-adv-x="402" 
d="M64 513h145v-112c5 29 17 53 34 72c36 40 72 51 107 51c11 0 24 -1 38 -4v-147c-19 5 -40 7 -63 7c-61 0 -112 -37 -112 -101v-279h-149v513zM104 -313l-30 51c47 18 71 42 71 73c-45 -12 -80 19 -80 66c0 43 31 73 78 73c56 0 84 -42 84 -82c0 -92 -41 -152 -123 -181z
" />
    <glyph glyph-name="Rcaron" unicode="&#x158;" horiz-adv-x="705" 
d="M373 373c55 0 88 39 88 98c0 60 -33 99 -88 99h-137v-197h137zM616 470c0 -100 -56 -181 -148 -210c21 -85 52 -134 116 -134c26 0 50 10 71 30l55 -107c-27 -21 -51 -36 -73 -46c-22 -9 -50 -14 -83 -14c-99 0 -159 67 -190 137c-23 51 -31 88 -35 123h-93v-249h-154
v700h311c69 0 124 -22 163 -67c40 -44 60 -98 60 -163zM488 904l-101 -154h-147l-100 154h102l72 -79l72 79h102z" />
    <glyph glyph-name="rcaron" unicode="&#x159;" horiz-adv-x="402" 
d="M64 513h145v-112c5 29 17 53 34 72c36 40 72 51 107 51c11 0 24 -1 38 -4v-147c-19 5 -40 7 -63 7c-61 0 -112 -37 -112 -101v-279h-149v513zM393 750l-106 -173h-147l-105 173h105l74 -92l74 92h105z" />
    <glyph glyph-name="Sacute" unicode="&#x15a;" horiz-adv-x="589" 
d="M28 195l138 27c19 -64 61 -96 127 -96c60 0 105 23 105 72c0 31 -20 54 -81 75l-76 26c-119 41 -178 110 -178 208c0 62 22 111 66 148s101 56 170 56c109 0 193 -53 234 -153l-126 -63c-22 53 -58 79 -108 79c-51 0 -85 -21 -85 -65c0 -33 25 -58 75 -75l74 -26
c123 -38 185 -107 186 -207c0 -69 -25 -121 -75 -158c-49 -36 -108 -54 -176 -54c-70 0 -131 19 -183 56c-51 37 -80 87 -87 150zM205 750l87 154h157l-136 -154h-108z" />
    <glyph glyph-name="sacute" unicode="&#x15b;" horiz-adv-x="482" 
d="M175 577l99 173h157l-148 -173h-108zM24 120l108 61c13 -53 60 -77 108 -77c36 0 67 15 67 39c0 17 -13 30 -38 39l-90 38c-56 20 -95 51 -110 82s-18 48 -18 65c0 49 19 88 57 115c38 28 86 42 144 42c86 0 148 -36 185 -108l-115 -53c-11 33 -35 49 -73 49
c-29 0 -57 -17 -57 -42c0 -17 16 -32 48 -44l77 -30c56 -16 96 -44 112 -75s20 -50 20 -73c0 -50 -20 -89 -60 -117s-90 -42 -150 -42c-47 0 -91 10 -131 29c-40 20 -68 54 -84 102z" />
    <glyph glyph-name="Scircumflex" unicode="&#x15c;" horiz-adv-x="589" 
d="M28 195l138 27c19 -64 61 -96 127 -96c60 0 105 23 105 72c0 31 -20 54 -81 75l-76 26c-119 41 -178 110 -178 208c0 62 22 111 66 148s101 56 170 56c109 0 193 -53 234 -153l-126 -63c-22 53 -58 79 -108 79c-51 0 -85 -21 -85 -65c0 -33 25 -58 75 -75l74 -26
c123 -38 185 -107 186 -207c0 -69 -25 -121 -75 -158c-49 -36 -108 -54 -176 -54c-70 0 -131 19 -183 56c-51 37 -80 87 -87 150zM113 750l100 154h147l101 -154h-102l-72 79l-72 -79h-102z" />
    <glyph glyph-name="scircumflex" unicode="&#x15d;" horiz-adv-x="481" 
d="M62 577l105 173h147l106 -173h-105l-74 92l-74 -92h-105zM24 120l108 61c13 -53 60 -77 108 -77c36 0 67 15 67 39c0 17 -13 30 -38 39l-90 38c-56 20 -95 51 -110 82s-18 48 -18 65c0 49 19 88 57 115c38 28 86 42 144 42c86 0 148 -36 185 -108l-115 -53
c-11 33 -35 49 -73 49c-29 0 -57 -17 -57 -42c0 -17 16 -32 48 -44l77 -30c56 -16 96 -44 112 -75s20 -50 20 -73c0 -50 -20 -89 -60 -117s-90 -42 -150 -42c-47 0 -91 10 -131 29c-40 20 -68 54 -84 102z" />
    <glyph glyph-name="Scedilla" unicode="&#x15e;" horiz-adv-x="589" 
d="M355 -6c34 -32 51 -66 51 -103c0 -41 -14 -71 -43 -90c-28 -19 -59 -28 -92 -28c-73 0 -129 45 -158 112l76 35c17 -35 38 -53 63 -53c32 0 48 16 48 49c0 13 -5 29 -14 46s-24 28 -45 32c-57 9 -106 32 -145 67s-62 80 -68 134l138 27c19 -64 61 -96 127 -96
c60 0 105 23 105 72c0 31 -20 54 -81 75l-76 26c-119 41 -178 110 -178 208c0 62 22 111 66 148s101 56 170 56c109 0 193 -53 234 -153l-126 -63c-22 53 -58 79 -108 79c-51 0 -85 -21 -85 -65c0 -33 25 -58 75 -75l74 -26c123 -38 185 -107 186 -207
c0 -117 -82 -188 -194 -207z" />
    <glyph glyph-name="scedilla" unicode="&#x15f;" horiz-adv-x="482" 
d="M252 524c86 0 148 -36 185 -108l-115 -53c-11 33 -35 49 -73 49c-29 0 -57 -17 -57 -42c0 -17 16 -32 48 -44l77 -30c56 -16 96 -44 112 -75s20 -50 20 -73c0 -80 -56 -134 -141 -151c37 -32 55 -67 55 -106c0 -41 -14 -71 -43 -90c-28 -19 -59 -28 -92 -28
c-73 0 -129 45 -158 112l76 35c17 -35 38 -53 63 -53c32 0 48 16 48 49c0 13 -5 28 -14 45s-22 27 -41 30c-95 11 -154 54 -178 129l108 61c13 -53 60 -77 108 -77c36 0 67 15 67 39c0 17 -13 30 -38 39l-90 38c-56 20 -95 51 -110 82s-18 48 -18 65c0 49 19 88 57 115
c38 28 86 42 144 42z" />
    <glyph glyph-name="Scaron" unicode="&#x160;" horiz-adv-x="589" 
d="M28 195l138 27c19 -64 61 -96 127 -96c60 0 105 23 105 72c0 31 -20 54 -81 75l-76 26c-119 41 -178 110 -178 208c0 62 22 111 66 148s101 56 170 56c109 0 193 -53 234 -153l-126 -63c-22 53 -58 79 -108 79c-51 0 -85 -21 -85 -65c0 -33 25 -58 75 -75l74 -26
c123 -38 185 -107 186 -207c0 -69 -25 -121 -75 -158c-49 -36 -108 -54 -176 -54c-70 0 -131 19 -183 56c-51 37 -80 87 -87 150zM457 904l-101 -154h-147l-100 154h102l72 -79l72 79h102z" />
    <glyph glyph-name="scaron" unicode="&#x161;" horiz-adv-x="481" 
d="M423 750l-106 -173h-147l-105 173h105l74 -92l74 92h105zM24 120l108 61c13 -53 60 -77 108 -77c36 0 67 15 67 39c0 17 -13 30 -38 39l-90 38c-56 20 -95 51 -110 82s-18 48 -18 65c0 49 19 88 57 115c38 28 86 42 144 42c86 0 148 -36 185 -108l-115 -53
c-11 33 -35 49 -73 49c-29 0 -57 -17 -57 -42c0 -17 16 -32 48 -44l77 -30c56 -16 96 -44 112 -75s20 -50 20 -73c0 -50 -20 -89 -60 -117s-90 -42 -150 -42c-47 0 -91 10 -131 29c-40 20 -68 54 -84 102z" />
    <glyph glyph-name="Tcommaaccent" unicode="&#x162;" horiz-adv-x="597" 
d="M24 570v130h549v-130h-199v-570h-153v570h-197zM256 -313l-30 51c47 18 71 42 71 73c-45 -12 -80 19 -80 66c0 43 31 73 78 73c56 0 84 -42 84 -82c0 -92 -41 -152 -123 -181z" />
    <glyph glyph-name="tcommaaccent" unicode="&#x163;" horiz-adv-x="458" 
d="M133 639h115v-126h142v-117h-142v-240c0 -30 13 -45 38 -45c26 0 39 16 39 48c0 17 -2 31 -7 44h118c8 -17 12 -37 12 -61c0 -84 -58 -153 -171 -153c-119 0 -178 60 -178 181v226h-77v117h88zM205 -313l-30 51c47 18 71 42 71 73c-45 -12 -80 19 -80 66
c0 43 31 73 78 73c56 0 84 -42 84 -82c0 -92 -41 -152 -123 -181z" />
    <glyph glyph-name="Tcaron" unicode="&#x164;" horiz-adv-x="597" 
d="M24 570v130h549v-130h-199v-570h-153v570h-197zM474 904l-101 -154h-147l-100 154h102l72 -79l72 79h102z" />
    <glyph glyph-name="tcaron" unicode="&#x165;" horiz-adv-x="476" 
d="M133 639h115v-126h142v-117h-142v-240c0 -30 13 -45 38 -45c26 0 39 16 39 48c0 17 -2 31 -7 44h118c8 -17 12 -37 12 -61c0 -84 -58 -153 -171 -153c-119 0 -178 60 -178 181v226h-77v117h88zM453 487l-30 51c41 16 62 40 62 73c-45 -12 -80 19 -80 66c0 43 31 73 78 73
c56 0 84 -42 84 -82c0 -93 -38 -154 -114 -181z" />
    <glyph glyph-name="Tbar" unicode="&#x166;" horiz-adv-x="610" 
d="M580 570h-199v-171h133v-82h-133v-317h-153v317h-133v82h133v171h-197v130h549v-130z" />
    <glyph glyph-name="tbar" unicode="&#x167;" horiz-adv-x="458" 
d="M99 251h-59v71h59v74h-77v117h88l23 126h115v-126h142v-117h-142v-74h112v-71h-112v-95c0 -30 13 -45 38 -45c26 0 39 16 39 48c0 17 -2 31 -7 44h118c8 -17 12 -37 12 -61c0 -84 -58 -153 -171 -153c-119 0 -178 60 -178 181v81z" />
    <glyph glyph-name="Utilde" unicode="&#x168;" horiz-adv-x="729" 
d="M499 265v435h155v-435c0 -87 -28 -154 -83 -203s-124 -73 -207 -73s-152 24 -207 73s-82 116 -82 203v435h155v-435c0 -93 58 -146 134 -146s135 54 135 146zM480 906l75 -22c-23 -81 -54 -122 -115 -122c-21 0 -48 6 -79 17s-51 17 -60 17c-27 0 -38 -12 -53 -43l-75 22
c23 81 54 122 115 122c21 0 48 -6 79 -17s51 -17 60 -17c27 0 38 12 53 43z" />
    <glyph glyph-name="utilde" unicode="&#x169;" horiz-adv-x="614" 
d="M400 513h149v-513h-149v70c-39 -54 -92 -81 -159 -81c-122 0 -183 82 -183 245v279h149v-276c0 -83 32 -125 95 -125c65 0 98 50 98 126v275zM387 587c-24 0 -52 9 -83 27c-31 19 -50 28 -57 28c-16 0 -24 -12 -24 -35c0 -9 1 -15 2 -20h-83c-4 15 -6 30 -6 44
c0 61 37 111 90 111c15 0 38 -9 69 -26s53 -25 65 -25c18 0 27 11 27 33c0 3 -1 9 -2 18h85c5 -13 7 -29 7 -48c0 -27 -9 -51 -26 -74c-17 -22 -39 -33 -64 -33z" />
    <glyph glyph-name="Umacron" unicode="&#x16a;" horiz-adv-x="729" 
d="M499 265v435h155v-435c0 -87 -28 -154 -83 -203s-124 -73 -207 -73s-152 24 -207 73s-82 116 -82 203v435h155v-435c0 -93 58 -146 134 -146s135 54 135 146zM207 773v103h315v-103h-315z" />
    <glyph glyph-name="umacron" unicode="&#x16b;" horiz-adv-x="614" 
d="M400 513h149v-513h-149v70c-39 -54 -92 -81 -159 -81c-122 0 -183 82 -183 245v279h149v-276c0 -83 32 -125 95 -125c65 0 98 50 98 126v275zM149 604v103h315v-103h-315z" />
    <glyph glyph-name="Ubreve" unicode="&#x16c;" horiz-adv-x="729" 
d="M499 265v435h155v-435c0 -87 -28 -154 -83 -203s-124 -73 -207 -73s-152 24 -207 73s-82 116 -82 203v435h155v-435c0 -93 58 -146 134 -146s135 54 135 146zM433 916l91 -10c-7 -59 -33 -102 -68 -122c-35 -19 -63 -26 -92 -26s-57 7 -92 26c-35 20 -61 63 -68 122
l91 10c8 -91 130 -91 138 0z" />
    <glyph glyph-name="ubreve" unicode="&#x16d;" horiz-adv-x="614" 
d="M400 513h149v-513h-149v70c-39 -54 -92 -81 -159 -81c-122 0 -183 82 -183 245v279h149v-276c0 -83 32 -125 95 -125c65 0 98 50 98 126v275zM372 750l94 -10c-5 -64 -30 -110 -63 -131s-62 -29 -97 -29s-64 8 -97 29s-58 67 -63 131l94 10c4 -50 26 -75 66 -75
s62 25 66 75z" />
    <glyph glyph-name="Uring" unicode="&#x16e;" horiz-adv-x="729" 
d="M499 265v435h155v-435c0 -87 -28 -154 -83 -203s-124 -73 -207 -73s-152 24 -207 73s-82 116 -82 203v435h155v-435c0 -93 58 -146 134 -146s135 54 135 146zM241 857c0 67 52 108 123 108c72 0 124 -41 124 -108s-52 -107 -124 -107c-71 0 -123 42 -123 107zM310 857
c0 -29 18 -44 54 -44s54 15 54 44s-18 43 -54 43s-54 -14 -54 -43z" />
    <glyph glyph-name="uring" unicode="&#x16f;" horiz-adv-x="614" 
d="M400 513h149v-513h-149v70c-39 -54 -92 -81 -159 -81c-122 0 -183 82 -183 245v279h149v-276c0 -83 32 -125 95 -125c65 0 98 50 98 126v275zM183 682c0 68 54 116 123 116c71 0 124 -48 124 -116c0 -67 -53 -115 -124 -115c-69 0 -123 48 -123 115zM267 719
c-20 -19 -20 -55 0 -75c21 -19 57 -19 77 0c21 20 21 56 1 75s-58 19 -78 0z" />
    <glyph glyph-name="Uhungarumlaut" unicode="&#x170;" horiz-adv-x="729" 
d="M499 265v435h155v-435c0 -87 -28 -154 -83 -203s-124 -73 -207 -73s-152 24 -207 73s-82 116 -82 203v435h155v-435c0 -93 58 -146 134 -146s135 54 135 146zM203 760l84 154h110l-102 -154h-92zM360 760l99 154h110l-113 -154h-96z" />
    <glyph glyph-name="uhungarumlaut" unicode="&#x171;" horiz-adv-x="614" 
d="M400 513h149v-513h-149v70c-39 -54 -92 -81 -159 -81c-122 0 -183 82 -183 245v279h149v-276c0 -83 32 -125 95 -125c65 0 98 50 98 126v275zM149 577l95 173h110l-113 -173h-92zM306 577l110 173h110l-124 -173h-96z" />
    <glyph glyph-name="Uogonek" unicode="&#x172;" horiz-adv-x="729" 
d="M409 -8c-27 -14 -41 -39 -41 -76c0 -33 16 -49 48 -49c25 0 46 18 63 53l76 -35c-29 -67 -85 -112 -158 -112c-33 0 -64 9 -93 28c-28 19 -42 49 -42 90c0 39 16 73 49 102c-70 10 -127 38 -171 85c-43 47 -65 110 -65 187v435h155v-435c0 -93 58 -146 134 -146
s135 54 135 146v435h155v-435c0 -78 -23 -141 -69 -189c-46 -47 -105 -75 -176 -84z" />
    <glyph glyph-name="uogonek" unicode="&#x173;" horiz-adv-x="614" 
d="M400 513h149v-513c-105 0 -120 -62 -120 -84c0 -33 16 -49 48 -49c25 0 46 18 63 53l76 -35c-29 -67 -85 -112 -158 -112c-33 0 -64 9 -93 28c-28 19 -42 49 -42 90c0 48 26 87 77 117v62c-39 -54 -92 -81 -159 -81c-122 0 -183 82 -183 245v279h149v-276
c0 -83 32 -125 95 -125c65 0 98 50 98 126v275z" />
    <glyph glyph-name="Wcircumflex" unicode="&#x174;" horiz-adv-x="996" 
d="M441 677h115l128 -406l131 429h158l-220 -700h-123l-132 424l-132 -424h-123l-220 700h158l131 -429zM324 750l100 154h147l101 -154h-102l-72 79l-72 -79h-102z" />
    <glyph glyph-name="wcircumflex" unicode="&#x175;" horiz-adv-x="830" 
d="M363 499h104l93 -295l89 309h164l-40 -117l-143 -396h-127l-88 291l-88 -291h-127l-143 396l-40 117h164l89 -309zM236 577l105 173h147l106 -173h-105l-74 92l-74 -92h-105z" />
    <glyph glyph-name="Ycircumflex" unicode="&#x176;" horiz-adv-x="729" 
d="M198 700l166 -273h1l166 273h180v-20l-269 -393v-287h-155v285l-269 395v20h180zM190 750l100 154h147l101 -154h-102l-72 79l-72 -79h-102z" />
    <glyph glyph-name="ycircumflex" unicode="&#x177;" 
d="M179 513l122 -321l122 321h164l-332 -747h-150l117 277l-211 470h168zM114 577l105 173h147l106 -173h-105l-74 92l-74 -92h-105z" />
    <glyph glyph-name="Ydieresis" unicode="&#x178;" horiz-adv-x="729" 
d="M198 700l166 -273h1l166 273h180v-20l-269 -393v-287h-155v285l-269 395v20h180zM155 826c0 45 34 75 85 75c49 0 85 -30 85 -75c0 -44 -36 -73 -85 -73c-51 0 -85 29 -85 73zM403 826c0 45 35 75 84 75s86 -30 86 -75c0 -44 -37 -73 -86 -73s-84 29 -84 73z" />
    <glyph glyph-name="Zacute" unicode="&#x179;" horiz-adv-x="672" 
d="M641 0h-612v100l379 477h-350v123h558v-101l-382 -476h407v-123zM244 750l87 154h157l-136 -154h-108z" />
    <glyph glyph-name="zacute" unicode="&#x17a;" horiz-adv-x="585" 
d="M249 119h304v-119h-521v87l288 309h-274v117h490v-88zM207 577l99 173h157l-148 -173h-108z" />
    <glyph glyph-name="Zdotaccent" unicode="&#x17b;" horiz-adv-x="672" 
d="M641 0h-612v100l379 477h-350v123h558v-101l-382 -476h407v-123zM238 829c0 45 36 75 87 75c49 0 87 -30 87 -75c0 -44 -38 -73 -87 -73c-51 0 -87 29 -87 73z" />
    <glyph glyph-name="zdotaccent" unicode="&#x17c;" horiz-adv-x="585" 
d="M249 119h304v-119h-521v87l288 309h-274v117h490v-88zM206 664c0 47 38 81 87 81c48 0 87 -36 87 -81s-39 -79 -87 -79c-49 0 -87 34 -87 79z" />
    <glyph glyph-name="Zcaron" unicode="&#x17d;" horiz-adv-x="672" 
d="M641 0h-612v100l379 477h-350v123h558v-101l-382 -476h407v-123zM513 904l-101 -154h-147l-100 154h102l72 -79l72 79h102z" />
    <glyph glyph-name="zcaron" unicode="&#x17e;" horiz-adv-x="585" 
d="M249 119h304v-119h-521v87l288 309h-274v117h490v-88zM474 750l-106 -173h-147l-105 173h105l74 -92l74 92h105z" />
    <glyph glyph-name="longs" unicode="&#x17f;" horiz-adv-x="335" 
d="M250 567v-567h-149v396h-72v113h72v34c0 69 17 118 50 147s76 44 128 44c112 0 164 -68 164 -153c0 -12 -2 -21 -5 -28h-115c3 3 4 8 4 17c0 30 -13 45 -39 45c-25 0 -38 -16 -38 -48z" />
    <glyph glyph-name="florin" unicode="&#x192;" horiz-adv-x="420" 
d="M378 305h-115v-359c0 -69 -17 -118 -50 -147s-76 -44 -128 -44c-46 0 -83 7 -111 22l48 109c13 -8 27 -12 44 -12c32 0 48 16 48 48v383h-72v113h72v125c0 69 17 118 50 147s76 44 128 44c46 0 83 -7 111 -22l-48 -109c-13 8 -27 12 -44 12c-32 0 -48 -16 -48 -48v-149
h115v-113z" />
    <glyph glyph-name="Aringacute" unicode="&#x1fa;" horiz-adv-x="705" 
d="M428 697l273 -697h-162l-50 131v-2h-275v2l-48 -131h-160l268 695c-31 19 -47 47 -47 86c0 49 23 82 70 97l53 103h132l-82 -102c49 -16 74 -49 74 -98c0 -37 -15 -65 -46 -84zM445 256l-93 280l-96 -280h189zM296 781c0 -27 18 -41 54 -41s54 14 54 41s-18 40 -54 40
s-54 -13 -54 -40z" />
    <glyph glyph-name="aringacute" unicode="&#x1fb;" horiz-adv-x="658" 
d="M445 443v70h149v-513h-149v75c-40 -57 -94 -86 -161 -86c-76 0 -137 26 -182 77s-68 116 -68 193c0 75 22 138 65 189c44 51 105 76 182 76c67 0 128 -32 164 -81zM183 258c0 -84 52 -148 132 -148c77 0 134 51 134 140c0 93 -55 153 -138 153c-79 0 -128 -62 -128 -145z
M274 779l55 112h132l-84 -111c49 -16 74 -49 74 -98c0 -65 -52 -104 -124 -104c-71 0 -123 39 -123 104c0 49 23 82 70 97zM273 682c0 -27 18 -41 54 -41s54 14 54 41s-18 40 -54 40s-54 -13 -54 -40z" />
    <glyph glyph-name="AEacute" unicode="&#x1fc;" horiz-adv-x="911" 
d="M365 700h499v-123h-280v-183h239v-123h-239v-148h280v-123h-435v262h-135c-11 -21 -34 -66 -71 -135s-59 -111 -67 -127h-163zM429 384v163l-79 -163h79zM462 750l87 154h157l-136 -154h-108z" />
    <glyph glyph-name="aeacute" unicode="&#x1fd;" horiz-adv-x="932" 
d="M408 577l99 173h157l-148 -173h-108zM247 321c41 0 86 -7 136 -21v13c0 27 -11 48 -34 63s-45 23 -68 23c-66 0 -121 -16 -164 -49l-55 94c53 53 129 80 228 80c81 0 141 -25 181 -75c40 50 99 75 176 75c75 0 137 -26 186 -77s74 -126 74 -223h-385
c3 -69 51 -113 152 -113c60 0 91 20 124 61l86 -82c-69 -76 -134 -101 -221 -101c-95 0 -169 29 -223 86c-55 -57 -123 -86 -206 -86c-57 0 -106 15 -146 44c-39 30 -59 72 -59 126c0 48 20 87 61 117s93 45 157 45zM530 314h229c-13 119 -201 123 -229 0zM375 221
c-36 10 -69 15 -99 15c-71 0 -96 -31 -96 -67c0 -35 30 -58 79 -58c53 0 97 15 131 46c-9 23 -14 45 -15 64z" />
    <glyph glyph-name="Oslashacute" unicode="&#x1fe;" horiz-adv-x="805" 
d="M335 750l87 154h157l-136 -154h-108zM244 25l-53 -78l-77 53l51 76c-79 68 -126 167 -126 274c0 99 35 184 106 255s157 106 258 106c57 0 112 -13 164 -39l48 71l77 -53l-48 -71c76 -67 122 -164 122 -269c0 -99 -36 -184 -107 -255s-156 -106 -256 -106
c-56 0 -109 12 -159 36zM192 350c0 -60 19 -110 56 -151l238 353c-26 11 -54 17 -83 17c-59 0 -109 -21 -150 -62s-61 -94 -61 -157zM613 350c0 56 -17 105 -52 146l-236 -351c25 -9 51 -14 78 -14c59 0 108 21 149 62s61 94 61 157z" />
    <glyph glyph-name="oslashacute" unicode="&#x1ff;" horiz-adv-x="628" 
d="M275 577l99 173h157l-148 -173h-108zM32 257c0 78 28 142 83 192c56 50 122 75 199 75c53 0 103 -13 149 -39l55 62l61 -57l-51 -57c45 -49 68 -108 68 -176c0 -78 -28 -142 -83 -193c-55 -50 -122 -75 -199 -75c-53 0 -102 12 -146 37l-56 -63l-61 57l51 57
c-47 50 -70 110 -70 180zM177 257c0 -27 6 -51 19 -73l176 198c-19 9 -38 14 -58 14c-37 0 -70 -13 -97 -40s-40 -60 -40 -99zM451 257c0 26 -6 49 -18 69l-175 -197c17 -8 36 -12 56 -12c37 0 69 13 96 40s41 61 41 100z" />
    <glyph glyph-name="Scommaaccent" unicode="&#x218;" horiz-adv-x="589" 
d="M28 195l138 27c19 -64 61 -96 127 -96c60 0 105 23 105 72c0 31 -20 54 -81 75l-76 26c-119 41 -178 110 -178 208c0 62 22 111 66 148s101 56 170 56c109 0 193 -53 234 -153l-126 -63c-22 53 -58 79 -108 79c-51 0 -85 -21 -85 -65c0 -33 25 -58 75 -75l74 -26
c123 -38 185 -107 186 -207c0 -69 -25 -121 -75 -158c-49 -36 -108 -54 -176 -54c-70 0 -131 19 -183 56c-51 37 -80 87 -87 150zM256 -313l-30 51c47 18 71 42 71 73c-45 -12 -80 19 -80 66c0 43 31 73 78 73c56 0 84 -42 84 -82c0 -92 -41 -152 -123 -181z" />
    <glyph glyph-name="scommaaccent" unicode="&#x219;" horiz-adv-x="481" 
d="M195 -313l-30 51c47 18 71 42 71 73c-45 -12 -80 19 -80 66c0 43 31 73 78 73c56 0 84 -42 84 -82c0 -92 -41 -152 -123 -181zM24 120l108 61c13 -53 60 -77 108 -77c36 0 67 15 67 39c0 17 -13 30 -38 39l-90 38c-56 20 -95 51 -110 82s-18 48 -18 65c0 49 19 88 57 115
c38 28 86 42 144 42c86 0 148 -36 185 -108l-115 -53c-11 33 -35 49 -73 49c-29 0 -57 -17 -57 -42c0 -17 16 -32 48 -44l77 -30c56 -16 96 -44 112 -75s20 -50 20 -73c0 -50 -20 -89 -60 -117s-90 -42 -150 -42c-47 0 -91 10 -131 29c-40 20 -68 54 -84 102z" />
    <glyph glyph-name="uni021A" unicode="&#x21a;" horiz-adv-x="597" 
d="M374 570v-570h-23c38 -31 57 -68 57 -109s-14 -71 -43 -90c-28 -19 -59 -28 -92 -28c-73 0 -129 45 -158 112l76 35c17 -35 38 -53 63 -53c32 0 48 16 48 49c0 37 -18 65 -54 84h-27v570h-197v130h549v-130h-199z" />
    <glyph glyph-name="uni021B" unicode="&#x21b;" horiz-adv-x="458" 
d="M321 -7c33 -30 49 -64 49 -102c0 -41 -14 -71 -43 -90c-28 -19 -59 -28 -92 -28c-73 0 -129 45 -158 112l76 35c17 -35 38 -53 63 -53c32 0 48 16 48 49c0 12 -4 27 -12 45s-21 30 -39 35c-76 18 -114 76 -114 174v226h-77v117h88l23 126h115v-126h142v-117h-142v-240
c0 -30 13 -45 38 -45c26 0 39 16 39 48c0 17 -2 31 -7 44h118c8 -17 12 -37 12 -61c0 -72 -43 -134 -127 -149z" />
    <glyph glyph-name="circumflex" unicode="&#x2c6;" horiz-adv-x="648" 
d="M145 577l105 173h147l106 -173h-105l-74 92l-74 -92h-105z" />
    <glyph glyph-name="caron" unicode="&#x2c7;" horiz-adv-x="648" 
d="M503 750l-106 -173h-147l-105 173h105l74 -92l74 92h105z" />
    <glyph glyph-name="uni02C9" unicode="&#x2c9;" horiz-adv-x="515" 
d="M100 604v103h315v-103h-315z" />
    <glyph glyph-name="breve" unicode="&#x2d8;" horiz-adv-x="474" 
d="M295 750l94 -10c-5 -64 -30 -110 -63 -131s-62 -29 -97 -29s-64 8 -97 29s-58 67 -63 131l94 10c4 -50 26 -75 66 -75s62 25 66 75z" />
    <glyph glyph-name="dotaccent" unicode="&#x2d9;" horiz-adv-x="374" 
d="M100 664c0 47 38 81 87 81c48 0 87 -36 87 -81s-39 -79 -87 -79c-49 0 -87 34 -87 79z" />
    <glyph glyph-name="ring" unicode="&#x2da;" horiz-adv-x="447" 
d="M100 682c0 68 54 116 123 116c71 0 124 -48 124 -116c0 -67 -53 -115 -124 -115c-69 0 -123 48 -123 115zM184 719c-20 -19 -20 -55 0 -75c21 -19 57 -19 77 0c21 20 21 56 1 75s-58 19 -78 0z" />
    <glyph glyph-name="ogonek" unicode="&#x2db;" horiz-adv-x="455" 
d="M183 30h77v-20c-21 -7 -39 -17 -52 -31c-25 -28 -27 -46 -27 -63c0 -33 16 -49 48 -49c25 0 46 18 63 53l76 -35c-29 -67 -85 -112 -158 -112c-33 0 -64 9 -93 28c-28 19 -42 49 -42 90c0 49 35 108 108 139z" />
    <glyph glyph-name="tilde" unicode="&#x2dc;" horiz-adv-x="496" 
d="M364 738l75 -22c-23 -81 -54 -122 -115 -122c-21 0 -48 6 -79 17s-51 17 -60 17c-27 0 -38 -12 -53 -43l-75 22c23 81 54 122 115 122c21 0 48 -6 79 -17s51 -17 60 -17c27 0 38 12 53 43z" />
    <glyph glyph-name="hungarumlaut" unicode="&#x2dd;" horiz-adv-x="581" 
d="M102 577l95 173h110l-113 -173h-92zM259 577l110 173h110l-124 -173h-96z" />
    <glyph glyph-name="uni0394" unicode="&#x394;" horiz-adv-x="786" 
d="M743 0h-703l279 700h158zM540 123l-144 407l-150 -407h294z" />
    <glyph glyph-name="uni03A9" unicode="&#x3a9;" horiz-adv-x="812" 
d="M202 365c0 -56 16 -106 49 -151s77 -76 132 -94v-120h-325v123h131c-37 15 -70 47 -99 95c-28 49 -42 98 -42 149c0 97 33 178 100 244s153 99 258 99s191 -33 258 -99s100 -147 100 -244c0 -51 -14 -100 -43 -149c-28 -48 -61 -80 -98 -95h131v-123h-325v120
c55 18 99 49 132 94s49 95 49 151c0 65 -19 118 -58 158c-38 41 -87 61 -146 61s-108 -20 -147 -61c-38 -40 -57 -93 -57 -158z" />
    <glyph glyph-name="uni03BC" unicode="&#x3bc;" horiz-adv-x="621" 
d="M204 -164h-139v677h149v-276c0 -83 32 -125 95 -125c65 0 98 50 98 126v275h149v-513h-149v70c-39 -54 -92 -81 -159 -81c-12 0 -27 1 -44 4v-157z" />
    <glyph glyph-name="pi" unicode="&#x3c0;" horiz-adv-x="682" 
d="M317 170v227h-63v-397h-148v397h-78v116h544v-116h-106v-241c0 -30 13 -45 38 -45c26 0 39 16 39 48c0 17 -2 31 -7 44h118c8 -17 12 -37 12 -61c0 -84 -58 -153 -171 -153c-119 0 -178 60 -178 181z" />
    <glyph glyph-name="Wgrave" unicode="&#x1e80;" horiz-adv-x="996" 
d="M441 677h115l128 -406l131 429h158l-220 -700h-123l-132 424l-132 -424h-123l-220 700h158l131 -429zM455 750l-136 154h157l87 -154h-108z" />
    <glyph glyph-name="wgrave" unicode="&#x1e81;" horiz-adv-x="830" 
d="M363 499h104l93 -295l89 309h164l-40 -117l-143 -396h-127l-88 291l-88 -291h-127l-143 396l-40 117h164l89 -309zM354 577l-148 173h157l99 -173h-108z" />
    <glyph glyph-name="Wacute" unicode="&#x1e82;" horiz-adv-x="996" 
d="M441 677h115l128 -406l131 429h158l-220 -700h-123l-132 424l-132 -424h-123l-220 700h158l131 -429zM430 750l87 154h157l-136 -154h-108z" />
    <glyph glyph-name="wacute" unicode="&#x1e83;" horiz-adv-x="830" 
d="M363 499h104l93 -295l89 309h164l-40 -117l-143 -396h-127l-88 291l-88 -291h-127l-143 396l-40 117h164l89 -309zM358 577l99 173h157l-148 -173h-108z" />
    <glyph glyph-name="Wdieresis" unicode="&#x1e84;" horiz-adv-x="996" 
d="M441 677h115l128 -406l131 429h158l-220 -700h-123l-132 424l-132 -424h-123l-220 700h158l131 -429zM289 826c0 45 34 75 85 75c49 0 85 -30 85 -75c0 -44 -36 -73 -85 -73c-51 0 -85 29 -85 73zM537 826c0 45 35 75 84 75s86 -30 86 -75c0 -44 -37 -73 -86 -73
s-84 29 -84 73z" />
    <glyph glyph-name="wdieresis" unicode="&#x1e85;" horiz-adv-x="830" 
d="M363 499h104l93 -295l89 309h164l-40 -117l-143 -396h-127l-88 291l-88 -291h-127l-143 396l-40 117h164l89 -309zM204 664c0 47 38 81 87 81c48 0 87 -36 87 -81s-39 -79 -87 -79c-49 0 -87 34 -87 79zM452 664c0 47 37 81 86 81s88 -36 88 -81s-39 -79 -88 -79
s-86 34 -86 79z" />
    <glyph glyph-name="Ygrave" unicode="&#x1ef2;" horiz-adv-x="729" 
d="M198 700l166 -273h1l166 273h180v-20l-269 -393v-287h-155v285l-269 395v20h180zM341 750l-136 154h157l87 -154h-108z" />
    <glyph glyph-name="ygrave" unicode="&#x1ef3;" 
d="M179 513l122 -321l122 321h164l-332 -747h-150l117 277l-211 470h168zM272 577l-148 173h157l99 -173h-108z" />
    <glyph glyph-name="thinspace" unicode="&#x2009;" horiz-adv-x="17" 
 />
    <glyph glyph-name="endash" unicode="&#x2013;" horiz-adv-x="587" 
d="M527 249h-466v120h466v-120z" />
    <glyph glyph-name="emdash" unicode="&#x2014;" horiz-adv-x="800" 
d="M740 249h-679v120h679v-120z" />
    <glyph glyph-name="quoteleft" unicode="&#x2018;" horiz-adv-x="257" 
d="M174 722l33 -55c-49 -17 -73 -47 -73 -90c41 1 76 -36 77 -73c3 -45 -29 -81 -85 -81c-30 0 -52 10 -65 31s-19 43 -19 66c0 93 43 174 132 202z" />
    <glyph glyph-name="quoteright" unicode="&#x2019;" horiz-adv-x="254" 
d="M87 424l-33 55c49 17 73 47 73 90c-41 -1 -76 36 -77 73c-3 45 29 81 85 81c30 0 51 -11 64 -32s20 -42 20 -65c0 -93 -43 -174 -132 -202z" />
    <glyph glyph-name="quotesinglbase" unicode="&#x201a;" horiz-adv-x="263" 
d="M85 -140l-33 55c49 17 73 47 73 90c-41 -1 -76 36 -77 73c-3 45 29 81 85 81c30 0 51 -11 64 -32s20 -42 20 -65c0 -93 -43 -174 -132 -202z" />
    <glyph glyph-name="quotedblleft" unicode="&#x201c;" horiz-adv-x="511" 
d="M428 722l33 -55c-49 -17 -73 -47 -73 -90c41 1 76 -36 77 -73c3 -45 -29 -81 -85 -81c-30 0 -52 10 -65 31s-19 43 -19 66c0 93 43 174 132 202zM174 722l33 -55c-49 -17 -73 -47 -73 -90c41 1 76 -36 77 -73c3 -45 -29 -81 -85 -81c-30 0 -52 10 -65 31s-19 43 -19 66
c0 93 43 174 132 202z" />
    <glyph glyph-name="quotedblright" unicode="&#x201d;" horiz-adv-x="508" 
d="M87 424l-33 55c49 17 73 47 73 90c-41 -1 -76 36 -77 73c-3 45 29 81 85 81c30 0 51 -11 64 -32s20 -42 20 -65c0 -93 -43 -174 -132 -202zM341 424l-33 55c49 17 73 47 73 90c-41 -1 -76 36 -77 73c-3 45 29 81 85 81c30 0 51 -11 64 -32s20 -42 20 -65
c0 -93 -43 -174 -132 -202z" />
    <glyph glyph-name="quotedblbase" unicode="&#x201e;" horiz-adv-x="517" 
d="M85 -140l-33 55c49 17 73 47 73 90c-41 -1 -76 36 -77 73c-3 45 29 81 85 81c30 0 51 -11 64 -32s20 -42 20 -65c0 -93 -43 -174 -132 -202zM339 -140l-33 55c49 17 73 47 73 90c-41 -1 -76 36 -77 73c-3 45 29 81 85 81c30 0 51 -11 64 -32s20 -42 20 -65
c0 -93 -43 -174 -132 -202z" />
    <glyph glyph-name="dagger" unicode="&#x2020;" horiz-adv-x="556" 
d="M526 415h-184v-558h-129v558h-183v113h183v233h129v-233h184v-113z" />
    <glyph glyph-name="daggerdbl" unicode="&#x2021;" horiz-adv-x="576" 
d="M536 215v-113h-184v-245h-129v245h-183v113h183v200h-183v113h183v233h129v-233h184v-113h-184v-200h184z" />
    <glyph glyph-name="bullet" unicode="&#x2022;" horiz-adv-x="403" 
d="M67 255c0 37 13 69 38 95c25 27 57 40 96 40s71 -13 96 -40c26 -26 39 -58 39 -95c0 -38 -13 -70 -39 -97c-25 -26 -57 -39 -96 -39s-72 13 -97 39s-37 58 -37 97z" />
    <glyph glyph-name="ellipsis" unicode="&#x2026;" horiz-adv-x="890" 
d="M45 75c0 51 41 88 94 88s95 -39 95 -88s-42 -86 -95 -86s-94 37 -94 86zM351 75c0 51 41 88 94 88s95 -39 95 -88s-42 -86 -95 -86s-94 37 -94 86zM657 75c0 51 41 88 94 88s95 -39 95 -88s-42 -86 -95 -86s-94 37 -94 86z" />
    <glyph glyph-name="perthousand" unicode="&#x2030;" horiz-adv-x="1457" 
d="M352 0h-106l389 700h105zM31 523c0 53 19 98 56 134c38 36 85 54 140 54c56 0 103 -18 140 -54s56 -81 56 -134s-19 -97 -56 -133s-84 -54 -140 -54c-55 0 -102 18 -140 54c-37 36 -56 80 -56 133zM145 523c0 -51 38 -87 82 -87c47 0 84 35 84 87s-37 89 -84 89
c-44 0 -82 -37 -82 -89zM577 176c0 53 19 98 56 134c38 36 85 54 140 54c56 0 103 -18 140 -54s56 -81 56 -134s-19 -97 -56 -133s-84 -54 -140 -54c-55 0 -102 18 -140 54c-37 36 -56 80 -56 133zM691 176c0 -51 38 -87 82 -87c47 0 84 35 84 87s-37 89 -84 89
c-44 0 -82 -37 -82 -89zM1034 176c0 53 19 98 56 134c38 36 85 54 140 54c56 0 103 -18 140 -54s56 -81 56 -134s-19 -97 -56 -133s-84 -54 -140 -54c-55 0 -102 18 -140 54c-37 36 -56 80 -56 133zM1148 176c0 -51 38 -87 82 -87c47 0 84 35 84 87s-37 89 -84 89
c-44 0 -82 -37 -82 -89z" />
    <glyph glyph-name="guilsinglleft" unicode="&#x2039;" horiz-adv-x="356" 
d="M34 287v28l199 229l84 -76l-144 -167l143 -165l-83 -77z" />
    <glyph glyph-name="guilsinglright" unicode="&#x203a;" horiz-adv-x="356" 
d="M39 468l84 76l199 -229v-28l-199 -228l-83 77l143 165z" />
    <glyph glyph-name="fraction" unicode="&#x2044;" horiz-adv-x="150" 
d="M305 735h85l-547 -774h-84z" />
    <glyph glyph-name="zerosuperior" unicode="&#x2070;" horiz-adv-x="368" 
d="M343 650c0 -51 -15 -94 -44 -130s-68 -54 -116 -54s-86 18 -115 53c-29 36 -43 80 -43 131s14 95 43 130s67 53 115 53s87 -18 116 -53s44 -79 44 -130zM251 650c0 61 -27 105 -68 105c-40 0 -66 -44 -66 -105c0 -60 26 -106 66 -106c41 0 68 46 68 106z" />
    <glyph glyph-name="foursuperior" unicode="&#x2074;" horiz-adv-x="360" 
d="M185 726l-77 -92h77v92zM180 476v87h-168v49l172 212h90v-190h69v-71h-69v-87h-94z" />
    <glyph glyph-name="fivesuperior" unicode="&#x2075;" horiz-adv-x="326" 
d="M144 537c43 0 64 23 64 54c0 27 -22 54 -59 54c-23 0 -43 -5 -60 -16l-52 23l9 167h227v-73h-153l-3 -51c17 9 37 13 62 13c34 0 63 -12 86 -35c24 -23 36 -50 36 -82c0 -76 -57 -127 -150 -127c-56 0 -100 14 -131 42l44 56c25 -17 51 -25 80 -25z" />
    <glyph glyph-name="sixsuperior" unicode="&#x2076;" horiz-adv-x="345" 
d="M190 758c-43 0 -74 -29 -75 -82h3c17 20 41 30 74 30s63 -10 88 -30c26 -19 39 -48 39 -85c0 -35 -14 -65 -41 -88s-60 -35 -101 -35c-95 0 -151 71 -151 176c0 53 14 98 41 133c28 35 68 53 119 53c54 0 95 -17 122 -50l-51 -48c-17 17 -40 26 -67 26zM175 645
c-74 0 -72 -104 0 -104c33 0 56 19 56 51c0 31 -21 53 -56 53z" />
    <glyph glyph-name="sevensuperior" unicode="&#x2077;" horiz-adv-x="299" 
d="M182 751h-162v74h270v-53l-154 -295h-100z" />
    <glyph glyph-name="eightsuperior" unicode="&#x2078;" horiz-adv-x="350" 
d="M224 722c0 51 -98 51 -98 0c0 -20 20 -39 49 -39s49 19 49 39zM112 583c0 -24 30 -45 63 -45s63 21 63 45c0 23 -26 46 -63 46s-63 -23 -63 -46zM25 584c0 29 25 65 60 76c-27 12 -44 38 -44 62c0 64 55 106 134 106s134 -42 134 -106c0 -24 -17 -50 -44 -62
c35 -11 60 -47 60 -76c0 -72 -63 -118 -150 -118s-150 46 -150 118z" />
    <glyph glyph-name="ninesuperior" unicode="&#x2079;" horiz-adv-x="344" 
d="M154 538c43 0 74 29 75 82h-3c-17 -20 -41 -30 -74 -30s-63 10 -89 29c-25 20 -38 49 -38 86c0 35 13 65 40 88s61 35 102 35c95 0 151 -71 151 -176c0 -53 -14 -98 -42 -133c-27 -35 -67 -53 -118 -53c-54 0 -95 17 -122 50l51 48c17 -17 40 -26 67 -26zM169 651
c74 0 72 104 0 104c-33 0 -56 -19 -56 -51c0 -31 21 -53 56 -53z" />
    <glyph glyph-name="parenleftsuperior" unicode="&#x207d;" horiz-adv-x="216" 
d="M188 431l-55 -35c-23 23 -45 59 -68 106s-34 97 -34 150s11 103 34 150c23 48 45 84 68 107l55 -36c-17 -23 -33 -56 -48 -97s-23 -82 -23 -124s8 -84 23 -125s31 -73 48 -96z" />
    <glyph glyph-name="parenrightsuperior" unicode="&#x207e;" horiz-adv-x="216" 
d="M28 873l55 36c23 -23 45 -59 68 -107c23 -47 34 -97 34 -150s-11 -103 -34 -150s-45 -83 -68 -106l-55 35c17 23 33 55 48 96s23 83 23 125s-8 83 -23 124s-31 74 -48 97z" />
    <glyph glyph-name="zeroinferior" unicode="&#x2080;" horiz-adv-x="368" 
d="M343 31c0 -51 -15 -94 -44 -130s-68 -54 -116 -54s-86 18 -115 54c-29 35 -43 79 -43 130s14 95 43 130s67 53 115 53s87 -18 116 -53s44 -79 44 -130zM251 31c0 61 -27 105 -68 105c-40 0 -66 -44 -66 -105c0 -60 26 -106 66 -106c41 0 68 46 68 106z" />
    <glyph glyph-name="oneinferior" unicode="&#x2081;" horiz-adv-x="242" 
d="M109 108l-79 -32l-24 68l144 62h53v-348h-94v250z" />
    <glyph glyph-name="twoinferior" unicode="&#x2082;" horiz-adv-x="325" 
d="M216 -24l-49 -46c9 1 21 2 38 2h91v-74h-261l-9 53l131 124c27 23 41 45 41 65c0 24 -17 39 -42 39c-32 0 -47 -28 -47 -53l-84 1c0 31 10 60 31 87s55 40 100 40c80 0 133 -45 133 -114c0 -41 -24 -83 -73 -124z" />
    <glyph glyph-name="threeinferior" unicode="&#x2083;" horiz-adv-x="329" 
d="M150 -76c32 0 59 27 59 52c0 28 -24 49 -53 49c-12 0 -25 -2 -39 -7l-32 44l85 71h-137v73h256v-51l-86 -78c57 -7 100 -49 100 -100c0 -35 -14 -64 -42 -89s-65 -37 -111 -37c-56 0 -100 14 -131 42l44 56c25 -17 54 -25 87 -25z" />
    <glyph glyph-name="fourinferior" unicode="&#x2084;" horiz-adv-x="360" 
d="M185 108l-77 -92h77v92zM180 -142v87h-168v49l172 212h90v-190h69v-71h-69v-87h-94z" />
    <glyph glyph-name="fiveinferior" unicode="&#x2085;" horiz-adv-x="326" 
d="M145 -77c43 0 64 23 64 54c0 27 -22 54 -59 54c-23 0 -43 -5 -60 -16l-52 23l9 167h227v-73h-153l-3 -51c17 9 37 13 62 13c34 0 63 -12 86 -35c24 -23 36 -50 36 -82c0 -76 -57 -127 -150 -127c-56 0 -100 14 -131 42l44 56c25 -17 51 -25 80 -25z" />
    <glyph glyph-name="sixinferior" unicode="&#x2086;" horiz-adv-x="345" 
d="M190 137c-43 0 -74 -29 -75 -82h3c17 20 41 30 74 30s63 -10 88 -30c26 -19 39 -48 39 -85c0 -35 -14 -65 -41 -88s-60 -35 -101 -35c-95 0 -151 71 -151 176c0 53 14 98 41 133c28 35 68 53 119 53c54 0 95 -17 122 -50l-51 -48c-17 17 -40 26 -67 26zM175 24
c-74 0 -72 -104 0 -104c33 0 56 20 56 51s-21 53 -56 53z" />
    <glyph glyph-name="seveninferior" unicode="&#x2087;" horiz-adv-x="300" 
d="M182 132h-162v74h270v-53l-154 -295h-100z" />
    <glyph glyph-name="eightinferior" unicode="&#x2088;" horiz-adv-x="350" 
d="M224 103c0 51 -98 51 -98 0c0 -20 20 -39 49 -39s49 19 49 39zM112 -36c0 -24 30 -45 63 -45s63 21 63 45c0 23 -26 46 -63 46s-63 -23 -63 -46zM25 -35c0 29 25 65 60 76c-27 12 -44 38 -44 62c0 64 55 106 134 106s134 -42 134 -106c0 -24 -17 -50 -44 -62
c35 -11 60 -47 60 -76c0 -72 -63 -118 -150 -118s-150 46 -150 118z" />
    <glyph glyph-name="nineinferior" unicode="&#x2089;" horiz-adv-x="345" 
d="M155 -81c43 0 74 29 75 82h-3c-17 -20 -41 -30 -74 -30s-63 10 -89 29c-25 20 -38 49 -38 86c0 35 13 65 40 88s61 35 102 35c95 0 151 -71 151 -176c0 -53 -14 -98 -42 -133c-27 -35 -67 -53 -118 -53c-54 0 -95 17 -122 50l51 48c17 -17 40 -26 67 -26zM170 32
c74 0 72 104 0 104c-33 0 -56 -20 -56 -51s21 -53 56 -53z" />
    <glyph glyph-name="parenleftinferior" unicode="&#x208d;" horiz-adv-x="216" 
d="M188 -186l-55 -35c-23 23 -45 59 -68 106s-34 97 -34 150s11 103 34 150c23 48 45 84 68 107l55 -36c-17 -23 -33 -56 -48 -97s-23 -82 -23 -124s8 -83 23 -124s31 -74 48 -97z" />
    <glyph glyph-name="parenrightinferior" unicode="&#x208e;" horiz-adv-x="216" 
d="M28 256l55 36c23 -23 45 -59 68 -107c23 -47 34 -97 34 -150s-11 -103 -34 -150s-45 -83 -68 -106l-55 35c17 23 33 56 48 97s23 82 23 124s-8 83 -23 124s-31 74 -48 97z" />
    <glyph glyph-name="lira" unicode="&#x20a4;" horiz-adv-x="641" 
d="M477 285v-72h-143c-2 -33 -19 -63 -50 -90v-8c35 5 82 8 139 8h180v-123h-562v123c59 0 98 8 118 25s30 39 31 65h-129v72h120l-22 54h-98v72h71c-11 35 -17 68 -17 97c0 60 23 109 69 146c46 38 104 57 173 57c164 0 228 -116 228 -209h-140c0 47 -31 79 -90 79
c-57 0 -95 -31 -95 -80c0 -25 6 -55 18 -90h199v-72h-172l20 -54h152z" />
    <glyph glyph-name="rupee" unicode="&#x20a8;" horiz-adv-x="699" 
d="M390 442h-341v76h335c-14 35 -40 52 -79 52h-256v130h54h549v-76h-156c25 -29 41 -65 48 -106h108v-76h-106c-9 -87 -63 -157 -146 -182c21 -85 52 -134 116 -134c26 0 50 10 71 30l55 -107c-27 -21 -51 -36 -73 -46c-22 -9 -50 -14 -83 -14c-63 0 -117 31 -149 70
c-16 19 -30 42 -41 67c-23 51 -31 88 -35 123h-212v124h256c44 0 74 26 85 69z" />
    <glyph glyph-name="uni20A9" unicode="&#x20a9;" horiz-adv-x="1059" 
d="M138 433h-93v76h69l-60 191h158l58 -191h148l54 168h115l53 -168h147l59 191h158l-60 -191h70v-76h-94l-42 -132h136v-76h-160l-70 -225h-123l-70 225h-124l-70 -225h-123l-71 225h-158v76h134zM394 433h-101l50 -162zM764 433h-100l51 -162zM567 301l-38 123l-39 -123
h77z" />
    <glyph glyph-name="afii57636" unicode="&#x20aa;" horiz-adv-x="805" 
d="M359 408h-169v-408h-130v538h299c61 0 111 -19 149 -58c38 -38 57 -85 57 -142v-143h-130v143c0 40 -31 70 -76 70zM446 130h169v408h130v-538h-299c-61 0 -111 19 -149 57c-38 39 -57 86 -57 143v143h130v-143c0 -40 31 -70 76 -70z" />
    <glyph glyph-name="Euro" unicode="&#x20ac;" horiz-adv-x="705" 
d="M140 380h-103v73h110c16 77 53 140 111 187c59 47 134 71 226 71c66 0 129 -18 188 -53l-46 -121c-44 25 -90 38 -138 38c-93 0 -154 -41 -183 -122h288l-28 -73h-276c-1 -18 -1 -38 1 -61h252l-28 -73h-207c38 -114 177 -152 327 -95v-132c-40 -20 -87 -30 -140 -30
c-95 0 -172 24 -233 71c-60 47 -98 109 -113 186h-111v73h104c-3 19 -3 40 -1 61z" />
    <glyph glyph-name="uni2113" unicode="&#x2113;" horiz-adv-x="491" 
d="M457 536c0 -83 -20 -158 -59 -223s-89 -110 -152 -136c-3 -49 11 -74 42 -74c32 0 44 22 35 66h114c8 -22 11 -36 9 -43c0 -80 -61 -137 -165 -137c-114 0 -175 60 -184 181c-29 -3 -51 -4 -68 -1v92c30 -1 52 2 67 8v267c1 166 126 187 185 187c31 0 56 -3 89 -19
c48 -20 87 -70 87 -168zM340 545c0 44 -26 64 -49 64c-25 0 -47 -19 -47 -64v-245c31 19 55 51 71 96c17 45 25 95 25 149z" />
    <glyph glyph-name="afii61352" unicode="&#x2116;" horiz-adv-x="1112" 
d="M221 426v-425h-155v699h119l308 -422v422h155v-700h-118zM731 552c0 48 16 88 49 121s74 50 123 50s90 -17 123 -50s49 -73 49 -121c0 -47 -16 -87 -49 -120s-74 -49 -123 -49s-90 16 -123 49s-49 73 -49 120zM821 552c0 -48 33 -83 82 -83s82 35 82 83
c0 49 -33 85 -82 85s-82 -36 -82 -85zM1065 258h-324v74h324v-74z" />
    <glyph glyph-name="uni2117" unicode="&#x2117;" horiz-adv-x="786" 
d="M425 362c43 0 43 91 0 91h-57v-91h57zM368 283v-119h-97v367h164c76 0 121 -55 121 -124s-45 -124 -121 -124h-67zM142 94c-68 71 -102 156 -102 256s34 185 102 255c69 71 152 106 251 106s182 -35 250 -106c69 -70 103 -155 103 -255s-34 -185 -103 -256
c-68 -70 -151 -105 -250 -105s-182 35 -251 105zM193 554c-54 -56 -81 -124 -81 -204s27 -148 81 -205c55 -56 121 -84 200 -84s145 28 199 84c55 57 82 125 82 205s-27 148 -82 204c-54 57 -120 85 -199 85s-145 -28 -200 -85z" />
    <glyph glyph-name="trademark" unicode="&#x2122;" horiz-adv-x="906" 
d="M35 635v88h349v-88h-126v-286h-97v286h-126zM812 723l34 -374h-95l-17 184l-78 -171h-70l-78 171l-17 -184h-97l37 374h86l104 -246l102 246h89z" />
    <glyph glyph-name="Omega" unicode="&#x2126;" horiz-adv-x="812" 
d="M202 365c0 -56 16 -106 49 -151s77 -76 132 -94v-120h-325v123h131c-37 15 -70 47 -99 95c-28 49 -42 98 -42 149c0 97 33 178 100 244s153 99 258 99s191 -33 258 -99s100 -147 100 -244c0 -51 -14 -100 -43 -149c-28 -48 -61 -80 -98 -95h131v-123h-325v120
c55 18 99 49 132 94s49 95 49 151c0 65 -19 118 -58 158c-38 41 -87 61 -146 61s-108 -20 -147 -61c-38 -40 -57 -93 -57 -158z" />
    <glyph glyph-name="estimated" unicode="&#x212e;" horiz-adv-x="621" 
d="M589 282h-429v-193c44 -42 95 -63 152 -63c101 0 157 46 210 127l31 -19c-59 -91 -125 -141 -241 -141c-79 0 -144 28 -195 84c-51 57 -76 125 -76 206c0 82 25 151 75 206c50 56 117 84 200 84s149 -28 198 -85c50 -56 75 -125 75 -206zM160 315h309v163
c-45 41 -96 62 -153 62c-64 0 -116 -21 -156 -62v-163z" />
    <glyph glyph-name="arrowleft" unicode="&#x2190;" horiz-adv-x="672" 
d="M247 321h344v-120h-340l89 -103l-83 -77l-199 228v28l199 229l84 -76z" />
    <glyph glyph-name="arrowup" unicode="&#x2191;" horiz-adv-x="581" 
d="M348 344v-344h-120v340l-103 -89l-77 83l228 199h28l229 -199l-76 -84z" />
    <glyph glyph-name="arrowright" unicode="&#x2192;" horiz-adv-x="672" 
d="M421 201h-340v120h344l-94 109l84 76l199 -229v-28l-199 -228l-83 77z" />
    <glyph glyph-name="arrowdown" unicode="&#x2193;" horiz-adv-x="581" 
d="M228 193v340h120v-344l109 94l76 -84l-229 -199h-28l-228 199l77 83z" />
    <glyph glyph-name="partialdiff" unicode="&#x2202;" horiz-adv-x="667" 
d="M269 559l-52 113c51 26 103 39 158 39c121 0 190 -45 225 -114c36 -67 42 -149 26 -250c-35 -232 -148 -358 -343 -358c-83 0 -146 20 -188 61c-41 41 -62 92 -62 153c0 15 1 28 3 39c13 66 46 118 100 157s115 59 182 59c64 0 118 -16 162 -49c3 10 5 20 6 31
c11 95 -40 144 -123 144c-31 -1 -63 -10 -94 -25zM318 334c-64 0 -121 -39 -130 -103c-11 -72 35 -112 108 -112c41 0 78 15 110 46s51 71 56 118c-33 34 -81 51 -144 51z" />
    <glyph glyph-name="increment" unicode="&#x2206;" horiz-adv-x="756" 
d="M729 0h-703l279 700h158zM526 123l-144 407l-150 -407h294z" />
    <glyph glyph-name="product" unicode="&#x220f;" horiz-adv-x="753" 
d="M719 580h-99v-722h-153v722h-181v-722h-153v722h-99v120h685v-120z" />
    <glyph glyph-name="summation" unicode="&#x2211;" horiz-adv-x="600" 
d="M35 -142v86l226 333l-216 335v88h493v-123h-306l193 -296l-202 -300h342v-123h-530z" />
    <glyph glyph-name="minus" unicode="&#x2212;" horiz-adv-x="647" 
d="M586 253h-525v120h525v-120z" />
    <glyph glyph-name="uni2219" unicode="&#x2219;" horiz-adv-x="303" 
d="M57 281c0 51 41 88 94 88s95 -39 95 -88s-42 -86 -95 -86s-94 37 -94 86z" />
    <glyph glyph-name="radical" unicode="&#x221a;" horiz-adv-x="566" 
d="M-5 360l195 89l106 -326l149 638h110l-200 -860h-125l-130 384c-16 -6 -37 -14 -64 -23z" />
    <glyph glyph-name="infinity" unicode="&#x221e;" horiz-adv-x="846" 
d="M162 301v-2c0 -43 33 -66 74 -66c26 0 52 13 79 38l33 30l-33 28c-27 25 -53 38 -79 38c-41 0 -74 -23 -74 -66zM803 301v-2c0 -55 -18 -99 -53 -132c-35 -32 -79 -48 -133 -48c-56 0 -111 24 -164 72l-29 28l-28 -28c-48 -48 -104 -72 -168 -72c-53 0 -97 16 -132 49
s-53 77 -53 133c0 55 18 99 53 131c35 33 79 49 132 49c64 0 120 -24 168 -72l28 -28l29 28c53 48 108 72 164 72c54 0 98 -16 133 -49c35 -32 53 -76 53 -131zM688 299v2c0 41 -35 66 -74 66c-25 0 -51 -11 -78 -34l-38 -33l38 -33c28 -23 54 -34 78 -34c39 0 74 25 74 66z
" />
    <glyph glyph-name="integral" unicode="&#x222b;" horiz-adv-x="542" 
d="M346 538v-565c0 -85 -25 -148 -66 -177s-81 -41 -132 -41c-20 0 -45 6 -76 17c-30 11 -56 25 -78 44l35 131c39 -37 81 -54 101 -54c44 0 66 25 66 74v565c0 85 25 148 66 177s81 41 132 41c20 0 45 -6 75 -17c31 -11 57 -25 79 -44l-35 -131c-39 37 -81 54 -101 54
c-44 0 -66 -25 -66 -74z" />
    <glyph glyph-name="approxequal" unicode="&#x2248;" horiz-adv-x="648" 
d="M553 510l41 -99c-33 -46 -80 -69 -143 -69c-30 0 -73 8 -129 23c-55 15 -95 23 -118 23c-49 0 -86 -13 -109 -38l-39 105c31 43 78 65 140 65c33 0 79 -8 136 -24c57 -15 95 -23 113 -23c47 0 83 12 108 37zM552 245l40 -100c-33 -46 -81 -69 -144 -69
c-29 0 -72 8 -128 23c-55 16 -95 24 -118 24c-48 0 -84 -13 -109 -38l-39 104c31 43 78 65 141 65c33 0 78 -8 135 -23s95 -23 113 -23c47 0 84 12 109 37z" />
    <glyph glyph-name="notequal" unicode="&#x2260;" horiz-adv-x="603" 
d="M550 247v-120h-300l-65 -121l-73 40l44 81h-102v120h167l78 145h-245v120h310l63 117l72 -39l-42 -78h93v-120h-158l-78 -145h236z" />
    <glyph glyph-name="lessequal" unicode="&#x2264;" horiz-adv-x="624" 
d="M559 0h-506v112h506v-112zM533 160l-479 180v112l479 180h25v-127l-323 -109l323 -109v-127h-25z" />
    <glyph glyph-name="greaterequal" unicode="&#x2265;" horiz-adv-x="624" 
d="M65 112h506v-112h-506v112zM91 632l479 -180v-112l-479 -180h-25v127l323 109l-323 109v127h25z" />
    <glyph glyph-name="lozenge" unicode="&#x25ca;" horiz-adv-x="603" 
d="M354 701l218 -359l-219 -342h-103l-218 342l217 359h105zM301 146l128 196l-128 207l-127 -208z" />
    <glyph glyph-name="commaaccent" unicode="&#xf6c3;" horiz-adv-x="322" 
d="M119 -313l-30 51c47 18 71 42 71 73c-45 -12 -80 19 -80 66c0 43 31 73 78 73c56 0 84 -42 84 -82c0 -92 -41 -152 -123 -181z" />
    <glyph glyph-name="rupiah" unicode="&#xf6dd;" horiz-adv-x="1360" 
d="M225 570v-197h137c55 0 88 39 88 98c0 60 -33 99 -88 99h-137zM605 470c0 -100 -56 -181 -148 -210c21 -85 52 -134 116 -134c26 0 50 10 71 30l55 -107c-27 -21 -51 -36 -73 -46c-22 -9 -50 -14 -83 -14c-63 0 -117 31 -149 70c-16 19 -30 42 -41 67
c-23 51 -31 88 -35 123h-93v-249h-154v700h311c69 0 124 -22 163 -67c40 -44 60 -98 60 -163zM1177 255c0 84 -52 148 -132 148c-77 0 -134 -51 -134 -140c0 -93 55 -153 138 -153c79 0 128 62 128 145zM915 70v-304h-149v747h149v-75c40 57 94 86 161 86
c76 0 137 -26 182 -77s68 -116 68 -193c0 -75 -22 -138 -66 -189c-43 -51 -104 -76 -181 -76c-67 0 -128 32 -164 81z" />
    <glyph glyph-name="centinferior" unicode="&#xf6df;" horiz-adv-x="306" 
d="M180 166l9 48h32l-10 -53c22 -6 46 -18 72 -36l-41 -58c-15 13 -29 21 -43 24l-22 -120c25 0 46 9 65 26l42 -58c-37 -27 -74 -41 -112 -41h-8l-7 -40h-36l8 44c-65 15 -106 66 -106 130c0 76 60 134 149 134h8zM113 32c0 -25 10 -42 31 -53l21 113
c-29 -5 -52 -31 -52 -60z" />
    <glyph glyph-name="centsuperior" unicode="&#xf6e0;" horiz-adv-x="306" 
d="M180 785l9 48h32l-10 -53c22 -6 46 -18 72 -36l-41 -58c-15 13 -29 21 -43 24l-22 -120c25 0 46 9 65 26l42 -58c-37 -27 -74 -41 -112 -41h-8l-7 -40h-36l8 44c-65 15 -106 66 -106 130c0 76 60 134 149 134h8zM113 651c0 -25 10 -42 31 -53l21 113
c-29 -5 -52 -31 -52 -60z" />
    <glyph glyph-name="commainferior" unicode="&#xf6e1;" horiz-adv-x="188" 
d="M56 -236l-24 33c23 8 48 34 53 51c-21 4 -40 25 -40 42c-1 25 18 47 50 47c37 0 52 -28 52 -55c0 -22 -9 -45 -26 -69c-17 -25 -39 -41 -65 -49z" />
    <glyph glyph-name="commasuperior" unicode="&#xf6e2;" horiz-adv-x="188" 
d="M56 383l-24 33c23 8 48 34 53 51c-21 4 -40 25 -40 42c-1 25 18 47 50 47c37 0 52 -28 52 -55c0 -22 -9 -45 -26 -70c-17 -24 -39 -40 -65 -48z" />
    <glyph glyph-name="dollarinferior" unicode="&#xf6e3;" horiz-adv-x="310" 
d="M173 -175h-25v32c-67 3 -120 43 -127 104l70 15c8 -27 32 -48 57 -52v72l-21 8c-59 21 -89 55 -89 102c0 57 45 96 110 100v32h25v-33c49 -5 84 -31 104 -76l-62 -33c-10 21 -24 35 -42 42v-69l18 -6c65 -23 94 -66 94 -102c0 -63 -49 -99 -112 -103v-33zM120 108
c0 -13 9 -24 28 -31v64c-19 -5 -28 -16 -28 -33zM201 -41c0 11 -9 20 -28 28v-61c19 5 28 16 28 33z" />
    <glyph glyph-name="dollarsuperior" unicode="&#xf6e4;" horiz-adv-x="309" 
d="M172 444h-25v32c-67 3 -120 43 -127 104l70 15c8 -27 32 -48 57 -52v72l-21 8c-59 21 -89 55 -89 102c0 57 45 96 110 100v32h25v-33c49 -5 84 -31 104 -76l-62 -33c-10 21 -24 35 -42 42v-69l18 -6c65 -23 94 -66 94 -102c0 -63 -49 -99 -112 -103v-33zM119 727
c0 -13 9 -24 28 -31v64c-19 -5 -28 -16 -28 -33zM200 578c0 11 -9 20 -28 28v-61c19 5 28 16 28 33z" />
    <glyph glyph-name="hypheninferior" unicode="&#xf6e5;" horiz-adv-x="291" 
d="M251 7h-211v73h211v-73z" />
    <glyph glyph-name="hyphensuperior" unicode="&#xf6e6;" horiz-adv-x="291" 
d="M251 626h-211v73h211v-73z" />
    <glyph glyph-name="periodinferior" unicode="&#xf6e7;" horiz-adv-x="184" 
d="M52 -139c-21 19 -21 51 0 70s59 19 80 0s22 -51 -1 -70c-21 -19 -56 -19 -79 0z" />
    <glyph glyph-name="periodsuperior" unicode="&#xf6e8;" horiz-adv-x="186" 
d="M53 480c-21 19 -21 51 0 70s59 19 80 0s22 -51 -1 -70c-21 -19 -56 -19 -79 0z" />
    <glyph glyph-name="apple" unicode="&#xf8ff;" horiz-adv-x="702" 
d="M443 152h75c0 100 -62 158 -139 169c23 60 47 115 74 165l15 -195h75l-26 334h-73c-43 -81 -75 -148 -94 -203c-17 47 -48 115 -94 203h-73l-26 -334h75l15 195c19 -34 43 -88 74 -163c-83 -11 -149 -67 -149 -171h76c-2 140 198 140 195 0zM602 0h-502v690h502v-690z
M157 82h-12v-39h8v27l9 -27h7l10 28v-28h8v39h-12l-9 -27zM209 83c-13 0 -19 -7 -19 -21c0 -13 6 -20 19 -20c12 0 20 9 20 20c0 14 -7 21 -20 21zM209 49c-7 0 -10 4 -10 13s3 14 10 14s11 -5 11 -14s-4 -13 -11 -13zM237 56h-8c0 -9 6 -14 17 -14s16 4 16 13
c0 5 -4 9 -11 11c-8 2 -12 4 -12 6c0 3 2 4 6 4c5 0 7 -2 7 -6h9c0 9 -5 13 -16 13c-10 0 -15 -4 -15 -12c0 -6 4 -10 13 -11c7 -2 11 -4 11 -6c0 -3 -3 -5 -8 -5c-6 0 -9 2 -9 7zM261 75h12v-32h9v32h12v7h-33v-7zM311 82h-9l-15 -39h9l3 9h14l3 -9h9zM306 72l5 -14h-10z
M347 82h-21v-39h9v15h8c5 0 7 -2 7 -7c0 -4 0 -7 1 -8h9c-1 3 -2 6 -2 9c0 5 -2 8 -6 9v1c5 1 7 4 7 9c0 7 -4 11 -12 11zM344 64h-9v11h9c4 0 6 -2 6 -5c0 -4 -2 -6 -6 -6zM380 82h-17v-39h17c12 0 18 7 18 20s-6 19 -18 19zM379 50h-7v25h6c7 0 11 -4 11 -13
c0 -8 -3 -12 -10 -12zM430 82h-29v-39h30v7h-22v10h19v7h-19v8h21v7zM440 56h-9c0 -9 6 -14 17 -14s16 4 16 13c0 5 -4 9 -11 11c-8 2 -12 4 -12 6c0 3 2 4 6 4c5 0 7 -2 8 -6h8c0 9 -5 13 -16 13c-10 0 -15 -4 -15 -12c0 -6 4 -10 13 -11c7 -2 11 -4 11 -6
c0 -7 -16 -7 -16 2zM475 82h-8v-39h8v39zM508 47l1 -4h6v21h-17v-6h9c-1 -6 -4 -9 -9 -9c-7 0 -11 4 -11 13s4 14 11 14c5 0 7 -2 8 -7h8c-1 9 -7 14 -16 14c-13 0 -20 -7 -20 -21c0 -13 7 -20 20 -20c3 0 7 2 10 5zM527 82h-8v-39h8v26l16 -26h9v39h-8v-26z" />
    <glyph glyph-name="grave.case" horiz-adv-x="550" 
d="M265 750l-136 154h157l87 -154h-108z" />
    <glyph glyph-name="acute.case" horiz-adv-x="550" 
d="M129 750l87 154h157l-136 -154h-108z" />
    <glyph glyph-name="circumflex.case" horiz-adv-x="508" 
d="M80 750l100 154h147l101 -154h-102l-72 79l-72 -79h-102z" />
    <glyph glyph-name="caron.case" horiz-adv-x="508" 
d="M428 904l-101 -154h-147l-100 154h102l72 -79l72 79h102z" />
    <glyph glyph-name="tilde.case" horiz-adv-x="476" 
d="M354 906l75 -22c-23 -81 -54 -122 -115 -122c-21 0 -48 6 -79 17s-51 17 -60 17c-27 0 -38 -12 -53 -43l-75 22c23 81 54 122 115 122c21 0 48 -6 79 -17s51 -17 60 -17c27 0 38 12 53 43z" />
    <glyph glyph-name="dieresis.case" horiz-adv-x="519" 
d="M51 826c0 45 34 75 85 75c49 0 85 -30 85 -75c0 -44 -36 -73 -85 -73c-51 0 -85 29 -85 73zM299 826c0 45 35 75 84 75s86 -30 86 -75c0 -44 -37 -73 -86 -73s-84 29 -84 73z" />
    <glyph glyph-name="macron.case" horiz-adv-x="475" 
d="M80 773v103h315v-103h-315z" />
    <glyph glyph-name="breve.case" horiz-adv-x="480" 
d="M309 916l91 -10c-7 -59 -33 -102 -68 -122c-35 -19 -63 -26 -92 -26s-57 7 -92 26c-35 20 -61 63 -68 122l91 10c8 -91 130 -91 138 0z" />
    <glyph glyph-name="ring.case" horiz-adv-x="407" 
d="M80 857c0 67 52 108 123 108c72 0 124 -41 124 -108s-52 -107 -124 -107c-71 0 -123 42 -123 107zM149 857c0 -29 18 -44 54 -44s54 15 54 44s-18 43 -54 43s-54 -14 -54 -43z" />
    <glyph glyph-name="hungarumlaut.case" horiz-adv-x="526" 
d="M80 760l84 154h110l-102 -154h-92zM237 760l99 154h110l-113 -154h-96z" />
    <glyph glyph-name="dotaccent.case" horiz-adv-x="334" 
d="M80 829c0 45 36 75 87 75c49 0 87 -30 87 -75c0 -44 -38 -73 -87 -73c-51 0 -87 29 -87 73z" />
    <glyph glyph-name="cedilla.case" horiz-adv-x="453" 
d="M188 10v20h77c73 -31 108 -90 108 -139c0 -41 -14 -71 -43 -90c-28 -19 -59 -28 -92 -28c-73 0 -129 45 -158 112l76 35c17 -35 38 -53 63 -53c32 0 48 16 48 49c0 9 -1 18 -4 28c-5 19 -32 53 -75 66z" />
    <glyph glyph-name="ogonek.case" horiz-adv-x="453" 
d="M188 30h77v-20c-21 -7 -39 -17 -52 -31c-25 -28 -27 -46 -27 -63c0 -33 16 -49 48 -49c25 0 46 18 63 53l76 -35c-29 -67 -85 -112 -158 -112c-33 0 -64 9 -93 28c-28 19 -42 49 -42 90c0 49 35 108 108 139z" />
    <glyph glyph-name="uni02C9.case" horiz-adv-x="475" 
d="M80 773v103h315v-103h-315z" />
    <glyph glyph-name="commaaccent.case" horiz-adv-x="322" 
d="M119 -313l-30 51c47 18 71 42 71 73c-45 -12 -80 19 -80 66c0 43 31 73 78 73c56 0 84 -42 84 -82c0 -92 -41 -152 -123 -181z" />
    <glyph glyph-name="bitcoin" horiz-adv-x="648" 
d="M293 767h64v-84c67 -4 122 -22 163 -55c42 -32 63 -74 63 -127c0 -59 -41 -115 -112 -139c41 -8 75 -28 102 -59c28 -31 42 -64 42 -99c0 -57 -23 -103 -69 -138c-45 -34 -106 -51 -183 -51h-6v-85h-64v85h-56v-85h-64v85h-107v669h107v83h64v-83h56v83zM305 299h-80
v-165h138c53 0 92 29 92 72c0 28 -10 50 -31 67s-60 26 -119 26zM225 565v-161h64c89 0 133 30 133 90c0 45 -40 71 -89 71h-108z" />
    <glyph glyph-name="parenleft.case" horiz-adv-x="353" 
d="M331 -110l-95 -55c-25 27 -52 62 -79 107c-27 44 -54 104 -80 180c-25 77 -38 153 -38 228c0 116 32 240 76 328c44 89 85 151 121 188l95 -55c-33 -49 -65 -115 -96 -200c-31 -84 -46 -171 -46 -261s15 -177 46 -261s63 -150 96 -199z" />
    <glyph glyph-name="parenright.case" horiz-adv-x="353" 
d="M22 811l95 55c36 -37 77 -99 121 -188c44 -88 76 -212 76 -328c0 -75 -13 -151 -39 -228c-51 -152 -107 -234 -158 -287l-95 55c33 49 65 115 96 199s46 171 46 261s-15 177 -46 261c-31 85 -63 151 -96 200z" />
    <glyph glyph-name="hyphen.case" horiz-adv-x="479" 
d="M418 289h-357v120h357v-120z" />
    <glyph glyph-name="at.case" horiz-adv-x="1013" 
d="M756 162c75 3 122 74 122 222c0 103 -34 187 -103 253c-68 66 -157 99 -266 99s-199 -37 -271 -112c-72 -74 -108 -166 -108 -277s34 -203 101 -276s154 -110 261 -110c77 0 143 13 200 40l40 -77c-73 -35 -153 -52 -240 -52c-135 0 -244 45 -328 134
c-84 90 -126 204 -126 341s44 251 133 342s202 136 338 136c137 0 248 -41 333 -123s128 -188 128 -318c0 -211 -81 -304 -214 -304c-91 0 -128 39 -136 110c-33 -45 -96 -71 -156 -71c-63 0 -114 22 -154 66s-60 98 -60 162c0 65 20 119 60 162c41 44 93 66 157 66
c61 0 110 -22 146 -66v56h98v-350c0 -35 15 -53 45 -53zM480 207c76 0 132 54 132 138c0 41 -12 75 -37 102s-57 40 -97 40s-72 -13 -95 -40s-35 -60 -35 -100c0 -80 53 -140 132 -140z" />
    <glyph glyph-name="bracketleft.case" horiz-adv-x="407" 
d="M376 -143h-309v984h309v-118h-165v-748h165v-118z" />
    <glyph glyph-name="bracketright.case" horiz-adv-x="407" 
d="M31 842h309v-984h-309v118h165v748h-165v118z" />
    <glyph glyph-name="braceleft.case" horiz-adv-x="390" 
d="M192 357v-16c48 -13 72 -42 72 -86c0 -23 -10 -62 -30 -116s-30 -94 -30 -120c0 -47 22 -70 66 -70c14 0 43 3 87 8v-95c-49 -5 -85 -8 -108 -8c-51 0 -95 13 -130 39c-35 25 -52 63 -52 114c0 35 13 91 38 170c1 1 4 10 10 27c12 33 20 58 20 74c0 5 -5 9 -14 11l-83 19
v82l83 19c9 2 14 6 14 11c0 8 -2 18 -6 31c-3 13 -8 27 -14 42l-10 28c-25 79 -38 135 -38 170c0 51 17 89 52 114c35 26 79 39 130 39c23 0 59 -3 108 -8v-95c-44 5 -73 8 -87 8c-44 0 -66 -23 -66 -70c0 -26 10 -66 30 -120s30 -93 30 -116c0 -44 -24 -73 -72 -86z" />
    <glyph glyph-name="braceright.case" horiz-adv-x="390" 
d="M198 341v16c-48 13 -72 42 -72 86c0 23 10 62 30 116s30 94 30 120c0 47 -22 70 -66 70c-14 0 -43 -3 -87 -8v95c49 5 85 8 108 8c51 0 94 -13 129 -39c35 -25 53 -63 53 -114c0 -35 -13 -91 -38 -170l-10 -28c-12 -31 -20 -57 -20 -73c0 -5 5 -9 14 -11l83 -19v-82
l-83 -19c-9 -2 -14 -6 -14 -11c0 -8 2 -18 5 -31l15 -43c6 -17 9 -26 10 -27c25 -79 38 -135 38 -170c0 -51 -18 -89 -53 -114c-35 -26 -78 -39 -129 -39c-23 0 -59 3 -108 8v95c44 -5 73 -8 87 -8c44 0 66 23 66 70c0 26 -10 66 -30 120s-30 93 -30 116c0 44 24 73 72 86z
" />
    <glyph glyph-name="exclamdown.case" horiz-adv-x="297" 
d="M239 29v-29h-181v29l36 437h109zM54 625c0 49 41 86 94 86s95 -37 95 -86s-42 -88 -95 -88s-94 37 -94 88z" />
    <glyph glyph-name="guillemotleft.case" horiz-adv-x="647" 
d="M316 336v28l199 229l84 -76l-144 -167l143 -165l-83 -77zM39 336v28l199 229l84 -76l-144 -167l143 -165l-83 -77z" />
    <glyph glyph-name="periodcentered.case" horiz-adv-x="298" 
d="M55 350c0 51 41 88 94 88s95 -39 95 -88s-42 -86 -95 -86s-94 37 -94 86z" />
    <glyph glyph-name="guillemotright.case" horiz-adv-x="647" 
d="M48 517l84 76l199 -229v-28l-199 -228l-83 77l143 165zM325 517l84 76l199 -229v-28l-199 -228l-83 77l143 165z" />
    <glyph glyph-name="questiondown.case" horiz-adv-x="538" 
d="M224 458v9h139c0 -37 -4 -64 -12 -83c-7 -18 -28 -38 -61 -59c-76 -48 -108 -78 -108 -129c0 -49 39 -80 91 -80c49 0 89 28 89 73c0 13 -4 29 -13 50h142c9 -18 14 -40 14 -65c0 -46 -20 -88 -61 -127s-98 -58 -171 -58c-71 0 -128 19 -173 56s-67 87 -67 148
c0 88 53 153 176 229c10 7 15 19 15 36zM390 625c0 -51 -41 -88 -94 -88s-95 39 -95 88s42 86 95 86s94 -37 94 -86z" />
    <glyph glyph-name="endash.case" horiz-adv-x="588" 
d="M527 290h-466v120h466v-120z" />
    <glyph glyph-name="emdash.case" horiz-adv-x="801" 
d="M740 290h-679v120h679v-120z" />
    <glyph glyph-name="bullet.case" horiz-adv-x="400" 
d="M66 350c0 37 13 69 38 95c25 27 57 40 96 40s71 -13 96 -40c26 -26 39 -58 39 -95c0 -38 -13 -70 -39 -97c-25 -26 -57 -39 -96 -39s-72 13 -97 39s-37 58 -37 97z" />
    <glyph glyph-name="guilsinglleft.case" horiz-adv-x="370" 
d="M39 336v28l199 229l84 -76l-144 -167l143 -165l-83 -77z" />
    <glyph glyph-name="guilsinglright.case" horiz-adv-x="370" 
d="M48 517l84 76l199 -229v-28l-199 -228l-83 77l143 165z" />
    <glyph glyph-name="cent.case" horiz-adv-x="572" 
d="M39 351c0 76 25 139 76 189c51 51 119 77 204 78l16 82h77l-18 -90c47 -11 95 -33 142 -68l-68 -109c-28 25 -60 40 -97 47l-48 -262h10c52 0 97 17 135 51l68 -109c-69 -51 -139 -76 -210 -76c-5 0 -20 1 -27 1l-17 -85h-76l19 98c-116 35 -186 132 -186 253zM188 351
c0 -51 21 -88 62 -113l44 242c-65 -13 -106 -64 -106 -129z" />
    <glyph glyph-name="zero.tnum" horiz-adv-x="680" 
d="M652 350c0 -102 -29 -188 -86 -257s-133 -103 -227 -103c-95 0 -170 34 -227 103c-56 69 -84 154 -84 257s28 189 84 258c57 69 132 103 227 103c94 0 170 -35 227 -104s86 -154 86 -257zM177 350c0 -68 15 -125 44 -171c29 -45 69 -68 118 -68s89 23 119 68
c30 46 45 103 45 171s-15 125 -45 171s-70 69 -119 69s-89 -23 -118 -69c-29 -45 -44 -102 -44 -171z" />
    <glyph glyph-name="one.tnum" horiz-adv-x="680" 
d="M444 700v-577h137v-123h-433v123h144v403c-16 -7 -42 -17 -78 -30c-35 -13 -59 -21 -70 -26l-38 117l253 113h85z" />
    <glyph glyph-name="two.tnum" horiz-adv-x="680" 
d="M442 239l-143 -122c33 4 69 6 109 6h200v-123h-513l-15 92l266 245c63 55 94 104 94 148c0 61 -42 99 -110 99c-81 0 -115 -52 -115 -108h-146c0 49 19 103 56 151c39 49 113 84 205 84c77 0 139 -20 186 -61s71 -95 71 -164c0 -83 -48 -165 -145 -247z" />
    <glyph glyph-name="three.tnum" horiz-adv-x="680" 
d="M310 115c41 0 75 12 102 37c28 25 42 53 42 84c0 33 -12 61 -37 82s-54 32 -87 32c-32 0 -63 -6 -93 -19l-58 78l200 168h-287v123h493v-88l-189 -159c56 -5 105 -29 147 -72s63 -91 63 -144c0 -69 -27 -128 -82 -176c-54 -48 -126 -72 -216 -72c-109 0 -194 28 -256 84
l74 95c61 -35 122 -53 184 -53z" />
    <glyph glyph-name="four.tnum" horiz-adv-x="680" 
d="M355 480l-157 -180h157v180zM355 0v175h-327v91l376 434h103v-400h139v-125h-139v-175h-152z" />
    <glyph glyph-name="five.tnum" horiz-adv-x="680" 
d="M319 115c91 0 146 55 146 126c0 57 -50 108 -130 108c-61 0 -108 -17 -142 -51l-101 40l23 362h452v-123h-320l-10 -148h5c34 25 79 37 134 37c65 0 121 -22 169 -67c48 -44 72 -97 72 -158c0 -76 -26 -137 -78 -183c-51 -46 -123 -69 -214 -69c-112 0 -199 28 -261 84
l74 95c61 -35 121 -53 181 -53z" />
    <glyph glyph-name="six.tnum" horiz-adv-x="680" 
d="M372 582c-39 0 -74 -16 -107 -49s-51 -78 -55 -137h4c33 40 92 70 155 70c67 0 127 -22 179 -65s78 -100 78 -171c0 -70 -26 -128 -77 -173s-118 -68 -199 -68c-89 0 -161 32 -214 95c-53 64 -79 147 -79 250c0 109 27 199 80 270c54 71 130 107 229 107
c97 0 188 -38 244 -103l-91 -83c-36 38 -85 57 -147 57zM349 348c-84 0 -130 -50 -130 -111c0 -32 11 -60 34 -85s54 -37 93 -37c35 0 66 11 91 33c25 23 38 50 38 83c0 69 -49 117 -126 117z" />
    <glyph glyph-name="seven.tnum" horiz-adv-x="680" 
d="M431 577h-346v123h525v-92l-318 -608h-171z" />
    <glyph glyph-name="eight.tnum" horiz-adv-x="680" 
d="M339 418h2c71 0 107 44 107 91c0 44 -43 79 -108 79s-108 -35 -108 -79c0 -47 36 -91 107 -91zM344 314c-135 9 -179 -116 -103 -170c25 -19 58 -28 99 -28c81 0 136 42 136 98c0 55 -47 100 -132 100zM51 214c0 32 12 64 35 96s53 54 89 65c-28 10 -51 28 -69 54
c-18 27 -27 53 -27 80c0 62 24 111 72 147c49 37 112 55 189 55s140 -18 188 -55c49 -36 73 -85 73 -147c0 -27 -9 -53 -27 -80c-18 -26 -41 -44 -69 -54c36 -11 66 -33 89 -65s35 -64 35 -96c0 -69 -27 -124 -80 -165c-53 -40 -123 -60 -209 -60s-156 20 -209 60
c-53 41 -80 96 -80 165z" />
    <glyph glyph-name="nine.tnum" horiz-adv-x="680" 
d="M308 118c39 0 74 16 107 49s51 78 55 137h-4c-27 -40 -91 -70 -155 -70c-67 0 -127 21 -179 64s-78 101 -78 172c0 70 26 128 77 173s118 68 199 68c89 0 160 -32 213 -96c53 -63 80 -146 80 -249c0 -109 -27 -200 -81 -271c-53 -71 -129 -106 -228 -106
c-97 0 -188 38 -244 103l91 83c36 -38 85 -57 147 -57zM331 352c84 0 130 50 130 111c0 32 -12 60 -35 85s-53 37 -92 37c-35 0 -66 -11 -91 -34c-25 -22 -38 -49 -38 -82c0 -69 49 -117 126 -117z" />
    <glyph glyph-name="zero.oldstyle" horiz-adv-x="669" 
d="M548 447c55 -51 82 -114 82 -190s-27 -140 -82 -191c-54 -51 -125 -77 -214 -77s-160 26 -214 77s-81 115 -81 191s27 139 81 190s125 77 214 77s160 -26 214 -77zM334 403c-43 0 -79 -14 -106 -43s-40 -63 -40 -103s13 -75 40 -104s63 -43 106 -43c44 0 79 14 106 43
s41 64 41 104s-14 74 -41 103s-62 43 -106 43z" />
    <glyph glyph-name="one.oldstyle" horiz-adv-x="569" 
d="M237 351l-171 -58l-36 115l274 105h81v-391h161v-122h-476v122h167v229z" />
    <glyph glyph-name="two.oldstyle" horiz-adv-x="605" 
d="M379 163l-66 -37l-13 -8c15 3 63 5 142 5h119v-123h-512l-5 91l285 180c52 32 65 51 65 80c0 39 -33 59 -98 59c-63 0 -100 -30 -100 -73h-149c0 45 16 87 52 124c37 39 108 63 200 63c73 0 132 -15 177 -45c45 -29 68 -70 68 -123c0 -42 -12 -77 -37 -104
c-24 -27 -67 -57 -128 -89z" />
    <glyph glyph-name="three.oldstyle" horiz-adv-x="610" 
d="M277 -8c41 0 76 10 103 30c27 21 41 45 41 73c0 31 -12 56 -37 77s-54 32 -87 32c-35 0 -66 -8 -93 -25l-57 79l190 137h-277v118h491v-79l-188 -143c55 -5 104 -27 146 -66c42 -38 63 -81 63 -129c0 -62 -27 -115 -82 -158c-54 -43 -126 -65 -215 -65
c-109 0 -194 25 -255 76l74 85c53 -28 114 -42 183 -42z" />
    <glyph glyph-name="four.oldstyle" horiz-adv-x="654" 
d="M349 335l-157 -184h157v184zM349 -117v147h-328v91l335 392h141v-362h129v-121h-129v-147h-148z" />
    <glyph glyph-name="five.oldstyle" horiz-adv-x="590" 
d="M275 -7c83 0 137 47 137 107c0 52 -36 93 -116 93c-53 0 -100 -16 -139 -49l-99 53l19 316h435v-118h-310l-6 -125h5c36 23 78 34 127 34c70 0 126 -20 169 -60c43 -39 64 -87 64 -144c0 -68 -24 -123 -73 -166s-117 -64 -204 -64c-105 0 -190 29 -254 87l73 93
c65 -38 122 -57 172 -57z" />
    <glyph glyph-name="six.oldstyle" horiz-adv-x="646" 
d="M355 518c-85 0 -152 -55 -160 -163h4c32 36 92 63 153 63c67 0 125 -19 176 -58s77 -90 77 -154c0 -63 -25 -115 -76 -156c-50 -41 -115 -61 -196 -61c-88 0 -158 29 -211 86c-52 57 -78 132 -78 225c0 99 26 180 79 244s129 96 226 96c96 0 185 -34 240 -93l-89 -81
c-36 35 -84 52 -145 52zM332 312c-84 0 -128 -44 -128 -100c0 -27 12 -51 36 -72c25 -20 54 -30 89 -30s64 9 89 28s38 42 38 69c0 63 -48 105 -124 105z" />
    <glyph glyph-name="seven.oldstyle" horiz-adv-x="549" 
d="M360 393h-337v120h517v-85l-306 -545h-163z" />
    <glyph glyph-name="eight.oldstyle" horiz-adv-x="658" 
d="M325 370h8c67 0 106 39 106 78c0 37 -46 71 -110 71s-110 -34 -110 -71c0 -39 39 -78 106 -78zM333 278h-8c-84 0 -133 -37 -133 -84s57 -83 137 -83s137 36 137 83s-49 84 -133 84zM41 190c0 63 39 124 116 149c-60 23 -87 69 -87 117c0 52 25 96 74 131s111 53 185 53
s136 -18 185 -53s74 -79 74 -131c0 -48 -27 -94 -87 -117c77 -25 116 -86 116 -149c0 -57 -28 -104 -83 -143s-123 -58 -205 -58s-151 19 -206 58s-82 86 -82 143z" />
    <glyph glyph-name="nine.oldstyle" horiz-adv-x="635" 
d="M285 -5c85 0 152 55 160 163h-4c-32 -36 -92 -63 -153 -63c-67 0 -126 19 -177 58s-76 90 -76 154c0 63 25 115 75 156c51 41 116 61 197 61c88 0 158 -29 210 -86c53 -57 79 -132 79 -225c0 -99 -27 -180 -80 -244s-128 -96 -225 -96c-96 0 -185 34 -240 93l89 81
c36 -35 84 -52 145 -52zM308 202c84 0 128 43 128 99c0 27 -12 51 -37 71c-24 21 -53 31 -88 31c-71 0 -127 -38 -127 -97c0 -63 48 -104 124 -104z" />
    <glyph glyph-name="zero.taboldstyle" horiz-adv-x="680" 
d="M553 447c55 -51 82 -114 82 -190s-27 -140 -82 -191c-54 -51 -125 -77 -214 -77s-160 26 -214 77s-81 115 -81 191s27 139 81 190s125 77 214 77s160 -26 214 -77zM339 403c-43 0 -79 -14 -106 -43s-40 -63 -40 -103s13 -75 40 -104s63 -43 106 -43c44 0 79 14 106 43
s41 64 41 104s-14 74 -41 103s-62 43 -106 43z" />
    <glyph glyph-name="one.taboldstyle" horiz-adv-x="680" 
d="M292 351l-171 -58l-36 115l274 105h81v-391h161v-122h-476v122h167v229z" />
    <glyph glyph-name="two.taboldstyle" horiz-adv-x="680" 
d="M417 163l-66 -37l-13 -8c15 3 63 5 142 5h119v-123h-512l-5 91l285 180c52 32 65 51 65 80c0 39 -33 59 -98 59c-63 0 -100 -30 -100 -73h-149c0 45 16 87 52 124c37 39 108 63 200 63c73 0 132 -15 177 -45c45 -29 68 -70 68 -123c0 -42 -12 -77 -37 -104
c-24 -27 -67 -57 -128 -89z" />
    <glyph glyph-name="three.taboldstyle" horiz-adv-x="680" 
d="M312 -8c41 0 76 10 103 30c27 21 41 45 41 73c0 31 -12 56 -37 77s-54 32 -87 32c-35 0 -66 -8 -93 -25l-57 79l190 137h-277v118h491v-79l-188 -143c55 -5 104 -27 146 -66c42 -38 63 -81 63 -129c0 -62 -27 -115 -82 -158c-54 -43 -126 -65 -215 -65
c-109 0 -194 25 -255 76l74 85c53 -28 114 -42 183 -42z" />
    <glyph glyph-name="four.taboldstyle" horiz-adv-x="680" 
d="M362 335l-157 -184h157v184zM362 -117v147h-328v91l335 392h141v-362h129v-121h-129v-147h-148z" />
    <glyph glyph-name="five.taboldstyle" horiz-adv-x="680" 
d="M320 -7c83 0 137 47 137 107c0 52 -36 93 -116 93c-53 0 -100 -16 -139 -49l-99 53l19 316h435v-118h-310l-6 -125h5c36 23 78 34 127 34c70 0 126 -20 169 -60c43 -39 64 -87 64 -144c0 -68 -24 -123 -73 -166s-117 -64 -204 -64c-105 0 -190 29 -254 87l73 93
c65 -38 122 -57 172 -57z" />
    <glyph glyph-name="six.taboldstyle" horiz-adv-x="680" 
d="M372 518c-85 0 -152 -55 -160 -163h4c32 36 92 63 153 63c67 0 125 -19 176 -58s77 -90 77 -154c0 -63 -25 -115 -76 -156c-50 -41 -115 -61 -196 -61c-88 0 -158 29 -211 86c-52 57 -78 132 -78 225c0 99 26 180 79 244s129 96 226 96c96 0 185 -34 240 -93l-89 -81
c-36 35 -84 52 -145 52zM349 312c-84 0 -128 -44 -128 -100c0 -27 12 -51 36 -72c25 -20 54 -30 89 -30s64 9 89 28s38 42 38 69c0 63 -48 105 -124 105z" />
    <glyph glyph-name="seven.taboldstyle" horiz-adv-x="680" 
d="M425 393h-337v120h517v-85l-306 -545h-163z" />
    <glyph glyph-name="eight.taboldstyle" horiz-adv-x="680" 
d="M336 370h8c67 0 106 39 106 78c0 37 -46 71 -110 71s-110 -34 -110 -71c0 -39 39 -78 106 -78zM344 278h-8c-84 0 -133 -37 -133 -84s57 -83 137 -83s137 36 137 83s-49 84 -133 84zM52 190c0 63 39 124 116 149c-60 23 -87 69 -87 117c0 52 25 96 74 131s111 53 185 53
s136 -18 185 -53s74 -79 74 -131c0 -48 -27 -94 -87 -117c77 -25 116 -86 116 -149c0 -57 -28 -104 -83 -143s-123 -58 -205 -58s-151 19 -206 58s-82 86 -82 143z" />
    <glyph glyph-name="nine.taboldstyle" horiz-adv-x="680" 
d="M307 -5c85 0 152 55 160 163h-4c-32 -36 -92 -63 -153 -63c-67 0 -126 19 -177 58s-76 90 -76 154c0 63 25 115 75 156c51 41 116 61 197 61c88 0 158 -29 210 -86c53 -57 79 -132 79 -225c0 -99 -27 -180 -80 -244s-128 -96 -225 -96c-96 0 -185 34 -240 93l89 81
c36 -35 84 -52 145 -52zM330 202c84 0 128 43 128 99c0 27 -12 51 -37 71c-24 21 -53 31 -88 31c-71 0 -127 -38 -127 -97c0 -63 48 -104 124 -104z" />
    <glyph glyph-name="zero.numr" horiz-adv-x="370" 
d="M344 527c0 -51 -15 -94 -44 -129s-68 -53 -116 -53s-86 18 -115 53s-43 78 -43 129s14 94 43 129s67 52 115 52s87 -17 116 -52s44 -78 44 -129zM252 527c0 61 -27 103 -68 103c-40 0 -66 -42 -66 -103c0 -60 26 -104 66 -104c41 0 68 44 68 104z" />
    <glyph glyph-name="one.numr" horiz-adv-x="241" 
d="M108 602l-79 -32l-24 68l144 62h53v-348h-94v250z" />
    <glyph glyph-name="two.numr" horiz-adv-x="326" 
d="M217 470l-49 -46c9 1 21 2 38 2h91v-74h-261l-9 53l131 124c27 23 41 45 41 65c0 24 -17 39 -42 39c-32 0 -47 -28 -47 -53l-84 1c0 31 10 60 31 87s55 40 100 40c80 0 133 -45 133 -114c0 -41 -24 -83 -73 -124z" />
    <glyph glyph-name="three.numr" horiz-adv-x="329" 
d="M150 418c32 0 59 27 59 52c0 28 -24 49 -53 49c-12 0 -25 -2 -39 -7l-32 44l85 71h-137v73h256v-51l-86 -78c57 -7 100 -49 100 -100c0 -35 -14 -64 -42 -89s-65 -37 -111 -37c-56 0 -100 14 -131 42l44 56c25 -17 54 -25 87 -25z" />
    <glyph glyph-name="four.numr" horiz-adv-x="360" 
d="M185 602l-77 -92h77v92zM180 352v87h-168v49l172 212h90v-190h69v-71h-69v-87h-94z" />
    <glyph glyph-name="five.numr" horiz-adv-x="326" 
d="M144 418c43 0 64 23 64 54c0 27 -22 54 -59 54c-23 0 -43 -5 -60 -16l-52 23l9 167h227v-73h-153l-3 -51c17 9 37 13 62 13c34 0 63 -12 86 -35c24 -23 36 -50 36 -82c0 -76 -57 -127 -150 -127c-56 0 -100 14 -131 42l44 56c25 -17 51 -25 80 -25z" />
    <glyph glyph-name="six.numr" horiz-adv-x="345" 
d="M190 635c-43 0 -74 -29 -75 -82h3c17 20 41 30 74 30s63 -10 88 -30c26 -19 39 -48 39 -85c0 -35 -14 -65 -41 -88s-60 -35 -101 -35c-95 0 -151 71 -151 176c0 53 14 98 41 133c28 35 68 53 119 53c54 0 95 -17 122 -50l-51 -48c-17 17 -40 26 -67 26zM175 522
c-74 0 -72 -104 0 -104c33 0 56 20 56 51s-21 53 -56 53z" />
    <glyph glyph-name="seven.numr" horiz-adv-x="299" 
d="M182 626h-162v74h270v-53l-154 -295h-100z" />
    <glyph glyph-name="eight.numr" horiz-adv-x="350" 
d="M224 601c0 51 -98 51 -98 0c0 -20 20 -39 49 -39s49 19 49 39zM112 462c0 -24 30 -45 63 -45s63 21 63 45c0 23 -26 46 -63 46s-63 -23 -63 -46zM25 463c0 29 25 65 60 76c-27 12 -44 38 -44 62c0 64 55 106 134 106s134 -42 134 -106c0 -24 -17 -50 -44 -62
c35 -11 60 -47 60 -76c0 -72 -63 -118 -150 -118s-150 46 -150 118z" />
    <glyph glyph-name="nine.numr" horiz-adv-x="344" 
d="M154 417c43 0 74 29 75 82h-3c-17 -20 -41 -30 -74 -30s-63 10 -89 29c-25 20 -38 49 -38 86c0 35 13 65 40 88s61 35 102 35c95 0 151 -71 151 -176c0 -53 -14 -98 -42 -133c-27 -35 -67 -53 -118 -53c-54 0 -95 17 -122 50l51 48c17 -17 40 -26 67 -26zM169 530
c74 0 72 104 0 104c-33 0 -56 -20 -56 -51s21 -53 56 -53z" />
    <glyph glyph-name="parenleft.numr" horiz-adv-x="216" 
d="M188 318l-55 -35c-23 23 -45 59 -68 106s-34 97 -34 150s11 103 34 150c23 48 45 84 68 107l55 -36c-17 -23 -33 -56 -48 -97s-23 -82 -23 -124s8 -84 23 -125s31 -73 48 -96z" />
    <glyph glyph-name="parenright.numr" horiz-adv-x="216" 
d="M28 760l55 36c23 -23 45 -59 68 -107c23 -47 34 -97 34 -150s-11 -103 -34 -150s-45 -83 -68 -106l-55 35c17 23 33 55 48 96s23 83 23 125s-8 83 -23 124s-31 74 -48 97z" />
    <glyph glyph-name="period.numr" horiz-adv-x="184" 
d="M52 355c-21 19 -21 51 0 70s59 19 80 0s22 -51 -1 -70c-21 -19 -56 -19 -79 0z" />
    <glyph glyph-name="hyphen.numr" horiz-adv-x="291" 
d="M251 501h-211v73h211v-73z" />
    <glyph glyph-name="comma.numr" horiz-adv-x="187" 
d="M55 258l-24 33c23 8 48 34 53 51c-21 4 -40 25 -40 42c-1 25 18 47 50 47c37 0 52 -28 52 -55c0 -22 -9 -45 -26 -70c-17 -24 -39 -40 -65 -48z" />
    <glyph glyph-name="dollar.numr" horiz-adv-x="310" 
d="M173 319h-25v32c-67 3 -120 43 -127 104l70 15c8 -27 32 -48 57 -52v72l-21 8c-59 21 -89 55 -89 102c0 57 45 96 110 100v32h25v-33c49 -5 84 -31 104 -76l-62 -33c-10 21 -24 35 -42 42v-69l18 -6c65 -23 94 -66 94 -102c0 -63 -49 -99 -112 -103v-33zM120 602
c0 -13 9 -24 28 -31v64c-19 -5 -28 -16 -28 -33zM201 453c0 11 -9 20 -28 28v-61c19 5 28 16 28 33z" />
    <glyph glyph-name="cent.numr" horiz-adv-x="306" 
d="M180 660l9 48h32l-10 -53c22 -6 46 -18 72 -36l-41 -58c-15 13 -29 21 -43 24l-22 -120c25 0 46 9 65 26l42 -58c-37 -27 -74 -41 -112 -41h-8l-7 -40h-36l8 44c-65 15 -106 66 -106 130c0 76 60 134 149 134h8zM113 526c0 -25 10 -42 31 -53l21 113
c-29 -5 -52 -31 -52 -60z" />
    <glyph glyph-name="sterling.numr" horiz-adv-x="340" 
d="M255 529v-42h-68c4 -27 -2 -49 -17 -66c28 1 44 2 48 2h96v-71h-288v70c48 3 72 17 72 42c0 8 -1 16 -3 23h-60v42h41c-10 25 -15 50 -15 75c0 61 54 104 126 104c39 0 69 -12 89 -35s30 -50 30 -79h-88c0 21 -14 39 -34 39c-22 0 -33 -11 -33 -33c0 -14 5 -38 16 -71h88
z" />
    <glyph glyph-name="yen.numr" horiz-adv-x="389" 
d="M323 450v-40h-81v-58h-95v58h-81v40h81v45h-81v39h54l-101 151v15h101l75 -126l73 126h102v-16l-101 -150h54v-39h-81v-45h81z" />
    <glyph glyph-name="florin.numr" horiz-adv-x="267" 
d="M233 505h-56v-166c0 -71 -39 -99 -94 -99c-25 0 -46 5 -65 16l26 61c9 -5 17 -8 24 -8c13 0 21 10 21 19v177h-37v51h37v53c0 66 31 99 93 99c26 0 47 -5 64 -15l-26 -64c-9 5 -18 7 -27 7c-11 0 -16 -6 -16 -17v-63h56v-51z" />
    <glyph glyph-name="Euro.numr" horiz-adv-x="365" 
d="M69 537h-48v40h53c21 73 82 131 170 131c32 0 66 -10 101 -30l-27 -67c-21 13 -45 20 -72 20c-43 0 -74 -26 -78 -54h141l-18 -40h-130c0 -15 0 -25 1 -29h123l-19 -41h-96c12 -31 44 -49 77 -49c27 0 54 5 79 15v-73c-23 -13 -48 -19 -77 -19c-96 0 -158 50 -175 126
h-53v41h48v29z" />
    <glyph glyph-name="sterlinginferior" horiz-adv-x="339" 
d="M255 35v-42h-68c4 -27 -2 -49 -17 -66c28 1 44 2 48 2h96v-71h-288v70c48 3 72 17 72 42c0 8 -1 16 -3 23h-60v42h41c-10 25 -15 50 -15 75c0 61 54 104 126 104c39 0 69 -12 89 -35s30 -50 30 -79h-88c0 21 -14 39 -34 39c-22 0 -33 -11 -33 -33c0 -14 5 -38 16 -71h88z
" />
    <glyph glyph-name="yeninferior" horiz-adv-x="389" 
d="M323 -44v-40h-81v-58h-95v58h-81v40h81v45h-81v39h54l-101 151v15h101l75 -126l73 126h102v-16l-101 -150h54v-39h-81v-45h81z" />
    <glyph glyph-name="florininferior" horiz-adv-x="266" 
d="M232 11h-56v-166c0 -71 -39 -99 -94 -99c-25 0 -46 5 -65 16l26 61c9 -5 17 -8 24 -8c13 0 21 10 21 19v177h-37v51h37v53c0 66 31 99 93 99c26 0 47 -5 64 -15l-26 -64c-9 5 -18 7 -27 7c-11 0 -16 -6 -16 -17v-63h56v-51z" />
    <glyph glyph-name="Euroinferior" horiz-adv-x="367" 
d="M70 43h-48v40h53c21 73 82 131 170 131c32 0 66 -10 101 -30l-27 -67c-21 13 -45 20 -72 20c-43 0 -74 -26 -78 -54h141l-18 -40h-130c0 -15 0 -25 1 -29h123l-19 -41h-96c12 -31 44 -49 77 -49c28 0 54 5 79 15v-73c-23 -13 -48 -19 -77 -19c-96 0 -158 50 -175 126h-53
v41h48v29z" />
    <glyph glyph-name="zero.dnom" horiz-adv-x="368" 
d="M343 173c0 -51 -15 -94 -44 -130s-68 -54 -116 -54s-86 18 -115 53c-29 36 -43 80 -43 131s14 95 43 130s67 53 115 53s87 -18 116 -53s44 -79 44 -130zM251 173c0 61 -27 105 -68 105c-40 0 -66 -44 -66 -105c0 -60 26 -106 66 -106c41 0 68 46 68 106z" />
    <glyph glyph-name="one.dnom" horiz-adv-x="243" 
d="M110 250l-79 -32l-24 68l144 62h53v-348h-94v250z" />
    <glyph glyph-name="two.dnom" horiz-adv-x="326" 
d="M217 118l-49 -46c9 1 21 2 38 2h91v-74h-261l-9 53l131 124c27 23 41 45 41 65c0 24 -17 39 -42 39c-32 0 -47 -28 -47 -53l-84 1c0 31 10 60 31 87s55 40 100 40c80 0 133 -45 133 -114c0 -41 -24 -83 -73 -124z" />
    <glyph glyph-name="three.dnom" horiz-adv-x="329" 
d="M150 66c32 0 59 27 59 52c0 28 -24 49 -53 49c-12 0 -25 -2 -39 -7l-32 44l85 71h-137v73h256v-51l-86 -78c57 -7 100 -49 100 -100c0 -35 -14 -64 -42 -89s-65 -37 -111 -37c-56 0 -100 14 -131 42l44 56c25 -17 54 -25 87 -25z" />
    <glyph glyph-name="four.dnom" horiz-adv-x="360" 
d="M185 250l-77 -92h77v92zM180 0v87h-168v49l172 212h90v-190h69v-71h-69v-87h-94z" />
    <glyph glyph-name="five.dnom" horiz-adv-x="326" 
d="M144 60c43 0 64 23 64 54c0 27 -22 54 -59 54c-23 0 -43 -5 -60 -16l-52 23l9 167h227v-73h-153l-3 -51c17 9 37 13 62 13c34 0 63 -12 86 -35c24 -23 36 -50 36 -82c0 -76 -57 -127 -150 -127c-56 0 -100 14 -131 42l44 56c25 -17 51 -25 80 -25z" />
    <glyph glyph-name="six.dnom" horiz-adv-x="345" 
d="M190 279c-43 0 -74 -29 -75 -82h3c17 20 41 30 74 30s63 -10 88 -30c26 -19 39 -48 39 -85c0 -35 -14 -65 -41 -88s-60 -35 -101 -35c-95 0 -151 71 -151 176c0 53 14 98 41 133c28 35 68 53 119 53c54 0 95 -17 122 -50l-51 -48c-17 17 -40 26 -67 26zM175 166
c-74 0 -72 -104 0 -104c33 0 56 20 56 51s-21 53 -56 53z" />
    <glyph glyph-name="seven.dnom" horiz-adv-x="300" 
d="M182 274h-162v74h270v-53l-154 -295h-100z" />
    <glyph glyph-name="eight.dnom" horiz-adv-x="350" 
d="M224 245c0 51 -98 51 -98 0c0 -20 20 -39 49 -39s49 19 49 39zM112 106c0 -24 30 -45 63 -45s63 21 63 45c0 23 -26 46 -63 46s-63 -23 -63 -46zM25 107c0 29 25 65 60 76c-27 12 -44 38 -44 62c0 64 55 106 134 106s134 -42 134 -106c0 -24 -17 -50 -44 -62
c35 -11 60 -47 60 -76c0 -72 -63 -118 -150 -118s-150 46 -150 118z" />
    <glyph glyph-name="nine.dnom" horiz-adv-x="344" 
d="M154 61c43 0 74 29 75 82h-3c-17 -20 -41 -30 -74 -30s-63 10 -89 29c-25 20 -38 49 -38 86c0 35 13 65 40 88s61 35 102 35c95 0 151 -71 151 -176c0 -53 -14 -98 -42 -133c-27 -35 -67 -53 -118 -53c-54 0 -95 17 -122 50l51 48c17 -17 40 -26 67 -26zM169 174
c74 0 72 104 0 104c-33 0 -56 -20 -56 -51s21 -53 56 -53z" />
    <glyph glyph-name="parenleft.dnom" horiz-adv-x="216" 
d="M188 -48l-55 -35c-23 23 -45 59 -68 106s-34 97 -34 150s11 103 34 150c23 48 45 84 68 107l55 -36c-17 -23 -33 -56 -48 -97s-23 -82 -23 -124s8 -84 23 -125s31 -73 48 -96z" />
    <glyph glyph-name="parenright.dnom" horiz-adv-x="216" 
d="M28 394l55 36c23 -23 45 -59 68 -107c23 -47 34 -97 34 -150s-11 -103 -34 -150s-45 -83 -68 -106l-55 35c17 23 33 55 48 96s23 83 23 125s-8 83 -23 124s-31 74 -48 97z" />
    <glyph glyph-name="period.dnom" horiz-adv-x="184" 
d="M52 3c-21 19 -21 51 0 70s59 19 80 0s22 -51 -1 -70c-21 -19 -56 -19 -79 0z" />
    <glyph glyph-name="hyphen.dnom" horiz-adv-x="291" 
d="M251 149h-211v73h211v-73z" />
    <glyph glyph-name="comma.dnom" horiz-adv-x="187" 
d="M55 -94l-24 33c23 8 48 34 53 51c-21 4 -40 25 -40 42c-1 25 18 47 50 47c37 0 52 -28 52 -55c0 -22 -9 -45 -26 -69c-17 -25 -39 -41 -65 -49z" />
    <glyph glyph-name="dollar.dnom" horiz-adv-x="310" 
d="M173 -33h-25v32c-67 3 -120 43 -127 104l70 15c8 -27 32 -48 57 -52v72l-21 8c-59 21 -89 55 -89 102c0 57 45 96 110 100v32h25v-33c49 -5 84 -31 104 -76l-62 -33c-10 21 -24 35 -42 42v-69l18 -6c65 -23 94 -66 94 -102c0 -63 -49 -99 -112 -103v-33zM120 250
c0 -13 9 -24 28 -31v64c-19 -5 -28 -16 -28 -33zM201 101c0 11 -9 20 -28 28v-61c19 5 28 16 28 33z" />
    <glyph glyph-name="cent.dnom" horiz-adv-x="306" 
d="M180 308l9 48h32l-10 -53c22 -6 46 -18 72 -36l-41 -58c-15 13 -29 21 -43 24l-22 -120c25 0 46 9 65 26l42 -58c-37 -27 -74 -41 -112 -41h-8l-7 -40h-36l8 44c-65 15 -106 66 -106 130c0 76 60 134 149 134h8zM113 174c0 -25 10 -42 31 -53l21 113
c-29 -5 -52 -31 -52 -60z" />
    <glyph glyph-name="sterling.dnom" horiz-adv-x="340" 
d="M255 177v-42h-68c4 -27 -2 -49 -17 -66c28 1 44 2 48 2h96v-71h-288v70c48 3 72 17 72 42c0 8 -1 16 -3 23h-60v42h41c-10 25 -15 50 -15 75c0 61 54 104 126 104c39 0 69 -12 89 -35s30 -50 30 -79h-88c0 21 -14 39 -34 39c-22 0 -33 -11 -33 -33c0 -14 5 -38 16 -71h88
z" />
    <glyph glyph-name="yen.dnom" horiz-adv-x="389" 
d="M323 98v-40h-81v-58h-95v58h-81v40h81v45h-81v39h54l-101 151v15h101l75 -126l73 126h102v-16l-101 -150h54v-39h-81v-45h81z" />
    <glyph glyph-name="florin.dnom" horiz-adv-x="267" 
d="M233 153h-56v-166c0 -71 -39 -99 -94 -99c-25 0 -46 5 -65 16l26 61c9 -5 17 -8 24 -8c13 0 21 10 21 19v177h-37v51h37v53c0 66 31 99 93 99c26 0 47 -5 64 -15l-26 -64c-9 5 -18 7 -27 7c-11 0 -16 -6 -16 -17v-63h56v-51z" />
    <glyph glyph-name="Euro.dnom" horiz-adv-x="365" 
d="M69 185h-48v40h53c21 73 82 131 170 131c32 0 66 -10 101 -30l-27 -67c-21 13 -45 20 -72 20c-43 0 -74 -26 -78 -54h141l-18 -40h-130c0 -15 0 -25 1 -29h123l-19 -41h-96c12 -31 44 -49 77 -49c27 0 54 5 79 15v-73c-23 -13 -48 -19 -77 -19c-96 0 -158 50 -175 126
h-53v41h48v29z" />
    <glyph glyph-name="sterlingsuperior" horiz-adv-x="340" 
d="M255 654v-42h-68c4 -27 -2 -49 -17 -66c28 1 44 2 48 2h96v-71h-288v70c48 3 72 17 72 42c0 9 -1 16 -3 23h-60v42h41c-10 25 -15 50 -15 75c0 61 54 104 126 104c39 0 69 -12 89 -35s30 -50 30 -79h-88c0 21 -14 39 -34 39c-22 0 -33 -11 -33 -33c0 -14 5 -38 16 -71h88
z" />
    <glyph glyph-name="yensuperior" horiz-adv-x="389" 
d="M323 575v-40h-81v-58h-95v58h-81v40h81v45h-81v39h54l-101 151v15h101l75 -126l73 126h102v-16l-101 -150h54v-39h-81v-45h81z" />
    <glyph glyph-name="florinsuperior" horiz-adv-x="265" 
d="M232 630h-56v-166c0 -71 -39 -99 -94 -99c-25 0 -46 5 -65 16l26 61c9 -5 17 -8 24 -8c13 0 21 10 21 19v177h-37v51h37v53c0 66 31 99 93 99c26 0 47 -5 64 -15l-26 -64c-9 5 -18 7 -27 7c-11 0 -16 -6 -16 -17v-63h56v-51z" />
    <glyph glyph-name="Eurosuperior" horiz-adv-x="366" 
d="M70 662h-48v40h53c21 73 82 131 170 131c32 0 66 -10 101 -30l-27 -67c-21 13 -45 20 -72 20c-43 0 -74 -26 -78 -54h141l-18 -40h-130c0 -15 0 -25 1 -29h123l-19 -41h-96c12 -31 44 -49 77 -49c28 0 54 5 79 15v-73c-23 -13 -48 -19 -77 -19c-96 0 -158 50 -175 126
h-53v41h48v29z" />
    <glyph glyph-name="a.alt" horiz-adv-x="596" 
d="M277 236c-71 0 -96 -36 -96 -73c0 -28 26 -57 71 -57c52 0 99 18 140 55v55c-42 13 -80 20 -115 20zM212 -11c-48 0 -90 15 -127 45s-55 72 -55 125c0 48 20 87 61 117s93 45 157 45c43 0 90 -7 141 -22v14c0 27 -12 48 -36 63s-48 23 -71 23c-66 0 -121 -16 -164 -49
l-55 94c53 53 129 80 228 80c83 0 147 -22 180 -53c17 -15 31 -33 42 -55c21 -43 25 -77 25 -118v-298h-149v70c-43 -54 -102 -81 -177 -81z" />
    <glyph glyph-name="agrave.alt" 
d="M256 577l-148 173h157l99 -173h-108zM276 236c-71 0 -96 -36 -96 -73c0 -28 26 -57 71 -57c52 0 99 18 140 55v55c-42 13 -80 20 -115 20zM211 -11c-48 0 -90 15 -127 45s-55 72 -55 125c0 48 20 87 61 117s93 45 157 45c43 0 90 -7 141 -22v14c0 27 -12 48 -36 63
s-48 23 -71 23c-66 0 -121 -16 -164 -49l-55 94c53 53 129 80 228 80c83 0 147 -22 180 -53c17 -15 31 -33 42 -55c21 -43 25 -77 25 -118v-298h-149v70c-43 -54 -102 -81 -177 -81z" />
    <glyph glyph-name="aacute.alt" horiz-adv-x="596" 
d="M222 577l99 173h157l-148 -173h-108zM277 236c-71 0 -96 -36 -96 -73c0 -28 26 -57 71 -57c52 0 99 18 140 55v55c-42 13 -80 20 -115 20zM212 -11c-48 0 -90 15 -127 45s-55 72 -55 125c0 48 20 87 61 117s93 45 157 45c43 0 90 -7 141 -22v14c0 27 -12 48 -36 63
s-48 23 -71 23c-66 0 -121 -16 -164 -49l-55 94c53 53 129 80 228 80c83 0 147 -22 180 -53c17 -15 31 -33 42 -55c21 -43 25 -77 25 -118v-298h-149v70c-43 -54 -102 -81 -177 -81z" />
    <glyph glyph-name="acircumflex.alt" 
d="M113 577l105 173h147l106 -173h-105l-74 92l-74 -92h-105zM276 235c-71 0 -96 -36 -96 -73c0 -28 26 -57 71 -57c52 0 99 18 140 55v55c-42 13 -80 20 -115 20zM211 -12c-48 0 -90 15 -127 45s-55 72 -55 125c0 48 20 87 61 117s93 45 157 45c43 0 90 -7 141 -22v14
c0 27 -12 48 -36 63s-48 23 -71 23c-66 0 -121 -16 -164 -49l-55 94c53 53 129 80 228 80c83 0 147 -22 180 -53c17 -15 31 -33 42 -55c21 -43 25 -77 25 -118v-298h-149v70c-43 -54 -102 -81 -177 -81z" />
    <glyph glyph-name="atilde.alt" 
d="M409 738l75 -22c-23 -81 -54 -122 -115 -122c-21 0 -47 6 -78 17s-52 17 -61 17c-27 0 -38 -12 -53 -43l-75 22c23 81 54 122 115 122c21 0 47 -6 78 -17s52 -17 61 -17c27 0 38 12 53 43zM276 236c-71 0 -96 -36 -96 -73c0 -28 26 -57 71 -57c52 0 99 18 140 55v55
c-42 13 -80 20 -115 20zM211 -11c-48 0 -90 15 -127 45s-55 72 -55 125c0 48 20 87 61 117s93 45 157 45c43 0 90 -7 141 -22v14c0 27 -12 48 -36 63s-48 23 -71 23c-66 0 -121 -16 -164 -49l-55 94c53 53 129 80 228 80c83 0 147 -22 180 -53c17 -15 31 -33 42 -55
c21 -43 25 -77 25 -118v-298h-149v70c-43 -54 -102 -81 -177 -81z" />
    <glyph glyph-name="adieresis.alt" 
d="M89 664c0 47 38 81 87 81c48 0 87 -36 87 -81s-39 -79 -87 -79c-49 0 -87 34 -87 79zM337 664c0 47 37 81 86 81s88 -36 88 -81s-39 -79 -88 -79s-86 34 -86 79zM276 236c-71 0 -96 -36 -96 -73c0 -28 26 -57 71 -57c52 0 99 18 140 55v55c-42 13 -80 20 -115 20z
M211 -11c-48 0 -90 15 -127 45s-55 72 -55 125c0 48 20 87 61 117s93 45 157 45c43 0 90 -7 141 -22v14c0 27 -12 48 -36 63s-48 23 -71 23c-66 0 -121 -16 -164 -49l-55 94c53 53 129 80 228 80c83 0 147 -22 180 -53c17 -15 31 -33 42 -55c21 -43 25 -77 25 -118v-298
h-149v70c-43 -54 -102 -81 -177 -81z" />
    <glyph glyph-name="aring.alt" 
d="M171 682c0 68 54 116 123 116c71 0 124 -48 124 -116c0 -67 -53 -115 -124 -115c-69 0 -123 48 -123 115zM255 719c-20 -19 -20 -55 0 -75c21 -19 57 -19 77 0c21 20 21 56 1 75s-58 19 -78 0zM276 236c-71 0 -96 -36 -96 -73c0 -28 26 -57 71 -57c52 0 99 18 140 55v55
c-42 13 -80 20 -115 20zM211 -11c-48 0 -90 15 -127 45s-55 72 -55 125c0 48 20 87 61 117s93 45 157 45c43 0 90 -7 141 -22v14c0 27 -12 48 -36 63s-48 23 -71 23c-66 0 -121 -16 -164 -49l-55 94c53 53 129 80 228 80c83 0 147 -22 180 -53c17 -15 31 -33 42 -55
c21 -43 25 -77 25 -118v-298h-149v70c-43 -54 -102 -81 -177 -81z" />
    <glyph glyph-name="amacron.alt" 
d="M139 604v103h315v-103h-315zM276 236c-71 0 -96 -36 -96 -73c0 -28 26 -57 71 -57c52 0 99 18 140 55v55c-42 13 -80 20 -115 20zM211 -11c-48 0 -90 15 -127 45s-55 72 -55 125c0 48 20 87 61 117s93 45 157 45c43 0 90 -7 141 -22v14c0 27 -12 48 -36 63s-48 23 -71 23
c-66 0 -121 -16 -164 -49l-55 94c53 53 129 80 228 80c83 0 147 -22 180 -53c17 -15 31 -33 42 -55c21 -43 25 -77 25 -118v-298h-149v70c-43 -54 -102 -81 -177 -81z" />
    <glyph glyph-name="abreve.alt" 
d="M360 750l94 -10c-5 -64 -30 -110 -63 -131s-62 -29 -97 -29s-64 8 -97 29s-58 67 -63 131l94 10c4 -50 26 -75 66 -75s62 25 66 75zM276 236c-71 0 -96 -36 -96 -73c0 -28 26 -57 71 -57c52 0 99 18 140 55v55c-42 13 -80 20 -115 20zM211 -11c-48 0 -90 15 -127 45
s-55 72 -55 125c0 48 20 87 61 117s93 45 157 45c43 0 90 -7 141 -22v14c0 27 -12 48 -36 63s-48 23 -71 23c-66 0 -121 -16 -164 -49l-55 94c53 53 129 80 228 80c83 0 147 -22 180 -53c17 -15 31 -33 42 -55c21 -43 25 -77 25 -118v-298h-149v70
c-43 -54 -102 -81 -177 -81z" />
    <glyph glyph-name="aogonek.alt" 
d="M211 -11c-48 0 -90 15 -127 45s-55 72 -55 125c0 48 20 87 61 117s93 45 157 45c43 0 90 -7 141 -22v14c0 27 -12 48 -36 63s-48 23 -71 23c-66 0 -121 -16 -164 -49l-55 94c53 53 129 80 228 80c83 0 147 -22 180 -53c17 -15 31 -33 42 -55c21 -43 25 -77 25 -118v-298
h-8c-99 -3 -112 -63 -112 -84c0 -33 16 -49 48 -49c25 0 46 18 63 53l76 -35c-29 -67 -85 -112 -158 -112c-33 0 -64 9 -93 28c-28 19 -42 49 -42 90c0 48 26 87 77 117v62c-43 -54 -102 -81 -177 -81zM276 236c-71 0 -96 -36 -96 -73c0 -28 26 -57 71 -57
c52 0 99 18 140 55v55c-42 13 -80 20 -115 20z" />
    <glyph glyph-name="aringacute.alt" horiz-adv-x="596" 
d="M251 779l55 112h132l-84 -111c49 -16 74 -49 74 -98c0 -65 -52 -104 -124 -104c-71 0 -123 39 -123 104c0 49 23 82 70 97zM250 682c0 -27 18 -41 54 -41s54 14 54 41s-18 40 -54 40s-54 -13 -54 -40zM277 236c-71 0 -96 -36 -96 -73c0 -28 26 -57 71 -57
c52 0 99 18 140 55v55c-42 13 -80 20 -115 20zM212 -11c-48 0 -90 15 -127 45s-55 72 -55 125c0 48 20 87 61 117s93 45 157 45c43 0 90 -7 141 -22v14c0 27 -12 48 -36 63s-48 23 -71 23c-66 0 -121 -16 -164 -49l-55 94c53 53 129 80 228 80c83 0 147 -22 180 -53
c17 -15 31 -33 42 -55c21 -43 25 -77 25 -118v-298h-149v70c-43 -54 -102 -81 -177 -81z" />
    <glyph glyph-name="g.alt" horiz-adv-x="628" 
d="M308 413c-60 0 -106 -38 -106 -90s44 -91 107 -91c59 0 99 37 99 90s-41 91 -100 91zM299 -142c109 0 163 18 163 53c0 20 -24 34 -59 34h-137c-41 0 -70 6 -87 19c-24 -12 -36 -28 -36 -48c0 -39 52 -58 156 -58zM477 544h127c9 -9 14 -22 14 -39c0 -41 -32 -75 -93 -84
c19 -25 28 -58 28 -101c0 -61 -25 -109 -75 -146c-49 -36 -107 -54 -174 -54c-42 0 -82 7 -121 20c-9 -6 -14 -15 -14 -27c0 -27 35 -40 79 -40h177c144 0 187 -92 186 -143c0 -48 -25 -89 -74 -123c-49 -35 -129 -52 -239 -52c-196 0 -294 50 -294 151c0 24 8 47 25 69
s36 37 56 46c-24 17 -36 43 -36 78c0 33 19 64 56 93c-32 30 -48 73 -48 130c0 151 135 203 246 202c60 0 112 -12 155 -35c14 9 21 22 21 40c0 7 -1 12 -2 15z" />
    <glyph glyph-name="gcircumflex.alt" horiz-adv-x="628" 
d="M140 577l105 173h147l106 -173h-105l-74 92l-74 -92h-105zM308 413c-60 0 -106 -38 -106 -90s44 -91 107 -91c59 0 99 37 99 90s-41 91 -100 91zM299 -142c109 0 163 18 163 53c0 20 -24 34 -59 34h-137c-41 0 -70 6 -87 19c-24 -12 -36 -28 -36 -48
c0 -39 52 -58 156 -58zM477 544h127c9 -9 14 -22 14 -39c0 -41 -32 -75 -93 -84c19 -25 28 -58 28 -101c0 -61 -25 -109 -75 -146c-49 -36 -107 -54 -174 -54c-42 0 -82 7 -121 20c-9 -6 -14 -15 -14 -27c0 -27 35 -40 79 -40h177c144 0 187 -92 186 -143
c0 -48 -25 -89 -74 -123c-49 -35 -129 -52 -239 -52c-196 0 -294 50 -294 151c0 24 8 47 25 69s36 37 56 46c-24 17 -36 43 -36 78c0 33 19 64 56 93c-32 30 -48 73 -48 130c0 151 135 203 246 202c60 0 112 -12 155 -35c14 9 21 22 21 40c0 7 -1 12 -2 15z" />
    <glyph glyph-name="gbreve.alt" horiz-adv-x="628" 
d="M384 750l94 -10c-5 -64 -30 -110 -63 -131s-62 -29 -97 -29s-64 8 -97 29s-58 67 -63 131l94 10c4 -50 26 -75 66 -75s62 25 66 75zM308 413c-60 0 -106 -38 -106 -90s44 -91 107 -91c59 0 99 37 99 90s-41 91 -100 91zM299 -142c109 0 163 18 163 53c0 20 -24 34 -59 34
h-137c-41 0 -70 6 -87 19c-24 -12 -36 -28 -36 -48c0 -39 52 -58 156 -58zM477 544h127c9 -9 14 -22 14 -39c0 -41 -32 -75 -93 -84c19 -25 28 -58 28 -101c0 -61 -25 -109 -75 -146c-49 -36 -107 -54 -174 -54c-42 0 -82 7 -121 20c-9 -6 -14 -15 -14 -27
c0 -27 35 -40 79 -40h177c144 0 187 -92 186 -143c0 -48 -25 -89 -74 -123c-49 -35 -129 -52 -239 -52c-196 0 -294 50 -294 151c0 24 8 47 25 69s36 37 56 46c-24 17 -36 43 -36 78c0 33 19 64 56 93c-32 30 -48 73 -48 130c0 151 135 203 246 202c60 0 112 -12 155 -35
c14 9 21 22 21 40c0 7 -1 12 -2 15z" />
    <glyph glyph-name="gdotaccent.alt" horiz-adv-x="628" 
d="M231 664c0 47 38 81 87 81c48 0 87 -36 87 -81s-39 -79 -87 -79c-49 0 -87 34 -87 79zM308 413c-60 0 -106 -38 -106 -90s44 -91 107 -91c59 0 99 37 99 90s-41 91 -100 91zM299 -142c109 0 163 18 163 53c0 20 -24 34 -59 34h-137c-41 0 -70 6 -87 19
c-24 -12 -36 -28 -36 -48c0 -39 52 -58 156 -58zM477 544h127c9 -9 14 -22 14 -39c0 -41 -32 -75 -93 -84c19 -25 28 -58 28 -101c0 -61 -25 -109 -75 -146c-49 -36 -107 -54 -174 -54c-42 0 -82 7 -121 20c-9 -6 -14 -15 -14 -27c0 -27 35 -40 79 -40h177
c144 0 187 -92 186 -143c0 -48 -25 -89 -74 -123c-49 -35 -129 -52 -239 -52c-196 0 -294 50 -294 151c0 24 8 47 25 69s36 37 56 46c-24 17 -36 43 -36 78c0 33 19 64 56 93c-32 30 -48 73 -48 130c0 151 135 203 246 202c60 0 112 -12 155 -35c14 9 21 22 21 40
c0 7 -1 12 -2 15z" />
    <glyph glyph-name="gcommaaccent.alt" horiz-adv-x="628" 
d="M357 839l30 -51c-47 -18 -71 -42 -71 -73c45 12 80 -19 80 -66c0 -43 -31 -73 -78 -73c-56 0 -84 42 -84 82c0 92 41 152 123 181zM308 413c-60 0 -106 -38 -106 -90s44 -91 107 -91c59 0 99 37 99 90s-41 91 -100 91zM299 -142c109 0 163 18 163 53c0 20 -24 34 -59 34
h-137c-41 0 -70 6 -87 19c-24 -12 -36 -28 -36 -48c0 -39 52 -58 156 -58zM477 544h127c9 -9 14 -22 14 -39c0 -41 -32 -75 -93 -84c19 -25 28 -58 28 -101c0 -61 -25 -109 -75 -146c-49 -36 -107 -54 -174 -54c-42 0 -82 7 -121 20c-9 -6 -14 -15 -14 -27
c0 -27 35 -40 79 -40h177c144 0 187 -92 186 -143c0 -48 -25 -89 -74 -123c-49 -35 -129 -52 -239 -52c-196 0 -294 50 -294 151c0 24 8 47 25 69s36 37 56 46c-24 17 -36 43 -36 78c0 33 19 64 56 93c-32 30 -48 73 -48 130c0 151 135 203 246 202c60 0 112 -12 155 -35
c14 9 21 22 21 40c0 7 -1 12 -2 15z" />
    <glyph glyph-name="y.alt" 
d="M179 513l122 -321l122 321h164l-208 -474c-3 -5 -7 -17 -14 -34l-16 -37c-3 -9 -9 -21 -17 -37c-16 -33 -25 -46 -46 -74c-20 -28 -36 -41 -64 -60c-37 -27 -87 -42 -148 -42c-57 0 -110 17 -159 50l52 117c34 -23 71 -35 111 -35c37 0 68 18 92 57c13 19 22 34 28 47
c7 13 15 30 24 52l-211 470h168z" />
    <glyph glyph-name="yacute.alt" 
d="M179 513l122 -321l122 321h164l-208 -474c-3 -5 -7 -17 -14 -34l-16 -37c-3 -9 -9 -21 -17 -37c-16 -33 -25 -46 -46 -74c-20 -28 -36 -41 -64 -60c-37 -27 -87 -42 -148 -42c-57 0 -110 17 -159 50l52 117c34 -23 71 -35 111 -35c37 0 68 18 92 57c13 19 22 34 28 47
c7 13 15 30 24 52l-211 470h168zM218 577l99 173h157l-148 -173h-108z" />
    <glyph glyph-name="ycircumflex.alt" 
d="M179 513l122 -321l122 321h164l-208 -474c-3 -5 -7 -17 -14 -34l-16 -37c-3 -9 -9 -21 -17 -37c-16 -33 -25 -46 -46 -74c-20 -28 -36 -41 -64 -60c-37 -27 -87 -42 -148 -42c-57 0 -110 17 -159 50l52 117c34 -23 71 -35 111 -35c37 0 68 18 92 57c13 19 22 34 28 47
c7 13 15 30 24 52l-211 470h168zM119 577l105 173h147l106 -173h-105l-74 92l-74 -92h-105z" />
    <glyph glyph-name="ydieresis.alt" 
d="M179 513l122 -321l122 321h164l-208 -474c-3 -5 -7 -17 -14 -34l-16 -37c-3 -9 -9 -21 -17 -37c-16 -33 -25 -46 -46 -74c-20 -28 -36 -41 -64 -60c-37 -27 -87 -42 -148 -42c-57 0 -110 17 -159 50l52 117c34 -23 71 -35 111 -35c37 0 68 18 92 57c13 19 22 34 28 47
c7 13 15 30 24 52l-211 470h168zM82 664c0 47 38 81 87 81c48 0 87 -36 87 -81s-39 -79 -87 -79c-49 0 -87 34 -87 79zM330 664c0 47 37 81 86 81s88 -36 88 -81s-39 -79 -88 -79s-86 34 -86 79z" />
    <glyph glyph-name="ygrave.alt" 
d="M179 513l122 -321l122 321h164l-208 -474c-3 -5 -7 -17 -14 -34l-16 -37c-3 -9 -9 -21 -17 -37c-16 -33 -25 -46 -46 -74c-20 -28 -36 -41 -64 -60c-37 -27 -87 -42 -148 -42c-57 0 -110 17 -159 50l52 117c34 -23 71 -35 111 -35c37 0 68 18 92 57c13 19 22 34 28 47
c7 13 15 30 24 52l-211 470h168zM261 577l-148 173h157l99 -173h-108z" />
    </font>
</defs>
</svg>
